<svg width="129" height="35" viewBox="0 0 129 35" fill="none" xmlns="http://www.w3.org/2000/svg"><path d="M44.986 17.185c.513.276 1.262.552 2.247.788.985.236 1.97.355 2.996.355.985 0 1.93-.119 2.759-.355a6.257 6.257 0 002.167-1.104 5.494 5.494 0 001.42-1.734c.354-.67.512-1.419.512-2.246a4.428 4.428 0 00-.907-2.72c-.591-.788-1.616-1.419-3.035-1.892l-2.759-.867c-1.025-.355-1.773-.71-2.128-1.064-.394-.355-.591-.828-.591-1.38 0-.788.315-1.38.906-1.734.63-.355 1.459-.552 2.602-.552 1.379 0 2.64.237 3.744.749.355.158.591.237.749.237.276 0 .433-.198.433-.631v-.946c0-.276-.04-.473-.157-.63-.119-.158-.316-.316-.592-.474a4.297 4.297 0 00-.827-.354c-.355-.119-.71-.197-1.104-.316-.394-.079-.828-.157-1.261-.236-.434-.04-.867-.079-1.3-.079a8.14 8.14 0 00-2.444.355c-.789.236-1.459.552-2.01 1.024a4.518 4.518 0 00-1.38 1.616c-.355.631-.513 1.34-.513 2.168 0 1.025.316 1.971.986 2.838.63.867 1.695 1.537 3.114 1.97l2.837.868c.946.315 1.616.67 1.971 1.025.355.354.513.827.513 1.38 0 .787-.316 1.418-1.025 1.852-.67.433-1.616.63-2.838.63-.788 0-1.537-.079-2.325-.236a10.381 10.381 0 01-2.129-.67c-.197-.079-.355-.158-.512-.197a1.151 1.151 0 00-.355-.08c-.276 0-.434.198-.434.632v.985c0 .197.04.355.119.552.04.079.236.276.551.473zM12.077 7.725a12.6 12.6 0 00-2.05-.158c-2.01 0-3.587.513-4.769 1.498-1.182 1.025-1.774 2.326-1.774 4.02 0 1.577.473 2.799 1.42 3.745.945.946 2.246 1.38 3.901 1.38 2.286 0 4.218-.907 5.715-2.68.197.433.395.827.592 1.142.197.316.433.63.71.907.196.197.354.276.59.276.158 0 .316-.04.513-.158l1.221-.828c.237-.197.355-.354.355-.591 0-.118-.04-.276-.118-.433a13.082 13.082 0 01-.63-1.38c-.158-.434-.237-1.025-.237-1.734V6.385c0-2.128-.552-3.744-1.616-4.77C14.836.553 13.14.04 10.815.04c-1.064 0-2.089.119-3.034.355-.946.237-1.774.552-2.444.907-.276.118-.473.275-.552.394-.118.118-.158.354-.158.67v.946c0 .394.119.63.395.63.078 0 .157 0 .315-.04.118-.038.355-.117.67-.236.67-.275 1.38-.512 2.089-.67a9.703 9.703 0 012.089-.236c1.498 0 2.562.315 3.153.906.63.592.907 1.656.907 3.114V8.2a10.681 10.681 0 00-2.168-.474zm2.207 3.43c0 .67-.079 1.221-.197 1.694-.118.473-.355.867-.67 1.261a4.218 4.218 0 01-1.853 1.261c-.71.237-1.38.355-2.01.355-.867 0-1.576-.236-2.05-.71-.472-.472-.709-1.142-.709-2.049 0-.985.316-1.734.946-2.246.63-.513 1.616-.789 2.877-.789.592 0 1.183.04 1.813.119.631.078 1.222.197 1.774.315v.788h.079zM24.058 16.83c.118.394.236.63.394.749.157.118.394.197.748.197h1.656c.355 0 .63-.079.788-.197.158-.118.276-.394.355-.788l2.995-12.534 3.114 12.534c.079.394.197.63.394.788.158.118.434.197.789.197h1.655c.355 0 .591-.079.749-.197.157-.118.276-.394.394-.749l4.69-15.056c.08-.197.119-.355.158-.473.04-.118.04-.197.04-.316 0-.315-.158-.473-.474-.473H40.69c-.354 0-.63.08-.748.198-.158.118-.276.394-.395.748l-3.39 13.047-3.074-13.047c-.078-.394-.197-.63-.354-.748-.158-.119-.434-.198-.789-.198h-1.576c-.355 0-.63.08-.788.198-.158.118-.276.394-.355.748l-3.035 12.889-3.31-12.889c-.12-.394-.237-.63-.395-.748-.158-.119-.394-.198-.749-.198H19.84c-.315 0-.473.158-.473.473 0 .119.04.395.158.789l4.533 15.056z" fill="#868686"/><path d="M52.988 26.25c-7.174 3.035-15.017 4.533-22.112 4.533-10.524 0-20.732-2.878-28.97-7.686-.709-.434-1.26.315-.67.867C8.883 30.86 18.973 35 30.206 35c8.001 0 17.303-2.523 23.728-7.252 1.064-.75.157-1.932-.946-1.498z" fill="#E1E1E1"/><path d="M48.928 23.61c-.552.393-.473.945.157.866 2.05-.236 6.661-.788 7.489.237.828 1.064-.907 5.36-1.695 7.291-.236.592.276.828.788.395 3.43-2.878 4.336-8.908 3.627-9.775-.67-.867-6.661-1.616-10.366.985z" fill="#E1E1E1"/><path d="M74.744 13.756c-.157 0-.236-.08-.236-.237V2.995c0-.157.079-.236.236-.236h.276c.158 0 .237.079.276.236l.079.631c.473-.394.946-.67 1.38-.828.433-.157.906-.276 1.379-.276.985 0 1.774.355 2.365 1.065.591.71.867 1.694.867 2.956 0 1.261-.315 2.286-.907 3.035-.59.748-1.419 1.143-2.443 1.143-.946 0-1.813-.355-2.602-1.065v3.824c0 .157-.079.236-.236.236h-.434v.04zm3.153-3.824c.828 0 1.498-.276 1.892-.827.434-.552.631-1.38.631-2.483 0-2.208-.828-3.272-2.483-3.272-.867 0-1.695.315-2.562.986v4.532c.433.355.828.63 1.222.788.433.198.867.276 1.3.276zM85.189 10.72c-.71 0-1.261-.196-1.695-.59-.434-.395-.63-.947-.63-1.617 0-.748.275-1.34.788-1.773.512-.434 1.221-.67 2.088-.67.71 0 1.42.118 2.208.354v-1.3c0-.63-.158-1.064-.434-1.34-.315-.276-.788-.394-1.498-.394-.709 0-1.458.118-2.246.394-.079.04-.158.04-.237.04-.118 0-.157-.08-.157-.198v-.315c0-.08 0-.158.04-.197a.544.544 0 01.157-.119 7.246 7.246 0 012.601-.473c.907 0 1.577.198 2.01.592.434.394.67.946.67 1.734v5.478c0 .158-.079.237-.236.237h-.316c-.157 0-.236-.079-.236-.237l-.079-.67c-.867.71-1.813 1.065-2.798 1.065zm.118-.788c.394 0 .828-.078 1.261-.236a8.79 8.79 0 001.38-.67V7.095a7.46 7.46 0 00-2.01-.276c-1.459 0-2.168.551-2.168 1.655 0 .473.118.828.394 1.104.276.236.67.354 1.143.354zM91.457 10.563c-.157 0-.236-.079-.236-.236V2.996c0-.158.078-.237.236-.237h.276c.158 0 .237.079.276.237l.079.906c.394-.433.788-.749 1.143-.906.394-.197.788-.276 1.261-.276h.394c.158 0 .237.079.237.236v.394c0 .04 0 .08-.04.119-.04.039-.079.039-.118.039h-.552c-.473 0-.906.079-1.261.276-.355.158-.71.473-1.064.867v5.715c0 .158-.079.237-.237.237h-.394v-.04zM99.26 10.642c-.591 0-1.064-.158-1.38-.473-.315-.315-.472-.788-.472-1.42V3.548h-1.222c-.158 0-.237-.079-.237-.236v-.158c0-.079 0-.158.04-.197.04-.04.078-.079.197-.079l1.261-.118.118-2.05c0-.078.04-.157.079-.197.04-.04.079-.04.158-.04h.276c.157 0 .236.08.236.237v2.05h2.247c.157 0 .236.079.236.236v.316c0 .157-.079.236-.236.236h-2.247v5.164c0 .433.079.709.276.906.197.197.473.276.906.276.316 0 .552-.04.789-.079.118 0 .197-.04.276-.04.079 0 .118-.039.157-.039.119 0 .158.08.158.197v.237c0 .157-.039.276-.158.315-.433.118-.906.158-1.458.158zM102.729 10.563c-.158 0-.237-.079-.237-.236V2.996c0-.158.079-.237.237-.237h.315c.158 0 .236.079.276.237l.079.67a6.706 6.706 0 011.576-.828 4.807 4.807 0 011.616-.276c.749 0 1.34.197 1.735.591.394.394.591.986.591 1.774v5.44c0 .157-.079.236-.237.236h-.433c-.158 0-.237-.08-.237-.237V5.282c0-.67-.118-1.143-.394-1.459-.276-.315-.67-.473-1.222-.473-1.025 0-2.049.316-3.035.986v5.99c0 .158-.079.237-.236.237h-.394zM114.592 10.8c-1.222 0-2.168-.355-2.759-1.025-.631-.71-.946-1.734-.946-3.114 0-1.3.315-2.325.946-3.035.63-.71 1.497-1.064 2.64-1.064.946 0 1.656.276 2.168.788.513.552.749 1.301.749 2.326 0 .394-.039.71-.079.946-.039.157-.118.236-.276.236h-5.242c0 1.064.237 1.892.71 2.404.473.513 1.182.789 2.168.789.748 0 1.458-.118 2.128-.394.118-.04.236-.08.276-.08.039 0 .079 0 .118.04.039.04.039.079.039.118v.237c0 .158-.078.276-.157.315-.789.316-1.616.513-2.483.513zm1.892-4.69v-.513c0-.749-.198-1.3-.552-1.695-.355-.394-.907-.552-1.577-.552-1.616 0-2.483.907-2.601 2.76h4.73zM119.52 10.563c-.158 0-.237-.079-.237-.236V2.996c0-.158.079-.237.237-.237h.276c.157 0 .236.079.275.237l.079.906c.394-.433.789-.749 1.143-.906.394-.197.789-.276 1.262-.276h.394c.157 0 .236.079.236.236v.394c0 .04 0 .08-.039.119-.04.039-.079.039-.118.039h-.552c-.473 0-.907.079-1.261.276-.355.158-.71.473-1.065.867v5.715c0 .158-.079.237-.236.237h-.394v-.04zM74.744 27.748c-.157 0-.236-.079-.236-.237V20.22c0-.158.079-.237.236-.237h.316c.157 0 .236.079.275.237l.08.67a6.723 6.723 0 011.576-.828 4.806 4.806 0 011.616-.276c.749 0 1.34.197 1.734.591.394.395.591.986.591 1.774v5.44c0 .157-.079.236-.236.236h-.434c-.157 0-.236-.08-.236-.237v-5.124c0-.67-.118-1.143-.394-1.458-.276-.315-.67-.473-1.222-.473-1.025 0-2.05.315-3.035.985v5.991c0 .158-.079.237-.237.237h-.394zM86.61 27.984c-1.223 0-2.168-.355-2.76-1.025-.63-.709-.946-1.734-.946-3.113 0-1.301.316-2.326.946-3.035.63-.71 1.498-1.064 2.641-1.064.946 0 1.655.276 2.168.788.512.552.749 1.3.749 2.325 0 .395-.04.71-.08.946-.039.158-.117.237-.275.237H83.81c0 1.064.236 1.892.71 2.404.472.512 1.182.788 2.167.788.749 0 1.458-.118 2.129-.394.118-.04.236-.079.275-.079.04 0 .08 0 .119.04.039.04.039.079.039.118v.236c0 .158-.079.276-.158.316a5.966 5.966 0 01-2.483.512zm1.891-4.69v-.512c0-.75-.197-1.301-.552-1.695-.354-.395-.906-.552-1.576-.552-1.616 0-2.483.906-2.602 2.759h4.73zM93.703 27.866c-.59 0-1.064-.158-1.38-.473-.314-.315-.472-.788-.472-1.419v-5.242h-1.222c-.158 0-.236-.079-.236-.236v-.158c0-.079 0-.158.039-.197.04-.04.079-.079.197-.079l1.261-.118.119-2.05c0-.079.039-.157.078-.197.04-.04.08-.04.158-.04h.276c.158 0 .236.08.236.237v2.01h2.247c.158 0 .237.08.237.237v.315c0 .158-.08.237-.237.237h-2.247v5.163c0 .433.08.71.276.906.197.197.473.276.907.276.315 0 .552-.04.788-.079.118 0 .197-.039.276-.039.079 0 .118-.04.158-.04.118 0 .157.08.157.198v.236c0 .158-.039.276-.157.316a4.193 4.193 0 01-1.459.236zM98.787 27.748c-.158 0-.237-.08-.276-.197l-2.444-7.213c-.04-.119-.079-.197-.079-.237 0-.079.08-.157.197-.157h.513c.118 0 .236.078.276.197l2.128 6.582 1.892-6.543c.039-.158.158-.197.276-.197h.552c.157 0 .236.079.276.197l1.852 6.582 2.168-6.621c.039-.119.118-.197.276-.197h.473c.118 0 .197.039.197.157 0 .04-.04.119-.079.237l-2.523 7.213c-.039.157-.157.197-.276.197h-.512c-.158 0-.236-.08-.276-.197l-1.892-6.583-1.852 6.583c-.04.157-.158.197-.276.197h-.591zM111.636 27.984c-1.143 0-2.011-.354-2.641-1.103-.631-.75-.946-1.735-.946-3.035s.315-2.326.946-3.035c.63-.71 1.498-1.104 2.641-1.104s2.01.355 2.64 1.104c.631.71.946 1.734.946 3.035 0 1.3-.315 2.325-.946 3.035-.63.749-1.537 1.103-2.64 1.103zm0-.788c1.773 0 2.68-1.104 2.68-3.31 0-2.208-.907-3.312-2.68-3.312-1.774 0-2.681 1.104-2.681 3.311s.867 3.311 2.681 3.311zM117.471 27.748c-.158 0-.237-.08-.237-.237V20.22c0-.158.079-.237.237-.237h.276c.157 0 .236.079.276.236l.078.907c.395-.434.789-.749 1.144-.907.394-.197.788-.275 1.261-.275h.394c.158 0 .236.078.236.236v.394c0 .04 0 .08-.039.118-.039.04-.079.04-.118.04h-.552c-.473 0-.907.079-1.261.276-.355.158-.71.473-1.065.867v5.715c0 .158-.078.236-.236.236h-.394v-.078zM122.791 27.748c-.157 0-.236-.079-.236-.237V16.554c0-.157.079-.236.236-.236h.434c.157 0 .236.078.236.236v6.898l3.705-3.311a.506.506 0 01.394-.158h.552c.118 0 .197.04.197.158 0 .04-.039.118-.157.236l-3.784 3.272 4.059 3.744c.079.079.158.158.158.197 0 .118-.079.158-.197.158h-.67a.482.482 0 01-.355-.158l-3.941-3.665v3.586c0 .158-.079.237-.237.237h-.394z" fill="#888"/></svg>