<svg width="90" height="26" viewBox="0 0 90 26" fill="none" xmlns="http://www.w3.org/2000/svg">
<path d="M79.7154 9.32363C80.9362 8.2102 82.2927 7.87722 83.7536 7.87722C86.9988 7.87722 89.3466 9.94798 89.7744 13.1842C89.9101 14.1936 89.9727 15.2237 89.9831 16.2331C90.0144 19.0219 89.9936 21.821 89.9936 24.6098C89.9936 24.7971 89.9936 24.9844 89.9936 25.2029C88.6162 25.2029 87.2805 25.2029 85.9032 25.2029C85.8927 25.0572 85.8719 24.9116 85.8719 24.7659C85.8823 21.4672 85.9032 18.179 85.8927 14.8803C85.8927 14.2768 85.8301 13.6629 85.684 13.0801C85.444 12.1332 84.7658 11.6441 83.7849 11.6025C81.4058 11.488 79.8093 12.9136 79.7675 15.3486C79.7049 18.4287 79.7362 21.5193 79.7258 24.6098C79.7258 24.8699 79.7258 25.1197 79.7258 25.411C78.338 25.411 77.0128 25.411 75.6562 25.411C75.6562 16.9303 75.6562 8.48075 75.6562 0C77.0023 0 78.338 0 79.7362 0C79.7154 3.06972 79.7154 6.12904 79.7154 9.32363Z" fill="#8F8F8F"/>
<path d="M18.1102 18.7202C19.0389 19.6047 19.9259 20.4579 20.8128 21.3112C19.0598 23.3716 16.8372 24.6307 14.1972 25.1614C11.3276 25.7337 8.58324 25.3591 6.03715 23.9231C3.19889 22.3102 1.36237 19.8544 0.538019 16.7222C-0.52633 12.664 -0.0776334 8.79299 2.47889 5.36947C4.76411 2.29975 7.90498 0.832529 11.745 0.874152C13.9572 0.894964 16.065 1.35282 17.9537 2.52868C19.0493 3.20506 20.0302 4.06874 21.0737 4.84918C20.0824 5.81692 19.2059 6.69101 18.4128 7.46105C17.4215 6.78467 16.4615 5.92098 15.3346 5.39028C10.9102 3.29871 5.40063 5.35907 4.21107 10.8013C3.68933 13.1843 3.87715 15.5048 5.09802 17.6484C6.90324 20.7909 10.2424 22.1333 13.7902 21.2696C15.5224 20.8325 16.9624 19.9585 18.1102 18.7202Z" fill="#8F8F8F"/>
<path d="M41.9852 8.2312C43.3835 8.2312 44.6982 8.2312 46.0339 8.2312C46.0339 13.9544 46.0339 19.6568 46.0339 25.3905C44.6982 25.3905 43.373 25.3905 41.9852 25.3905C41.9852 24.943 41.9852 24.506 41.9852 24.1522C41.1608 24.4956 40.3887 24.9638 39.5539 25.1511C36.9139 25.7547 34.4826 25.4321 32.5104 23.3509C31.4461 22.2271 30.8095 20.8535 30.7678 19.3342C30.653 15.713 30.6739 12.0918 30.6426 8.47054C30.6426 8.4081 30.6634 8.33526 30.6739 8.2312C32.0095 8.2312 33.3348 8.2312 34.7121 8.2312C34.7121 8.47054 34.7121 8.66825 34.7121 8.87636C34.7121 11.8733 34.7017 14.8805 34.7226 17.8774C34.7226 18.4289 34.7852 18.9909 34.9104 19.5216C35.2756 21.0408 36.4339 21.8317 37.9991 21.6756C40.5765 21.4258 41.9643 19.9066 41.9852 17.2635C41.9956 14.4747 41.9852 11.6755 41.9852 8.88677C41.9852 8.68906 41.9852 8.49135 41.9852 8.2312Z" fill="#8F8F8F"/>
<path d="M70.6988 19.7919C71.6379 20.7284 72.5562 21.6441 73.4744 22.5598C70.0205 26.077 64.4693 26.4204 60.7962 23.2154C57.3215 20.1769 57.0189 14.1727 60.1075 10.7596C63.2901 7.25284 69.1753 6.62849 73.5475 10.7492C72.6084 11.6233 71.6692 12.487 70.7405 13.3611C68.6327 10.7804 64.6362 11.3423 63.1023 13.0801C61.4119 14.9948 61.4954 18.3351 63.3632 20.1873C65.158 21.9563 68.4449 22.0707 70.6988 19.7919Z" fill="#8F8F8F"/>
<path d="M54.198 25.4005C52.7893 25.4005 51.4641 25.4005 50.0867 25.4005C50.0867 20.9988 50.0867 16.5972 50.0867 12.1435C49.064 12.1435 48.0832 12.1435 47.0605 12.1435C47.0605 10.8115 47.0605 9.542 47.0605 8.22046C48.0414 8.22046 49.0119 8.22046 50.0449 8.22046C50.0449 6.11848 50.0449 4.04772 50.0449 1.96655C51.4432 1.96655 52.7789 1.96655 54.1667 1.96655C54.1667 4.02691 54.1667 6.07686 54.1667 8.19965C55.2102 8.19965 56.1911 8.19965 57.2032 8.19965C57.2032 9.52119 57.2032 10.7803 57.2032 12.1018C56.2328 12.1018 55.2519 12.1018 54.198 12.1018C54.198 16.5659 54.198 20.9676 54.198 25.4005Z" fill="#8F8F8F"/>
<path d="M23.4551 25.4006C23.4551 16.9095 23.4551 8.47035 23.4551 0C24.8012 0 26.1264 0 27.4829 0C27.4829 8.47035 27.4829 16.9199 27.4829 25.4006C26.1473 25.4006 24.822 25.4006 23.4551 25.4006Z" fill="#8F8F8F"/>
<path d="M69.4254 16.6281C69.4567 18.1994 68.1941 19.4897 66.6184 19.4689C65.001 19.4481 63.8219 18.3763 63.7593 16.6593C63.7071 15.1192 65.0636 13.8081 66.6393 13.8081C68.1419 13.8081 69.415 15.1088 69.4254 16.6281Z" fill="#8F8F8F"/>
</svg>
