<!-- Generated by IcoMoon.io -->
<svg version="1.1" xmlns="http://www.w3.org/2000/svg" width="3413" height="1024" viewBox="0 0 3413 1024">
<title></title>
<g id="icomoon-ignore">
</g>
<path fill="#000" d="M1173.835 501.968c36.135 0 60.392 17.273 75.242 38.735v-305.688c0-5.758-6.434-9.423-10.89-5.758l-356.907 275.852h9.405c37.127 0 55.938 25.126 55.938 52.343 0 21.461-10.395 37.164-24.752 43.969-2.475 1.046-2.475 4.71 0 5.758 16.336 7.328 28.216 25.648 28.216 47.633 0 31.406-19.306 56.008-56.431 56.008h-101.478c-1.98 0-3.961-1.57-3.961-4.188v-129.812l-265.824 205.711c-4.454 4.186-2.475 11.515 3.466 11.515h716.783c3.465 0 5.939-2.616 5.939-6.281v-104.165c-19.306 18.843-44.551 30.884-75.242 30.884-57.423 0-103.953-41.876-103.953-106.259 0.495-64.906 47.52-106.257 104.448-106.257v0zM1031.765 707.156c0 2.094-1.485 3.664-3.465 3.664h-34.157c-1.98 0-3.465-1.57-3.465-3.664v-198.383c0-2.094 1.485-3.664 3.465-3.664h34.157c1.98 0 3.465 1.57 3.465 3.664v198.383z"></path>
<path fill="#000" d="M833.777 586.759h48.017c13.86 0 22.77-8.376 22.77-21.461 0-12.563-8.911-21.461-22.77-21.461h-49.997c-0.99 0-1.98 1.048-1.98 2.094v37.164c0 2.094 1.98 3.664 3.959 3.664zM833.777 672.602h49.997c15.345 0 24.75-8.899 24.75-23.555 0-13.085-8.911-23.554-24.75-23.554h-49.997c-1.98 0-3.959 1.57-3.959 4.186v38.735c0 2.094 1.98 4.188 3.959 4.188v0zM1217.908 564.251c-9.405-13.087-25.245-23.555-44.056-23.555-35.64 0-61.382 28.79-61.382 67.523 0 38.735 25.742 67.524 61.382 67.524 16.336 0 31.681-7.328 40.096-14.657 0.495-0.522 0.99-1.57 0.99-2.616v-19.891c0-1.57-1.485-3.14-2.97-3.14h-44.056c-2.476 0-3.961-2.094-3.961-4.188v-29.312c0-2.616 1.98-4.188 3.961-4.188h81.676v-46.585l-26.235 15.179c-1.98 0.524-4.454-0.522-5.446-2.092v0zM1279.785 608.218c0-63.334 43.068-106.257 98.509-106.257 36.137 0 59.402 19.367 73.262 42.923 0.99 1.57 0.495 4.186-1.485 4.71l-22.275 12.563c-1.485 1.046-3.466 0.522-3.961-1.048-9.404-15.703-26.73-27.218-45.541-27.218-37.127 0-64.847 30.882-64.847 74.327 0 42.923 27.72 74.329 64.847 74.329 18.811 0 36.137-11.515 45.541-27.218 0.992-1.57 2.476-2.094 3.961-1.048l22.275 12.039c1.98 1.048 2.475 3.142 1.485 5.234-14.355 23.555-37.622 43.447-73.262 43.447-55.441-0.524-98.509-43.969-98.509-106.783v0zM1470.862 608.218c0-51.296 27.721-91.078 69.303-102.593 70.787-19.891 135.634 50.249 120.288 128.242-9.404 48.155-45.541 81.133-93.558 81.133-56.431-0.524-96.032-45.539-96.032-106.783v0zM1628.771 608.218c0-42.397-24.75-74.327-62.372-74.327-38.115 0-62.372 31.93-62.372 74.327 0 42.399 24.257 74.329 62.372 74.329 38.117 0 62.372-32.452 62.372-74.329zM1864.397 708.195v-156.506l-58.897 157.554c0 0.524-0.99 1.046-1.485 1.046h-12.39c-0.495 0-1.485-0.522-1.485-1.046l-59.392-157.554v156.506c0 1.572-0.99 2.618-2.475 2.618h-29.705c-1.485 0-2.475-1.046-2.475-2.618v-200.999c0-1.57 0.99-2.616 2.475-2.616h42.573c1.98 0 3.465 1.046 4.454 3.14l51.968 141.327 51.49-141.327c0.495-2.094 2.475-3.14 4.454-3.14h42.564c1.485 0 2.475 1.046 2.475 2.616v200.999c0 1.572-0.99 2.618-2.475 2.618h-29.696c-0.495 0-1.98-1.046-1.98-2.618zM2201.003 707.149v-198.383c0-2.094 1.485-3.664 3.465-3.664h126.242c1.98 0 3.465 1.57 3.465 3.664v24.078c0 2.094-1.485 3.664-3.465 3.664h-92.075c-1.98 0-3.465 1.57-3.465 3.664v45.539c0 2.094 1.485 3.664 3.465 3.664h90.095c1.98 0 3.465 1.57 3.465 3.664v24.078c0 2.094-1.485 3.664-3.465 3.664h-90.095c-1.98 0-3.465 1.57-3.465 3.664v49.727c0 2.094 1.485 3.664 3.465 3.664h92.075c1.98 0 3.465 1.57 3.465 3.664v24.078c0 2.094-1.485 3.664-3.465 3.664h-126.242c-1.98 1.57-3.465 0-3.465-2.094v0zM2492.57 708.719l-41.079-73.281c-0.495-1.046-1.98-1.57-2.97-1.57h-28.706c-1.98 0-3.482 1.57-3.482 3.664v69.617c0 2.094-1.485 3.664-3.465 3.664h-26.726c-1.98 0-3.465-1.57-3.465-3.664v-198.383c0-2.094 1.485-3.664 3.465-3.664h82.176c38.605 0 63.863 26.172 63.863 64.384 0 34.022-19.814 53.39-41.591 59.148-2.475 0.524-3.465 3.14-2.475 5.758 7.919 13.609 32.683 55.484 42.086 70.663 1.485 2.618 0 5.758-2.97 5.758h-31.198c-1.485 0-2.475-0.524-3.465-2.094zM2497.024 568.962c0-19.891-13.858-32.454-33.161-32.454h-43.554c-1.98 0-3.465 1.57-3.465 3.664v58.102c0 2.094 1.485 3.664 3.465 3.664h43.554c19.302 0 33.161-12.563 33.161-32.976v0zM2762.854 707.149v-198.383c0-2.094 1.485-3.664 3.465-3.664h126.72c1.98 0 3.465 1.57 3.465 3.664v24.602c0 2.094-1.485 3.664-3.465 3.664h-92.57c-1.98 0-3.465 1.57-3.465 3.664v46.063c0 2.092 1.485 3.664 3.465 3.664h90.095c1.98 0 3.465 1.57 3.465 3.664v24.6c0 2.094-1.485 3.664-3.465 3.664h-90.095c-1.98 0-3.465 1.57-3.465 3.664v50.251c0 2.092 1.485 3.664 3.465 3.664h92.57c1.98 0 3.465 1.57 3.465 3.663v24.602c0 2.094-1.485 3.664-3.465 3.664h-126.72c-1.98-1.046-3.465-2.616-3.465-4.71v0zM2556.928 607.172c0-63.336 43.059-106.257 98.509-106.257 36.13 0 59.392 19.367 73.267 42.921 0.99 1.57 0.495 4.188-1.485 4.71l-22.289 12.563c-1.485 1.048-3.465 0.524-3.959-1.046-9.404-15.703-26.726-27.22-45.534-27.22-37.137 0-64.853 30.884-64.853 74.329 0 42.923 27.716 74.329 64.853 74.329 18.807 0 36.13-11.517 45.534-27.22 0.99-1.57 2.475-2.094 3.959-1.046l22.289 12.039c1.98 1.046 2.475 3.14 1.485 5.234-14.37 23.555-37.632 43.445-73.267 43.445-55.45-0.524-98.509-43.445-98.509-106.781v0zM2116.864 708.195v-156.506l-58.914 157.554c0 0.524-0.99 1.046-1.485 1.046h-12.373c-0.495 0-1.485-0.522-1.485-1.046l-59.409-157.554v156.506c0 1.572-0.99 2.618-2.475 2.618h-29.696c-1.485 0-2.475-1.046-2.475-2.618v-200.999c0-1.57 0.99-2.616 2.475-2.616h42.564c1.98 0 3.465 1.046 4.454 3.14l51.985 141.327 51.473-141.327c0.495-2.094 2.475-3.14 4.454-3.14h42.581c1.485 0 2.475 1.046 2.475 2.616v200.999c0 1.572-0.99 2.618-2.475 2.618h-29.696c-0.99 0-1.98-1.046-1.98-2.618z"></path>
</svg>
