<!-- Generated by IcoMoon.io -->
<svg version="1.1" xmlns="http://www.w3.org/2000/svg" width="3413" height="1024" viewBox="0 0 3413 1024">
<title></title>
<g id="icomoon-ignore">
</g>
<path fill="#000" d="M809.267 111.722v-0.093c-65.381 3.166-124.947 20.669-121.37 34.17 4.562 16.2 49.012 12.104 66.007 12.104 62.339 0 122.264 12.755 136.574 31.098 22.361 28.583-16.099 99.249-134.518 195.521-22.629 18.434-39.622 35.379-43.378 43.759-1.968 4.376-1.073 10.8 5.188 11.732 6.528 0.93 22.091-2.794 47.85-16.759 105.182-56.794 225.836-172.431 202.045-251.756-14.49-48.416-92.481-63.033-158.399-59.774zM669.92 475.484c-50.355 3.072-136.842 21.6-133.623 40.035 3.041 20.017 57.957 13.873 83 13.873 55.095 0 142.747 3.91 156.52 45.249 29.785 89.008-171.993 248.777-214.924 233.322-19.499-6.89 39.354-122.993 60.819-164.796 12.79-24.859 32.109-64.058 15.563-66.758-18.425-2.886-38.816 33.985-52.055 55.212-35.954 57.725-72.625 120.851-102.141 185.651-9.122 20.017-39.352 80.258-28.889 87.985 9.66 7.262 55.721-3.072 114.483-30.073 184.426-84.912 267.426-195.429 289.787-286.764 3.444-13.723 2.922-28.199-1.5-41.614-4.424-13.416-12.551-25.173-23.364-33.802-38.548-30.725-107.15-41.059-163.676-37.615z"></path>
<path fill="#000" d="M1106.307 377.537v0c-59.568-11.172-166.001-15.548-202.404 48.695-28.174 49.625 25.044 117.685 73.341 183.511 38.728 52.791 81.033 103.253 63.771 132.675-14.042 24.021-104.288 24.021-135.323 25.883-37.743 2.328-92.034 2.514-101.603 8.38-8.497 5.306-13.237 21.787 18.693 28.303 25.668 5.308 86.757 16.015 151.153 16.015 67.26-0.094 137.917-12.663 153.301-72.716 12.252-48.135-30.409-99.809-67.975-152.228-41.054-57.259-82.732-98.132-79.244-138.726 2.683-31.563 56.527-33.425 145.698-35.193 18.603-0.466 55.632-1.49 48.476-18.342-6.351-14.897-33.987-19.831-67.884-26.257zM2496.751 557.696v0c-61.184 0-92.126-19.738-80.503-84.446l16.998-91.895c1.161-6.144 5.359-8.008 9.83-8.008h34.697l-9.557 52.884-7.97 41.619-2.048 10.892c-5.99 33.705 4.284 48.323 42.923 48.323 35.072 0 55.808-14.99 62.174-48.323l4.557-24.393 5.359-28.117 9.574-52.884h34.611c4.471 0 8.055 1.864 6.895 8.008l-16.998 91.895c-11.264 58.935-38.997 84.446-110.541 84.446zM1279.732 657.319v0.092c6.975-34.261 34.434-34.449 80.138-34.449h80.674l-3.13 16.759c-1.432 7.914-6.439 11.638-15.025 11.638h-63.771c-20.482 0-26.296 0.28-28.174 9.032-3.488 15.456 10.733 19.18 65.113 51.209 9.993 5.209 19.113 12.063 27.010 20.296 4.949 5.388 8.253 12.182 9.496 19.523 1.241 7.342 0.365 14.901-2.519 21.724-9.928 27.745-37.207 30.539-80.765 30.539h-95.075l2.953-16.108c1.521-7.914 6.528-11.639 15.114-11.639h75.399c19.050 0 30.23-0.464 33.271-12.104 3.936-14.43-5.724-16.48-48.119-43.851-38.726-25.045-57.777-37.243-52.589-62.66zM1699.205 657.319l0.089 0.092c6.977-34.261 34.338-34.449 80.145-34.449h80.674l-3.14 16.759c-1.519 7.914-6.519 11.638-15.019 11.638h-63.863c-20.48 0-26.197 0.28-28.177 9.032-3.396 15.456 10.82 19.18 65.109 51.209 10.035 5.207 19.183 12.061 27.102 20.296 4.966 5.385 8.26 12.184 9.489 19.531 1.229 7.345 0.324 14.906-2.594 21.716-9.847 27.745-37.12 30.539-80.674 30.539h-95.167l3.041-16.108c1.521-7.914 6.439-11.639 15.025-11.639h75.479c18.961 0 30.157-0.464 33.28-12.104 3.942-14.43-5.717-16.48-48.111-43.851-38.741-25.045-57.786-37.243-52.688-62.66zM2762.462 657.319v0.092c6.98-34.261 34.441-34.449 80.145-34.449h80.674l-3.123 16.759c-1.519 7.914-6.451 11.638-15.036 11.638h-63.761c-20.48 0-26.385 0.28-28.177 9.032-3.499 15.456 10.735 19.18 65.024 51.209 10.018 5.199 19.166 12.054 27.102 20.296 4.949 5.381 8.26 12.175 9.506 19.519s0.358 14.906-2.543 21.728c-9.916 27.745-37.205 30.539-80.759 30.539h-95.078l2.953-16.108c1.519-7.914 6.537-11.639 15.036-11.639h75.486c19.046 0 30.14-0.464 33.263-12.104 3.942-14.43-5.717-16.48-48.111-43.851-38.724-25.045-57.788-37.243-52.599-62.66zM2134.596 523.247l0.085-0.092c-9.916 27.745-37.205 30.537-80.759 30.537h-95.078l2.953-16.106c1.519-7.916 6.451-11.639 15.121-11.639h75.401c19.046 0 30.14-0.464 33.263-12.104 3.942-14.432-5.717-16.48-48.111-43.853-38.724-25.045-57.788-37.335-52.685-62.752 7.066-34.169 34.526-34.449 80.23-34.449h80.674l-3.123 16.945c-1.519 7.914-6.451 11.546-15.036 11.546h-63.761c-20.48 0-26.3 0.372-28.262 9.124-3.413 15.456 10.82 19.086 65.109 51.021 10.035 5.27 19.183 12.186 27.102 20.483 4.949 5.4 8.26 12.215 9.489 19.577s0.324 14.938-2.611 21.762zM1932.015 523.247v-0.092c-9.933 27.745-37.205 30.537-80.759 30.537h-95.164l2.953-16.106c1.604-7.916 6.519-11.639 15.206-11.639h75.401c19.046 0 30.225-0.464 33.263-12.104 3.942-14.432-5.82-16.48-48.111-43.853-38.741-25.045-57.788-37.335-52.599-62.752 6.98-34.169 34.355-34.449 80.145-34.449h80.674l-3.14 16.945c-1.519 7.914-6.434 11.546-15.104 11.546h-63.693c-20.565 0-26.385 0.372-28.16 9.124-3.499 15.456 10.633 19.086 65.109 51.021 9.984 5.292 19.098 12.208 26.999 20.483 4.966 5.396 8.294 12.206 9.523 19.567 1.246 7.359 0.358 14.938-2.543 21.772zM2816.751 373.347h166.007l-3.123 16.945c-1.434 7.356-4.301 11.080-12.356 11.080h-56.883l-26.112 139.472c-1.69 9.124-6.707 12.848-15.292 12.848h-30.583l28.433-152.32h-68.147l3.396-18.248c1.246-6.704 6.076-9.777 14.66-9.777zM1330.623 423.532l36.49-0.094-19.050 102.417h61.713c32.647-3.074 47.493-23.183 55.991-62.288 8.675-39.755 2.504-62.38-40.963-62.38h-90.156c-19.676 0-21.108-13.408-18.335-25.511l0.536-2.328h124.143c58.494 0 79.959 37.615 70.658 89.103-12.431 68.99-52.233 91.242-109.742 91.242h-102.589l23.255-124.109c0.447-3.072 3.756-6.052 8.050-6.052zM2792.431 536.841l-3.123 16.852h-146.603l33.638-180.345h37.018c3.755 0 5.905 3.074 5.376 6.146l-27.375 146.362h93.013c6.895 0 9.574 3.072 8.055 10.986zM2515.712 623.428v0c6.519 0 8.311 4.19 6.963 11.546l-31.471 168.707h-33.28c-7.066 0-9.574-3.632-8.311-10.336l23.603-126.251-59.563 56.794c-1.417 1.654-3.14 3-5.052 3.958-1.929 0.959-4.011 1.512-6.127 1.628h-17.271c-1.86 0.027-3.703-0.48-5.308-1.464s-2.918-2.412-3.806-4.122l-38.281-56.794-23.62 126.251c-1.246 6.61-5.086 10.336-12.066 10.336h-33.365l31.573-168.707c1.348-7.356 4.83-11.546 11.264-11.546h39.185l49.732 70.294 76.015-70.294h39.185zM2100.702 634.974v0c1.434-7.914 5.905-11.546 13.414-11.546h144.538l-3.942 21.228c-1.331 6.704-6.161 6.704-10.991 6.704h-102.588l-8.943 48.323h93.901c2.697 0 3.942 1.862 3.499 4.282l-3.584 19.18c-0.444 2.422-2.406 4.284-5.103 4.284h-94.003l-9.028 48.415h106.342c8.055 0 9.847 2.42 8.414 9.776l-3.311 18.063h-160.102l31.488-168.707zM2575.991 634.974v0c1.519-7.914 5.905-11.546 13.414-11.546h144.435l-3.925 21.228c-1.263 6.704-6.093 6.704-10.923 6.704h-102.673l-8.943 48.323h94.003c2.594 0 3.942 1.862 3.482 4.282l-3.567 19.18c-0.444 2.422-2.423 4.284-5.103 4.284h-94.003l-9.028 48.415h106.342c8.055 0 9.745 2.42 8.414 9.776l-3.413 18.063h-160.085l31.573-168.707zM1615.937 629.48v0c0.536-3.072 3.845-6.144 7.601-6.144h37.030l-31.215 167.59c-1.789 9.030-6.709 12.756-15.384 12.756h-30.589l11.448-61.078c-55.453 17.69-141.047 30.539-123.517-63.59l9.301-49.533c0.538-3.072 3.756-6.052 8.050-6.052h36.581l-10.197 54.374c-10.822 58.004 58.762 42.363 85.594 33.797l15.295-82.12zM2073.242 640.28h0.085c-1.331 7.356-4.198 10.988-12.254 10.988h-56.969l-26.027 139.658c-1.792 9.030-6.707 12.756-15.292 12.756h-30.583l28.348-152.322h-68.147l3.396-18.156c1.331-6.796 6.161-9.776 14.746-9.776h165.837l-3.14 16.852zM1595.902 449.135c6.528-35.099 26.206-47.855 61.266-47.855 37.118 0 46.867 14.524 40.784 47.855l-1.968 10.894c-0.804 3.724-2.415 13.408-12.073 13.408h-92.571l4.471-24.207 0.090-0.094zM1543.579 553.692h32.824l9.481-52.417h102.052l-9.481 52.417h32.734c4.301 0 8.414-1.862 9.574-7.914l16.998-91.056c12.51-69.084-24.969-83.796-75.496-83.796-60.46 0-95.075 15.828-108.221 83.796l-16.995 91.056c-1.162 6.052 2.237 7.914 6.53 7.914v0zM2232.439 449.135c6.537-35.099 26.214-47.855 61.269-47.855 37.12 0 46.865 14.524 40.875 47.855l-2.048 10.894c-0.802 3.724-2.423 13.408-11.998 13.408h-92.655l4.557-24.207v-0.094zM2180.215 553.692h32.734l9.574-52.417h101.956l-9.472 52.417h32.734c4.284 0 8.397-1.862 9.557-7.914l16.998-91.056c12.527-69.084-24.951-83.796-75.486-83.796-60.467 0-94.993 15.828-108.22 83.796l-16.998 91.056c-1.161 6.052 2.236 7.914 6.622 7.914v0z"></path>
</svg>
