<!-- Generated by IcoMoon.io -->
<svg version="1.1" xmlns="http://www.w3.org/2000/svg" width="3413" height="1024" viewBox="0 0 3413 1024">
<title></title>
<g id="icomoon-ignore">
</g>
<path fill="#000" d="M1712.213 17.067c-151.291 0-293.612 50.946-400.853 143.445-52.552 45.29-93.775 98.057-122.622 156.959-30.075 61.251-45.271 126.384-45.271 193.577s15.196 132.325 45.271 193.623c28.848 58.807 70.115 111.621 122.622 156.96 107.242 92.45 249.609 143.396 400.887 143.396 151.296 0 293.615-50.946 400.862-143.444 52.463-45.387 93.73-98.202 122.658-156.96 29.986-61.298 45.227-126.478 45.227-193.623 0-67.193-15.189-132.279-45.227-193.577-28.928-58.902-70.195-111.669-122.658-156.96-107.298-92.451-249.617-143.397-400.896-143.397v0zM1712.213 35.71c304.333 0 551.031 212.842 551.031 475.29 0 262.589-246.699 475.336-551.031 475.336-304.35 0-551.047-212.746-551.047-475.336 0-262.448 246.697-475.29 551.047-475.29z"></path>
<path fill="#000" d="M1563.435 434.127c0 0-6.233-3.403-17.381-3.212-19.792 0.288-33.533 13.658-33.533 13.658l-5.050-13.85h-38.311l-0.227 214.424h47.684v-129.833c0-11.839 5.323-17.591 9.644-21.712 12.696-12.124 37.173-12.508 37.173-12.508v-46.967zM2159.479 434.127c0 0-6.281-3.403-17.425-3.212-19.883 0.288-33.536 13.658-33.536 13.658l-5.052-13.85h-38.349l-0.239 214.424h47.735v-129.833c0-11.839 5.274-17.591 9.557-21.712 12.783-12.124 37.257-12.508 37.257-12.508v-46.967h0.051zM1914.283 681.714h1.092l1.28 0.097c0.853 0.048 1.399 0.191 1.911 0.335 0.717 0.336 1.263 0.911 1.485 1.63 0.137 0.432 0.375 1.389 0.375 2.78 0.085 1.294 0.137 2.348 0.307 3.067h5.325l-0.137-0.623c-0.085-0.241-0.137-0.432-0.137-0.671-0.085-0.193-0.085-0.432-0.085-0.671v-2.014c0-2.253-0.597-3.93-1.86-4.983-0.649-0.527-1.69-0.959-3.055-1.295 1.502-0.143 2.731-0.623 3.686-1.485 1.041-0.864 1.502-2.205 1.502-4.074 0-2.492-0.905-4.265-2.782-5.367-1.126-0.623-2.543-0.959-4.233-1.15-0.358-0.048-1.758-0.048-4.403-0.048h-5.922v22.381h5.598l0.051-7.909zM1919.42 676.874c-0.717 0.575-1.724 0.766-3.004 0.766h-2.133v-6.518h1.28c1.399 0 2.458 0.143 3.26 0.48 1.143 0.527 1.741 1.294 1.741 2.54 0 1.295-0.375 2.109-1.143 2.732zM1930.615 664.078c-3.738-3.93-8.243-5.847-13.551-5.847-5.018 0-9.421 1.821-13.158 5.513-4.045 3.881-6.059 8.771-6.059 14.713 0 5.654 1.826 10.4 5.598 14.329 3.652 3.93 8.192 5.847 13.568 5.847 5.222 0 9.728-1.869 13.414-5.654 3.874-4.026 5.734-8.818 5.734-14.522 0.051-5.656-1.775-10.4-5.547-14.379v0zM1928.294 666.619c3.055 3.306 4.591 7.236 4.591 11.79 0 4.601-1.536 8.53-4.591 11.885-3.089 3.26-6.741 4.936-11.196 4.936-4.403 0-8.055-1.676-11.145-4.888-3.191-3.258-4.693-7.236-4.693-11.933 0-4.506 1.502-8.532 4.608-11.79 3.089-3.308 6.827-4.985 11.23-4.985 4.369 0 8.055 1.678 11.196 4.985v0zM1609.254 537.887c0-38.39 9.054-66.186 31.986-66.186 23.023 0 31.986 27.796 31.986 66.186s-8.963 66.186-31.986 66.186c-22.932 0-31.986-27.796-31.986-66.186zM1719.313 538.078c0-59.332-26.66-107.307-78.256-107.307-50.413 0-78.259 47.974-78.259 107.307 0 59.191 23.979 107.308 78.259 107.308 53.234 0 78.256-48.118 78.256-107.308zM1973.026 471.7c15.599 0 24.661 12.701 29.030 32.686h-57.839c4.284-19.985 13.431-32.686 28.809-32.686zM2007.091 558.974c-2.901 27.032-12.271 45.099-30.788 45.099-22.443 0-31.625-26.79-32-63.933h110.063c0.597-19.603-3.038-35.753-3.038-35.753h-0.102c-8.414-42.798-33.707-73.663-75.11-73.663-50.415 0-78.268 47.974-78.268 107.307 0 59.191 24.030 107.308 78.268 107.308 46.814 0 71.799-37.144 77.124-86.412l-46.148 0.048z"></path>
<path fill="#000" d="M1808.845 604.218c-22.989 0-32.222-27.892-32.222-66.473s9.199-66.57 32.222-66.57c23.159 0 32.119 27.989 32.119 66.57s-8.96 66.473-32.119 66.473zM1886.925 652.145c-0.137-15.623 0-221.851 0-221.851h-50.551v11.742c-6.144-6.806-18.842-11.071-27.716-11.262-50.688-1.295-78.626 47.495-78.626 107.116 0 59.573 24.166 107.308 78.711 107.308 10.65 0 20.019-4.697 28.399-8.148 2.321 41.935 3.686 180.299-83.575 183.175-94.554 2.253-84.272-141.959-85.091-146.080-6.415 0-51.459 0.143-51.459 0.143 0 0.288-6.915 181.978 130.953 181.978 149.367 0.048 139.127-188.448 138.957-204.121zM1539.393 205.851c-66.383 0-104.011 39.253-122.438 85.407l-0.137-0.048c-0.273 0.862-0.592 1.676-0.865 2.587-0.135 0.191-0.227 0.432-0.271 0.623-8.827 24.491-9.875 45.051-9.875 47.592 3.050 115.454-49.502 122.644-49.502 122.644-0.865-9.873 0-134.627 0-134.627h-50.505v315.167h50.686v-131.367c0-5.32 44.771-0.288 47.821 59.764 0.273 5.367 0 71.603 0 71.603h53.506c-1.137-8.627 10.875-149.245-56.054-150.299-10.648-0.191 55.144-16.007 53.142-119.721-0.5-23.148 2.002-44.044 6.825-62.112 11.057-37.096 31.031-70.453 72.071-71.028 92.501-1.246 81.99 157.488 83.173 159.98 6.461 0 51.505-0.048 51.505-0.048 0-0.239 9.1-196.116-129.082-196.116z"></path>
<path fill="#000" d="M1665.304 993.215c-214.883-18.372-394.175-134.438-473.039-306.062-43.781-95.391-50.632-203.568-19.113-303.22 22.122-69.914 53.731-122.728 107.602-179.659 41.701-44.045 80.623-74.323 130.79-101.661 62.711-34.197 120.747-54.677 194.611-68.591 43.829-8.28 167.071-8.28 211.546-0.049 134.912 24.987 240.623 80.251 325.734 170.154 41.233 43.554 64.051 76.331 86.682 124.443 58.129 123.561 53.777 265.74-11.81 387.096-68.25 126.305-200.721 223.362-356.864 261.478-50.961 12.346-146.995 20.234-196.14 16.070zM1823.915 956.029c123.29-23.32 225.109-77.409 303.821-161.434 157.218-167.851 156.535-404.929-1.758-572.192-39.936-42.233-79.087-71.678-133.786-100.584-188.877-99.898-425.281-90.638-601.612 23.566-176.285 114.203-251.307 310.325-189.012 493.902 56.417 166.185 221.872 291.314 424.813 321.2 47.901 7.055 148.603 4.803 197.533-4.458z"></path>
</svg>
