<svg width="94" height="35" viewBox="0 0 94 35" fill="none" xmlns="http://www.w3.org/2000/svg"><path fill-rule="evenodd" clip-rule="evenodd" d="M0 32.865l6.602-18.391h11.79l-1.416 3.3H8.96L7.074 22.02h8.016l-1.415 3.3H6.13l-2.829 7.546H0zM23.26 14.474L11 32.394v.471h3.773l2.357-3.773h6.13v3.773h3.773V14.474h-3.772zm0 11.317h-4.715l4.716-6.13v6.13zM29.352 26.734s-1.462 6.602 5.66 6.602c7.12 0 7.733-6.366 7.544-8.016-.188-1.65-5.564-4.056-6.13-4.716-.566-.66-1.038-2.735 1.886-3.301 2.924-.566 3.348 2.264 3.301 2.83h3.301s.707-6.084-5.187-5.66c-5.895.425-7.026 3.537-7.074 5.66-.047 2.122.755 3.536 2.83 4.715 2.075 1.179 4.433 1.886 2.83 4.244-1.604 2.358-6.178 1.226-5.66-1.886v-.472h-3.3zM45.856 17.303l.944-2.83H57.22s.714-5.087.95-5.558C58.406 8.443 58.595 7.5 61 7.5h13.553L73 14s-9.453-.056-9.5 1.5c-.047 1.556 1.172 1.143 1.36 1.284.19.142 3.726-.518 4.103 2.405 0 0-1.98 5.235.472 8.96 0 0 .188 4.197-6.602 6.13 0 0-9.479.99-9.432-7.073 0 0 4.999-1.556 5.66-.472.66 1.085.518 3.207 3.3 2.83 2.783-.377 3.113-4.103 3.301-6.13.189-2.028-3.725-2.877-5.659-.944h-4.715s.283-1.65.943-4.244v-.471h-1.886l-5.66 15.09h-3.3l5.187-15.09h-4.716v-.472z" fill="#888"/><path fill-rule="evenodd" clip-rule="evenodd" d="M91.596 10.23a25.35 25.35 0 00.944-5.66c.094-2.734-2.547-6.601-2.83-3.3-.283 3.3-2.405 4.668-3.3 5.659-.897.99-1.085 1.65-2.359-1.415-1.273-3.065-2.358-.472-2.358-.472-.471 3.396-1.886 3.301-1.886 3.301-7.875 4.716-9.903 8.96-9.903 8.96-2.452 10.186 1.415 12.26 1.415 12.26 3.82 5 12.685 6.414 17.92.944 5.234-5.47 2.499-11.648 1.886-13.676-.613-2.027 2.405-5.375 2.83-6.13.424-.754-2.359-.472-2.359-.472zM80.75 29.563c-3.63 0-6.602-2.971-6.602-6.602 0-3.631 2.971-6.602 6.602-6.602 3.631 0 6.602 2.97 6.602 6.602 0 3.63-2.97 6.602-6.602 6.602z" fill="#888"/><path d="M8.074 10.023c0-.2-.054-.353-.161-.457-.105-.105-.258-.157-.457-.157a.789.789 0 00-.43.116 1.02 1.02 0 00-.304.305c-.08.126-.14.268-.18.425a1.892 1.892 0 00-.062.478c0 .267.065.477.196.63.13.152.316.228.557.228a.62.62 0 00.31-.072.74.74 0 00.208-.18.841.841 0 00.127-.221c.03-.075.053-.137.065-.185h.48c-.038.182-.096.34-.172.473a1.193 1.193 0 01-.277.333 1.055 1.055 0 01-.353.197 1.263 1.263 0 01-.404.064c-.197 0-.37-.032-.522-.096a1.074 1.074 0 01-.614-.662A1.473 1.473 0 016 10.749c0-.3.042-.56.127-.778.087-.222.2-.404.338-.546.14-.144.298-.251.472-.32a1.448 1.448 0 01.98-.037c.135.046.25.111.345.197a.828.828 0 01.223.32c.051.129.074.275.069.438h-.48zM9.198 9.068h.48l-.227 1.14h1.283l.227-1.14h.48l-.569 2.864h-.48l.258-1.292H9.367l-.257 1.292h-.48l.568-2.864zM12.838 9.068h.507l.476 2.864h-.488l-.111-.758H12.13l-.422.758h-.515l1.644-2.864zm.165.506h-.008l-.66 1.219h.837l-.17-1.22zM14.856 10.372h.703c.208 0 .365-.044.473-.133.11-.09.165-.22.165-.389a.371.371 0 00-.043-.188.272.272 0 00-.107-.117.424.424 0 00-.158-.052 1.03 1.03 0 00-.184-.016h-.672l-.177.895zm-.23-1.304h1.187c.058 0 .136.006.234.016a.8.8 0 01.284.088.643.643 0 01.242.221c.07.096.104.231.104.405 0 .227-.055.405-.165.534a.782.782 0 01-.457.244v.008a.387.387 0 01.23.205c.04.088.061.192.061.313 0 .098-.007.197-.023.296a1.645 1.645 0 00-.011.418c.008.04.022.078.042.116h-.503a.607.607 0 01-.027-.109 2.085 2.085 0 01.02-.425c.015-.104.022-.208.022-.312a.341.341 0 00-.046-.193.23.23 0 00-.115-.096.457.457 0 00-.165-.036 2.15 2.15 0 00-.188-.008h-.573l-.234 1.179h-.488l.569-2.864zM17.341 9.068h.48l-.483 2.43h1.382l-.084.434h-1.863l.569-2.864zM19.562 10.733c0 .267.066.477.196.63.13.152.316.228.557.228a.737.737 0 00.415-.116c.12-.078.22-.18.3-.305.081-.126.142-.268.18-.425a1.89 1.89 0 00.061-.478c0-.267-.062-.477-.188-.63-.123-.152-.304-.228-.545-.228a.789.789 0 00-.43.116 1.02 1.02 0 00-.304.305c-.08.126-.14.268-.18.425a1.89 1.89 0 00-.062.478zm-.48.016c0-.3.042-.56.127-.778.087-.222.2-.404.338-.546.14-.144.298-.251.472-.32.177-.07.355-.105.534-.105.18 0 .343.03.492.092a1.123 1.123 0 01.618.654c.059.152.088.32.088.505 0 .303-.04.563-.123.782-.081.22-.19.402-.326.546-.136.142-.29.247-.465.317-.174.07-.353.104-.537.104-.198 0-.372-.032-.523-.096a1.075 1.075 0 01-.614-.662 1.474 1.474 0 01-.08-.493zM22.18 9.068h2.26l-.09.433h-.871l-.484 2.43h-.48l.484-2.43h-.903l.085-.433zM24.457 9.068h2.259l-.089.433h-.871l-.484 2.43h-.48l.483-2.43h-.902l.084-.433zM27.003 9.068H29l-.084.433H27.39l-.15.75h1.413l-.08.41h-1.418l-.165.838h1.537l-.085.433h-2.009l.569-2.864zM30.968 10.229l.141-.67h.67c.102 0 .183.02.242.063.062.04.093.117.093.23 0 .125-.043.22-.13.284a.488.488 0 01-.298.093h-.718zm-.367-1.16L30 11.935h1.533c.145 0 .284-.02.415-.06.132-.04.25-.1.351-.177a.869.869 0 00.335-.703.608.608 0 00-.113-.366.535.535 0 00-.315-.216v-.008a.604.604 0 00.395-.225.654.654 0 00.11-.205.792.792 0 00.036-.237.743.743 0 00-.065-.333.474.474 0 00-.185-.205.782.782 0 00-.294-.105 2.46 2.46 0 00-.392-.028h-1.21zm.109 2.377l.17-.787h.62c.057 0 .115.002.174.008.06.005.113.02.161.044a.275.275 0 01.166.273c0 .152-.047.268-.141.345a.529.529 0 01-.355.117h-.795zM35.598 10.735l.35-1.667h-.633l-.359 1.7a3.018 3.018 0 01-.08.292.638.638 0 01-.117.225.502.502 0 01-.194.14.864.864 0 01-.315.049c-.11 0-.2-.014-.27-.04a.504.504 0 01-.165-.097.342.342 0 01-.085-.128.43.43 0 01-.016-.201l.016-.1c.008-.035.015-.067.02-.097l.02-.084.351-1.659h-.633l-.35 1.659c-.014.07-.028.14-.041.213-.014.07-.02.14-.02.213a.78.78 0 00.096.401.828.828 0 00.258.261c.108.065.23.111.364.14.137.03.275.045.415.045.223 0 .413-.027.569-.08a1.09 1.09 0 00.395-.241c.108-.107.194-.24.258-.398.068-.158.123-.34.166-.546zM36.535 10.984h-.602c0 .35.099.608.295.771.199.163.5.245.904.245.137 0 .275-.017.415-.052.14-.032.265-.086.375-.16a.87.87 0 00.274-.294.833.833 0 00.11-.438.831.831 0 00-.057-.325.62.62 0 00-.162-.225.783.783 0 00-.242-.149 2.232 2.232 0 00-.5-.144 1.776 1.776 0 01-.23-.072.78.78 0 01-.19-.117.234.234 0 01-.076-.177c0-.067.015-.123.045-.168a.325.325 0 01.117-.109.468.468 0 01.16-.06.857.857 0 01.388.004c.065.013.12.038.166.072.048.035.084.08.108.137.027.053.04.12.037.2h.6a.915.915 0 00-.088-.421.775.775 0 00-.234-.29.9.9 0 00-.343-.16 1.682 1.682 0 00-.83 0 1.105 1.105 0 00-.364.157.823.823 0 00-.262.273.785.785 0 00-.1.41c0 .123.02.227.06.313a.704.704 0 00.165.217.95.95 0 00.234.144c.086.038.175.07.266.097l.262.076c.09.024.167.052.234.084.07.032.127.071.17.117a.227.227 0 01.064.168.319.319 0 01-.052.185.384.384 0 01-.13.125.593.593 0 01-.173.072.802.802 0 01-.193.024c-.092 0-.176-.008-.255-.024a.577.577 0 01-.201-.088.382.382 0 01-.13-.161.578.578 0 01-.035-.257zM39.122 9.068l-.605 2.868h.633l.61-2.868h-.638zM40.316 9.068l-.605 2.868h.588l.412-2.012h.008l.79 2.012h.634l.609-2.868h-.58l-.412 2.04h-.008l-.783-2.04h-.653zM43.301 9.068l-.6 2.868h2.218l.113-.53h-1.59l.15-.703h1.448l.105-.49h-1.448l.129-.615h1.565l.109-.53h-2.199zM46.024 10.984h-.6c0 .35.098.608.294.771.199.163.5.245.903.245.137 0 .276-.017.416-.052.14-.032.265-.086.375-.16a.87.87 0 00.274-.294.833.833 0 00.11-.438.831.831 0 00-.057-.325.62.62 0 00-.162-.225.783.783 0 00-.242-.149 2.237 2.237 0 00-.5-.144 1.776 1.776 0 01-.23-.072.783.783 0 01-.19-.117.234.234 0 01-.076-.177.303.303 0 01.161-.277.468.468 0 01.162-.06.857.857 0 01.387.004c.065.013.12.038.165.072a.32.32 0 01.11.137c.026.053.038.12.036.2h.6a.915.915 0 00-.088-.421.775.775 0 00-.234-.29.9.9 0 00-.343-.16 1.683 1.683 0 00-.831 0 1.106 1.106 0 00-.363.157.823.823 0 00-.262.273.785.785 0 00-.101.41c0 .123.02.227.06.313a.705.705 0 00.166.217.95.95 0 00.234.144c.086.038.175.07.266.097l.262.076c.089.024.167.052.234.084.07.032.127.071.17.117a.227.227 0 01.064.168.318.318 0 01-.052.185.384.384 0 01-.13.125.594.594 0 01-.173.072.802.802 0 01-.193.024c-.092 0-.177-.008-.255-.024a.577.577 0 01-.201-.088.382.382 0 01-.13-.161.58.58 0 01-.036-.257zM48.64 10.984h-.601c0 .35.098.608.294.771.2.163.5.245.904.245.137 0 .276-.017.416-.052.14-.032.264-.086.375-.16a.87.87 0 00.274-.294.833.833 0 00.109-.438.831.831 0 00-.056-.325.62.62 0 00-.162-.225.783.783 0 00-.242-.149 2.232 2.232 0 00-.5-.144 1.775 1.775 0 01-.23-.072.779.779 0 01-.19-.117.234.234 0 01-.076-.177c0-.067.014-.123.044-.168a.325.325 0 01.117-.109.468.468 0 01.161-.06.857.857 0 01.388.004c.064.013.12.038.165.072.049.035.085.08.109.137.027.053.039.12.036.2h.601a.914.914 0 00-.088-.421.775.775 0 00-.234-.29.9.9 0 00-.343-.16 1.682 1.682 0 00-.83 0 1.105 1.105 0 00-.364.157.823.823 0 00-.262.273.785.785 0 00-.101.41c0 .123.02.227.06.313a.704.704 0 00.166.217.95.95 0 00.233.144c.087.038.175.07.267.097l.262.076c.089.024.167.052.234.084.07.032.126.071.17.117a.227.227 0 01.064.168.319.319 0 01-.053.185.384.384 0 01-.129.125.593.593 0 01-.173.072.802.802 0 01-.194.024c-.091 0-.176-.008-.254-.024a.576.576 0 01-.201-.088.382.382 0 01-.13-.161.578.578 0 01-.036-.257zM53.609 11.12l.427-2.052H53.4l-.4 1.916a16.5 16.5 0 01-.048.189.492.492 0 01-.072.156.328.328 0 01-.121.105.4.4 0 01-.194.04.37.37 0 01-.218-.068c-.062-.046-.092-.113-.092-.201 0-.046.005-.098.016-.157l.04-.18h-.573a7.791 7.791 0 00-.036.22c-.01.07-.016.144-.016.221a.66.66 0 00.072.322c.049.088.113.16.194.216.08.054.173.093.278.117.105.024.214.036.327.036.312 0 .549-.075.71-.225.164-.152.278-.37.343-.655zM54.148 10.735c0 .41.11.723.33.94.224.217.54.325.949.325.253 0 .476-.047.67-.14.196-.097.36-.227.492-.39a1.72 1.72 0 00.306-.566c.07-.215.105-.44.105-.675 0-.2-.03-.378-.093-.53a1.04 1.04 0 00-.254-.386 1.038 1.038 0 00-.403-.233A1.645 1.645 0 0055.72 9c-.242 0-.461.047-.657.14-.194.094-.36.221-.496.382a1.7 1.7 0 00-.311.55 2 2 0 00-.109.663zm.633 0c0-.137.02-.276.057-.418.038-.144.094-.274.17-.39a.932.932 0 01.294-.284.788.788 0 01.423-.113c.119 0 .218.02.299.06.08.04.146.094.197.161a.62.62 0 01.11.237c.024.088.036.183.036.285 0 .137-.02.276-.06.418a1.309 1.309 0 01-.174.39c-.078.114-.175.21-.29.285a.753.753 0 01-.408.108.597.597 0 01-.5-.22.784.784 0 01-.117-.238 1.06 1.06 0 01-.037-.281z" fill="#888"/><path d="M61.406 10.706L61.74 9h-.604l-.343 1.739c-.023.11-.048.21-.076.3a.673.673 0 01-.112.23.483.483 0 01-.185.143.772.772 0 01-.3.05.686.686 0 01-.258-.041.478.478 0 01-.158-.099.356.356 0 01-.1-.255.959.959 0 01.02-.185l.019-.098a3.93 3.93 0 00.019-.087L59.997 9h-.604l-.335 1.697-.039.218c-.013.071-.019.144-.019.218 0 .162.03.299.092.41a.82.82 0 00.247.268c.102.066.218.114.346.144.13.03.263.045.396.045.213 0 .394-.027.543-.082a1.03 1.03 0 00.377-.247c.103-.11.185-.245.247-.406a3.16 3.16 0 00.158-.56zM62.615 10.328l.161-.826h.574c.059 0 .115.004.17.012a.386.386 0 01.142.05.247.247 0 01.096.11c.026.047.038.11.038.19a.41.41 0 01-.192.357.688.688 0 01-.196.082 1.088 1.088 0 01-.235.025h-.558zM62.268 9l-.573 2.934h.6l.227-1.146h.57c.06 0 .113.005.162.016a.257.257 0 01.204.165.41.41 0 01.03.172c0 .099-.005.199-.015.3-.01.099-.015.197-.015.296 0 .033.002.066.007.099l.02.098h.588a.633.633 0 01-.03-.152 2.242 2.242 0 01-.008-.189c0-.09.003-.18.008-.271.007-.093.011-.173.011-.238a.823.823 0 00-.057-.317.35.35 0 00-.227-.201v-.008a.677.677 0 00.253-.09.78.78 0 00.2-.173.803.803 0 00.132-.243.873.873 0 00.046-.283 1 1 0 00-.058-.362.579.579 0 00-.166-.238.603.603 0 00-.261-.132c-.1-.027-.212-.04-.335-.037h-1.313zM65.05 9l-.577 2.934h.561l.393-2.058h.008l.754 2.058h.604L67.375 9h-.555l-.392 2.088h-.008L65.673 9h-.623zM68.665 9l-1.62 2.934h.634l.347-.653h1.028l.088.653h.6L69.284 9h-.62zm-.4 1.8l.592-1.167h.008L69 10.8h-.736zM70.534 9l-.574 2.934h1.932l.108-.542h-1.328L71.142 9h-.608z" fill="#fff"/></svg>