<!-- Generated by IcoMoon.io -->
<svg version="1.1" xmlns="http://www.w3.org/2000/svg" width="3413" height="1024" viewBox="0 0 3413 1024">
<title></title>
<g id="icomoon-ignore">
</g>
<path fill="#000" d="M1529.999 662.895c-9.557-21.33-18.807-42.66-28.981-65.63-11.407 12.798-22.508 25.597-33.606 38.065-40.081 44.3-81.702 86.301-130.415 120.1-10.482 7.219-20.965 15.095-33.606 18.705-3.7 1.312-4.316-0.657-3.7-3.939 44.704-43.313 77.694-96.473 110.375-149.304 18.19-29.532 34.222-60.378 52.413-89.911 5.857-9.516 4.932-16.736 0.616-26.58-23.74-56.113-46.863-112.555-71.219-171.291 31.447 0 61.353 0 91.259 0 7.091 0 7.707 6.562 9.557 10.829 12.025 28.547 23.74 57.097 36.381 86.958 50.255-66.613 98.659-133.555 165.255-181.792 5.241-3.937 11.098-6.562 16.655-10.172 3.379 6.892-2.475 8.204-4.632 10.829-52.412 65.628-86.018 143.070-124.249 217.887-16.649 32.486-17.265 59.394-0.309 91.225 18.191 34.127 28.365 72.52 46.863 106.974l-0.307-0.328c-4.009 6.562-9.866 2.297-15.107 2.953-22.199-2.625-44.397-0.328-66.596-1.312-5.548 0-12.023 1.969-16.649-4.265z"></path>
<path fill="#000" d="M1078.018 476.508c0 2.297 0.616 4.267 0 6.564-2.159 13.781-0.309 32.814-8.016 40.033-8.016 7.219-25.283 2.297-38.54 2.625-16.031 0.328-31.756 0.657-47.788-0.328-8.632-0.328-11.715 3.61-12.64 11.814-5.241 40.033-10.791 80.394-15.416 120.428-0.925 8.861-3.391 12.471-12.023 11.814-13.873-0.657-27.749-1.312-41.622 0-14.182 1.312-15.724-4.922-13.873-17.391 6.473-44.3 12.023-88.928 18.19-133.228 7.707-57.752 16.032-115.505 23.433-173.587 1.232-9.844 4.316-12.141 13.257-12.141 52.721 0.328 105.441 0.655 158.471 0 9.866 0 13.566 2.953 10.791 12.797-2.775 9.846-0.925 20.345-5.55 29.862-1.85 7.876-5.55 11.814-14.49 11.486-28.058-0.985-56.422-0.329-84.478-0.329-4.932 0-10.173-1.64-15.107 1.642-4.932 26.907-11.098 53.815-9.248 81.707 26.515 3.282 53.337 0.657 80.16 1.642 4.932 0 11.098-2.297 14.491 4.593z"></path>
<path fill="#000" d="M2217.54 468.304c17.886-11.484 34.833-21.985 55.501-25.595 57.344-9.516 74.923 32.159 71.526 75.145-4.011 45.612-11.418 90.895-16.964 136.508-1.229 9.516-4.011 13.126-13.261 12.798-13.858-0.657-27.733-0.657-41.609 0-8.329 0.328-9.865-1.969-8.329-11.158 6.161-40.033 11.708-80.067 16.333-120.1 1.86-15.423 3.703-33.471-11.708-42.658-14.797-8.859-27.136 2.953-38.844 11.484-13.875 10.173-22.511 22.315-24.047 42.33-2.782 37.081-9.557 73.832-14.182 110.585-0.939 6.89-2.475 9.516-9.25 9.516-15.428-0.329-30.839-0.329-46.251 0-6.161 0-8.329-0.657-7.407-8.861 9.25-66.941 17.579-133.881 25.907-200.823 1.229-9.844 4.932-13.781 14.797-12.797 11.093 0.983 22.511 1.312 33.911 0 15.104-1.969 18.193 3.937 12.954 18.048 0 0.983 0.614 2.625 0.922 5.577z"></path>
<path fill="#000" d="M2349.175 496.196c2.167-15.094 4.318-28.877 6.178-42.658 0.922-6.892 4.318-8.532 10.172-8.859 12.015-0.657 27.443 5.907 35.14-2.954 6.793-7.547 5.239-23.298 7.1-35.439 1.229-7.876 3.703-12.141 12.629-11.814 15.735 0.985 31.761 0.657 47.497 0 9.557-0.328 11.093 3.282 8.926 12.141-2.765 12.141-9.25 27.237-4.625 35.768 4.318 7.547 20.975 2.297 32.068 2.297 9.557 0 10.786 2.625 8.329 12.469-3.089 12.469-0.307 29.204-8.329 36.751-8.329 7.876-23.433 2.297-35.447 2.297-8.943-0.328-12.032 2.625-13.261 12.471-3.396 26.58-10.786 52.83-11.725 80.067-0.922 30.189 11.725 39.049 38.554 27.892 5.547-2.297 11.093-4.922 17.562-7.876 0 10.501 0 19.69 0 28.877 0 35.111-4.318 40.361-37.615 44.955-59.187 8.532-96.495-34.127-84.787-96.473 4.932-25.267 9.25-50.862 13.875-76.459 1.553-8.859 1.246-14.438-10.172-13.124-10.479 0.655-21.265-0.329-32.068-0.329z"></path>
<path fill="#000" d="M1088.2 662.566c5.859-46.595 11.716-93.193 17.882-140.117 8.016-60.049 16.34-119.772 24.049-179.821 0.925-7.876 3.698-9.844 10.482-9.516 12.64 0.328 25.59 0.985 38.229 0 12.025-1.312 14.8 3.282 13.257 15.423-5.548 39.376-10.482 79.082-15.724 118.787-8.016 60.049-16.032 120.1-24.047 179.823-0.309 3.28-1.543 6.234-2.468 9.187-2.157 7.876-5.241 12.469-14.49 11.486-11.716-1.312-23.433-0.329-35.147-0.329-4.625-0.328-9.559 0.985-12.025-4.922z"></path>
<path fill="#000" d="M1953.621 475.523c10.786-7.547 17.254-19.033 28.058-25.924 20.651-13.454 44.083-8.532 57.344 12.798 1.843 3.282 2.765 5.25 0.614 8.532-1.536 2.297-2.475 4.594-3.703 7.219-7.39 15.751-15.104 31.502-22.511 47.58-1.843-1.312-2.765-1.64-3.379-2.625-8.943-10.172-16.35-24.61-32.375-19.033-18.5 6.564-31.147 20.673-34.219 41.675-4.932 34.127-9.557 68.582-12.954 103.037-1.536 14.111-6.161 19.688-19.729 18.048-12.032-1.312-24.661-0.655-36.693 0-7.407 0.328-8.636-2.625-7.714-9.516 7.714-55.456 15.121-111.241 22.511-166.697 1.536-12.141 3.703-24.61 4.625-36.751 0.614-6.892 3.089-9.516 9.557-9.189 13.875 0.329 27.75 0.657 41.318 0 9.865-0.655 14.182 1.642 11.093 13.126-1.536 5.25-1.229 11.156-1.843 17.72z"></path>
<path fill="#000" d="M2058.445 666.834c-28.979 0-29.901 0-26.197-30.519 7.697-61.361 16.333-122.725 24.354-184.416 0.922-6.564 4.011-7.547 9.25-7.547 11.401 0.328 22.511 0 33.911 0 20.958 0 20.958 0 18.193 21.656-8.021 61.363-16.657 123.054-24.354 184.417-1.553 12.141-5.239 19.033-18.193 16.408-5.547-0.657-11.418 0-16.964 0z"></path>
<path fill="#000" d="M2096.367 417.77c-18.193 0-33.297-15.751-33.297-34.454 0.307-18.705 15.718-34.456 33.911-34.127 17.886 0.328 32.068 15.421 32.068 33.799 0.307 19.688-14.182 34.782-32.683 34.782z"></path>
<path fill="#000" d="M1385.407 564.779c-43.781 0-87.561 0-131.34 0 0-0.985 0-1.969 0-2.954 44.396 0 88.484 0 132.881 0-0.616 0.985-1.234 1.969-1.541 2.954z"></path>
<path fill="#000" d="M992.3 388.567c4.316-5.577 10.482-3.28 15.724-3.28 26.515-0.329 53.337-0.329 79.852 0 8.325 0 14.8-1.642 18.499-9.846 1.543 10.501-2.157 13.455-12.332 13.455-33.913-0.657-67.828-0.329-101.741-0.329z"></path>
<path fill="#000" d="M1078.018 476.51c-10.482-6.234-21.89-2.297-32.988-3.282-20.657-1.968-41.315 3.939-61.664-2.953 28.983 0 57.964-0.328 86.636-0.328 3.7 0 10.175-2.297 8.016 6.562z"></path>
<path fill="#000" d="M1529.999 662.893c20.349 6.564 41.006 1.312 61.662 3.282 7.4 0.657 15.107-2.625 21.891 2.625-24.665 0.328-49.022 0.328-73.687 0.657-4.625-0.329-9.557 0.655-9.866-6.564z"></path>
<path fill="#000" d="M1088.196 662.567c17.265 6.562 34.838 1.968 52.413 2.953 6.166 0.328 4.932-7.547 9.248-9.516 1.234 8.861-0.616 14.111-10.791 13.454-14.182-0.983-28.365 0-42.547-0.328-4.007 0-10.482 2.297-8.323-6.562z"></path>
<path fill="#000" d="M1299.697 769.869c1.232 1.312 2.466 2.625 3.7 3.937-2.775 3.61-7.709 5.907-9.559 2.625-2.157-3.28 3.393-4.593 5.859-6.562z"></path>
<path fill="#000" d="M1628.966 665.854v-0.336h-0.316c0 0 0.316 0.336 0.316 0.336z"></path>
<path fill="#000" d="M1878.374 429.585c-1.843-42.988-30.208-75.474-75.844-83.676-39.151-7.219-78.609-0.985-118.076-3.282-11.716-0.657-14.799 4.594-15.724 15.423-2.775 26.907-6.166 53.487-9.557 80.067-10.175 75.8-20.349 151.601-30.524 227.731 19.732 2.625 39.772 0.328 59.505 1.312 7.091 0.328 8.016-3.282 8.632-9.516 3.7-31.829 8.323-63.331 12.030-94.833 1.229-10.173 3.994-14.438 15.104-14.438 28.365 0.328 57.037 2.625 85.402-5.907 49.015-15.094 71.526-51.19 69.052-112.881zM1760.29 496.198c-5.547 0.328-11.093 0-16.947 0-25.583 0.328-24.969 0.328-20.651-26.252 3.379-19.688 6.161-39.376 7.39-59.066 0.614-13.781 5.854-18.048 17.886-16.406 4.011 0.655 8.021 0.328 12.322 0.655 30.839 1.969 50.261 21.33 50.261 49.222 0 28.549-20.343 49.55-50.261 51.847z"></path>
<path fill="#000" d="M1356.426 459.773c-45.013-34.127-115.925-18.048-150.147 34.454-34.84 52.832-25.281 129.946 20.965 161.12 42.856 28.877 87.869 19.688 132.574 3.937 2.775-0.985 4.007-2.625 4.625-5.579 3.082-16.079 6.473-32.485 10.173-50.533-25.281 9.187-47.479 19.36-72.144 21.658-28.365 2.625-51.18-15.095-54.571-43.972-1.234-9.844 0.925-14.766 12.023-14.438 21.583 0.985 43.163 0.657 64.437 0 20.349-0.655 40.697 2.625 60.737-1.64-4.625-2.954-9.866-1.642-15.107-1.642-9.866 0-19.731 0-29.597 0 15.415 0 30.831-0.328 45.938-1.312 10.173-39.704-1.85-80.722-29.906-102.052zM1256.842 522.121c4.316-23.627 32.372-40.69 53.646-32.486 5.857 2.297 10.791 6.234 14.182 11.812 4.007 6.892 7.398 15.423 4.316 22.97-3.391 8.533-11.716 3.282-17.882 3.939-6.166 0.655-12.332 0.328-18.499 0.328-9.557 0-19.424 0-28.981 0-4.316 0-8.016 0.328-6.782-6.562zM1257.149 563.137c2.159 0 4.316 0 6.475 0-2.775 0.329-5.857 2.297-6.475 0zM1272.257 562.809c14.182 0 28.674 0 42.856 0-14.182 0.329-28.674 0.329-42.856 0z"></path>
</svg>
