<svg width="142" height="36" viewBox="0 0 142 36" fill="none" xmlns="http://www.w3.org/2000/svg"><path d="M23.652 11.26h1.136l3.24-3.24.159-1.376c-6.03-5.322-15.232-4.747-20.554 1.282a14.558 14.558 0 00-3.137 5.824c.36-.148.76-.172 1.137-.067l6.479-1.07s.329-.545.501-.512a8.082 8.082 0 0111.061-.84h-.022z" fill="#A5A5A5"/><path d="M32.646 13.75a14.584 14.584 0 00-4.399-7.092l-4.546 4.546a8.084 8.084 0 012.967 6.412v.808a4.048 4.048 0 010 8.094h-8.095l-.807.82v4.854l.807.808h8.095c5.812.044 10.562-4.631 10.607-10.444a10.53 10.53 0 00-4.629-8.806z" fill="#ABABAB"/><path d="M10.463 32.948h8.095v-6.48h-8.095a4.03 4.03 0 01-1.67-.364l-1.137.354-3.262 3.24-.285 1.136a10.447 10.447 0 006.354 2.114z" fill="#B3B3B3"/><path d="M10.464 11.931C4.65 11.965-.033 16.705 0 22.521a10.52 10.52 0 004.11 8.28l4.694-4.694a4.048 4.048 0 115.354-5.354l4.694-4.694a10.502 10.502 0 00-8.388-4.128z" fill="#D7D7D7"/><path d="M57.291 12.416a6.11 6.11 0 01-4.427-1.818 5.897 5.897 0 01-1.858-4.373 5.908 5.908 0 011.858-4.374 6.11 6.11 0 014.428-1.85 5.93 5.93 0 014.246 1.71l-1.194 1.215a4.304 4.304 0 00-3.053-1.208 4.257 4.257 0 00-3.153 1.341 4.385 4.385 0 00-1.295 3.186 4.376 4.376 0 001.295 3.145 4.502 4.502 0 006.28.074c.527-.575.85-1.31.92-2.085H57.31V5.663h5.697c.055.345.078.695.067 1.046a5.369 5.369 0 01-1.47 3.958 5.715 5.715 0 01-4.313 1.75zm13.244-1.14a4.107 4.107 0 01-5.683 0 3.822 3.822 0 01-1.16-2.85 3.828 3.828 0 011.16-2.85 4.115 4.115 0 015.683 0 3.827 3.827 0 011.161 2.85 3.824 3.824 0 01-1.167 2.85h.006zm-4.428-1.12c.82.877 2.195.922 3.072.1a2.39 2.39 0 00.771-1.831 2.395 2.395 0 00-.67-1.737 2.209 2.209 0 00-3.188 0 2.395 2.395 0 00-.67 1.737 2.389 2.389 0 00.677 1.731h.008zm13.163 1.12a4.107 4.107 0 01-5.683 0 3.822 3.822 0 01-1.16-2.85 3.828 3.828 0 011.16-2.85 4.107 4.107 0 015.683 0 3.827 3.827 0 011.16 2.85 3.817 3.817 0 01-1.16 2.85zm-4.427-1.12c.82.877 2.195.922 3.072.1.034-.033.069-.066.1-.1a2.39 2.39 0 00.671-1.73 2.395 2.395 0 00-.67-1.738 2.207 2.207 0 00-3.187 0 2.395 2.395 0 00-.67 1.737 2.389 2.389 0 00.677 1.731h.007zm10.17 5.842a3.519 3.519 0 01-2.235-.712 4.116 4.116 0 01-1.302-1.65l1.53-.638c.166.391.426.734.757 1 .354.285.8.435 1.255.422a2.015 2.015 0 001.563-.603 2.452 2.452 0 00.557-1.744v-.577h-.06a2.56 2.56 0 01-2.1.906 3.644 3.644 0 01-2.683-1.167 3.861 3.861 0 01-1.147-2.81 3.9 3.9 0 011.147-2.831 3.636 3.636 0 012.683-1.174 2.89 2.89 0 011.235.275c.334.145.63.363.873.637h.06v-.637h1.664v7.143a4.165 4.165 0 01-1.067 3.12 3.757 3.757 0 01-2.73 1.04zm.121-5.151a1.953 1.953 0 001.516-.671 2.48 2.48 0 00.61-1.717 2.532 2.532 0 00-.61-1.751 1.948 1.948 0 00-1.516-.67 2.076 2.076 0 00-1.57.67 2.448 2.448 0 00-.67 1.737 2.403 2.403 0 00.67 1.718c.4.442.972.691 1.57.684zM91.769.45v11.724h-1.75V.45h1.75zm4.804 11.965a3.807 3.807 0 01-2.825-1.147 3.883 3.883 0 01-1.134-2.844 3.937 3.937 0 011.093-2.87 3.604 3.604 0 012.684-1.122 3.39 3.39 0 011.341.262 3.16 3.16 0 011.026.67c.254.245.478.517.67.812.157.25.289.513.397.784l.181.457-5.366 2.207a2.014 2.014 0 001.931 1.208 2.29 2.29 0 001.966-1.106l1.342.906c-.342.49-.78.905-1.289 1.22a3.654 3.654 0 01-2.017.563zm-2.241-4.112l3.57-1.482a1.229 1.229 0 00-.558-.61 1.819 1.819 0 00-.92-.235 2.072 2.072 0 00-1.441.637 2.124 2.124 0 00-.651 1.69zM109.165 12.416a5.527 5.527 0 01-5.62-5.654 5.527 5.527 0 015.397-5.654l.223-.001a5.006 5.006 0 013.977 1.77l-.966.939a3.648 3.648 0 00-3.005-1.376 4.1 4.1 0 00-2.984 1.193 4.192 4.192 0 00-1.215 3.126 4.185 4.185 0 001.215 3.126 4.096 4.096 0 002.984 1.194 4.266 4.266 0 003.354-1.57l.966.966a5.29 5.29 0 01-1.857 1.416 5.658 5.658 0 01-2.469.525zM116.086 12.175h-1.389V1.342h1.389v10.833zM118.356 5.654a3.885 3.885 0 015.474 0 3.93 3.93 0 011.073 2.817 3.93 3.93 0 01-1.073 2.818 3.885 3.885 0 01-5.474 0 3.926 3.926 0 01-1.073-2.818 3.921 3.921 0 011.073-2.817zm1.033 4.763c.888.939 2.369.98 3.309.091a2.682 2.682 0 00.809-2.036 2.674 2.674 0 00-.718-1.944 2.341 2.341 0 00-3.309-.09c-.032.028-.062.06-.091.09a2.682 2.682 0 00-.718 1.945 2.679 2.679 0 00.724 1.938l-.006.006zM132.592 12.175h-1.341v-1.026h-.04a2.59 2.59 0 01-.979.925c-.417.242-.893.37-1.376.369a2.609 2.609 0 01-2.105-.845 3.36 3.36 0 01-.719-2.267V4.77h1.389v4.306c0 1.382.61 2.073 1.831 2.073a1.703 1.703 0 001.409-.67c.36-.456.552-1.023.544-1.603V4.77h1.388v7.405h-.001zM137.311 12.416a3.258 3.258 0 01-2.482-1.134 4.022 4.022 0 01-1.04-2.81 4.022 4.022 0 011.04-2.81 3.263 3.263 0 012.482-1.135 3.148 3.148 0 011.515.362c.411.206.758.519 1.006.906h.061l-.061-1.026V1.342h1.389v10.833h-1.341v-1.026h-.061a2.56 2.56 0 01-1.006.906 3.143 3.143 0 01-1.502.361zm.228-1.267a2.211 2.211 0 001.67-.725 2.72 2.72 0 00.671-1.952 2.722 2.722 0 00-.671-1.953 2.266 2.266 0 00-3.353 0 2.686 2.686 0 00-.671 1.945 2.686 2.686 0 00.671 1.944c.428.48 1.041.75 1.683.74zM52.953 21.867v5.309h3.27c.777 0 1.422-.262 1.933-.785.524-.524.785-1.145.785-1.868 0-.707-.261-1.324-.785-1.847-.511-.54-1.156-.809-1.933-.809h-3.27zm0 7.18v6.156H51V20h5.18c1.316 0 2.433.438 3.355 1.316.934.88 1.403 1.946 1.403 3.207 0 1.29-.47 2.364-1.403 3.227-.906.863-2.023 1.297-3.355 1.297h-3.227zM63.633 32.016c0 .511.215.937.648 1.277.43.34.938.508 1.516.508.82 0 1.555-.305 2.2-.914.644-.606.964-1.32.964-2.145-.61-.48-1.457-.719-2.547-.719-.793 0-1.453.188-1.984.57-.532.384-.797.86-.797 1.423zm2.527-7.555c1.442 0 2.582.383 3.418 1.156.836.77 1.254 1.828 1.254 3.172v6.414h-1.871v-1.445h-.082c-.809 1.191-1.887 1.785-3.23 1.785-1.145 0-2.106-.34-2.876-1.02-.773-.68-1.156-1.53-1.156-2.546 0-1.079.406-1.934 1.219-2.57.816-.637 1.902-.958 3.258-.958 1.164 0 2.117.215 2.867.637v-.445c0-.68-.27-1.254-.805-1.73a2.777 2.777 0 00-1.89-.712c-1.09 0-1.954.461-2.59 1.38l-1.719-1.083c.945-1.36 2.348-2.035 4.203-2.035zM85.227 35.371c-.852 0-1.555-.262-2.114-.785-.558-.523-.847-1.254-.86-2.188v-5.816h-1.827v-1.785h1.828v-3.184h1.953v3.184h2.547v1.785h-2.547v5.18c0 .695.133 1.164.402 1.414.27.246.575.37.914.37.157 0 .309-.019.458-.054.148-.035.285-.082.413-.136l.614 1.742c-.508.183-1.102.273-1.781.273zM73.039 24.797h1.867v1.7h.086c.578-1.329 1.777-1.997 3.586-1.997l.406.043v2.039l-.87-.086c-.907 0-1.653.281-2.243.84-.586.559-.879 1.27-.879 2.133v5.734H73.04V24.797zM88.727 24.797h1.87v1.445h.083c.297-.508.754-.933 1.37-1.273a3.92 3.92 0 011.923-.508c1.273 0 2.254.363 2.941 1.09.684.73 1.027 1.765 1.027 3.113v6.54h-1.953v-6.415c-.043-1.7-.898-2.547-2.566-2.547-.781 0-1.434.317-1.957.945-.524.63-.785 1.383-.785 2.262v5.754h-1.953V24.797zM101.785 28.746h5.965a2.59 2.59 0 00-.879-1.793c-.531-.473-1.242-.71-2.137-.71-.734 0-1.367.226-1.898.679-.531.453-.883 1.062-1.051 1.824zm3.121 6.797c-1.527 0-2.789-.523-3.777-1.574-.992-1.047-1.488-2.367-1.488-3.969 0-1.586.48-2.906 1.445-3.96.961-1.052 2.191-1.58 3.691-1.58 1.543 0 2.774.497 3.684 1.497.914.996 1.371 2.395 1.371 4.191l-.02.215h-8.175c.027 1.016.367 1.84 1.019 2.461.649.625 1.43.934 2.336.934 1.246 0 2.223-.621 2.93-1.867l1.738.847a5.14 5.14 0 01-1.941 2.059c-.828.496-1.766.746-2.813.746zM113.57 35.203h-1.957V24.797h1.871v1.7h.086c.196-.552.602-1.02 1.219-1.411.617-.39 1.223-.586 1.816-.586.567 0 1.047.086 1.442.258l-.594 1.887c-.238-.098-.621-.149-1.144-.149-.739 0-1.379.297-1.922.895a2.965 2.965 0 00-.817 2.078v5.734z" fill="#888"/></svg>