<svg width="181" height="34" viewBox="0 0 181 34" fill="none" xmlns="http://www.w3.org/2000/svg"><path d="M3.2 2.3v4.5h6.9V2.3c0-.6.1-1.1.4-1.5.3-.4.7-.5 1.1-.5.5 0 .9.2 1.2.5.3.3.4.8.4 1.5v12.4c0 .7-.2 1.1-.5 1.5-.3.4-.7.5-1.2.5s-.9-.2-1.1-.5c-.3-.3-.4-.8-.4-1.5V9.4H3.2v5.3c0 .7-.2 1.1-.5 1.5-.3.4-.7.5-1.2.5s-.9-.2-1.1-.5c-.3-.4-.4-.9-.4-1.5V2.3C0 1.7.1 1.2.4.8.7.5 1.1.3 1.6.3s.9.2 1.2.5c.2.4.4.8.4 1.5zM23.5 2.5l3.6 10.6 3.6-10.6.4-1.2c.1-.2.2-.4.5-.6.2-.2.5-.3.9-.3.3 0 .5.1.8.2.2.1.4.3.5.5.1.2.2.5.2.7 0 .2 0 .3-.1.5 0 .2-.1.4-.2.5-.1.2-.2.4-.2.6l-3.8 10.3c-.1.4-.3.8-.4 1.1-.1.4-.3.7-.5.9-.2.3-.4.5-.7.7-.3.2-.7.3-1.1.3-.4 0-.8-.1-1.1-.3-.3-.2-.5-.4-.7-.7-.2-.3-.3-.6-.5-.9-.1-.4-.3-.7-.4-1.1L20.5 3.5c0-.2-.1-.4-.2-.6-.1-.2-.1-.4-.2-.6 0-.2-.1-.4-.1-.5 0-.4.1-.7.4-1 .3-.3.7-.5 1.1-.5.5 0 .9.2 1.2.5.3.4.5.9.8 1.7zM55.2 11.4c0 .5-.1 1-.4 1.6-.2.6-.6 1.2-1.2 1.7-.5.6-1.2 1-2 1.4-.8.4-1.8.5-2.9.5-.8 0-1.6-.1-2.3-.2-.7-.2-1.3-.4-1.9-.7-.6-.3-1.1-.8-1.5-1.3-.4-.5-.8-1-1.1-1.7-.3-.6-.5-1.3-.7-2-.1-.7-.2-1.4-.2-2.2.1-1.2.3-2.4.7-3.4.4-1 .9-1.9 1.6-2.6.7-.7 1.5-1.3 2.4-1.6.9-.3 1.9-.6 3-.6 1.3 0 2.4.3 3.4.8s1.8 1.1 2.3 1.9c.5.7.8 1.5.8 2.1 0 .4-.1.7-.4 1-.3.3-.6.4-.9.4-.4 0-.7-.1-.9-.3-.2-.2-.4-.5-.7-1-.4-.8-.9-1.4-1.5-1.8-.6-.4-1.3-.6-2.1-.6-1.3 0-2.4.5-3.1 1.5-.8 1-1.2 2.4-1.2 4.2 0 1.2.2 2.2.5 3.1.3.8.8 1.4 1.5 1.8.6.4 1.4.6 2.2.6.9 0 1.7-.2 2.3-.7.6-.5 1.1-1.1 1.4-2 .1-.4.3-.8.5-1 .2-.3.5-.4 1-.4.4 0 .7.1 1 .4.2.4.4.7.4 1.1zM73.7.6c.3-.3.7-.5 1.2-.5s.9.2 1.2.5c.3.3.4.8.4 1.5V14.9c0 .2-.1.5-.2.7-.1.2-.3.4-.6.6-.3.1-.5.2-.8.2-.5 0-.9-.2-1.2-.5-.3-.3-.5-.8-.5-1.5v-3.3l-2.6-2.5-3.8 5.8c-.2.3-.3.5-.5.9s-.4.6-.7.8c-.3.2-.6.3-1.1.3-.5 0-.8-.1-1.1-.4-.3-.3-.4-.6-.4-.9 0-.3.1-.6.2-1 .2-.3.4-.7.7-1.2l4.5-6.4-3.9-3.7c-.4-.4-.7-.8-.7-1.3 0-.4.1-.7.4-1 .3-.3.7-.4 1.2-.4.4 0 .6.1.8.2.2.2.5.4.8.7l6.3 6.5V2c-.1-.6.1-1.1.4-1.4zM86.1 15.2c-.1.3-.3.6-.4.7-.1.2-.3.3-.5.4-.2.1-.4.1-.6.1-.4 0-.8-.2-1.1-.5-.3-.3-.5-.6-.5-1s.2-.9.5-1.7l4.2-10.1c.2-.5.4-.9.5-1.2.1-.3.3-.6.5-.9.2-.3.4-.5.7-.6.2-.2.6-.3 1-.3s.8.1 1.1.3c.3.2.5.4.7.7.2.3.4.6.5 1 .2.4.4.7.5 1l4 10.2c.2.4.3.7.4 1 .1.2.1.5.1.7 0 .4-.2.7-.5 1-.3.3-.7.4-1.1.4-.5 0-.8-.1-1-.4-.2-.3-.5-.8-.8-1.6l-.8-2-3-8.9-3.4 8.9-.641 1.9c-.172.6-.159.6-.359.9zM113.7 3h-3.5v11.4c0 .7-.1 1.1-.4 1.5-.3.3-.7.5-1.1.5-.5 0-.9-.2-1.2-.5-.3-.3-.4-.8-.4-1.5V3h-3.5c-.5 0-.9-.1-1.2-.4-.3-.2-.4-.6-.4-1s.1-.7.4-1c.3-.2.7-.4 1.2-.4h10.1c.6 0 1 .1 1.2.4.2.3.4.6.4 1s-.1.7-.4 1c-.2.3-.7.4-1.2.4zM126.2 2v4.5h6.9V2c0-.6.1-1.1.4-1.5.3-.4.7-.4 1.2-.4s.9.2 1.2.5c.3.3.4.8.4 1.5v12.4c0 .7-.2 1.1-.5 1.5-.3.4-.7.5-1.2.5s-.9-.2-1.1-.5c-.3-.3-.4-.8-.4-1.5V9.1h-6.9v5.3c0 .7-.2 1.1-.5 1.5-.3.4-.7.5-1.2.5s-.9-.2-1.1-.5c-.3-.3-.4-.8-.4-1.5V2c0-.6.1-1.1.4-1.5.3-.3.7-.5 1.2-.5s.9.2 1.2.5c.3.4.4.9.4 1.5zM151.6.1c1.6 0 3 .3 4.2 1 1.2.7 2.1 1.6 2.7 2.8.6 1.2.9 2.7.9 4.3 0 1.2-.2 2.3-.5 3.3s-.8 1.9-1.5 2.6c-.7.7-1.5 1.3-2.4 1.7-.9.4-2.1.6-3.3.6-1.2 0-2.3-.2-3.3-.6-1-.4-1.8-1-2.4-1.7-.6-.7-1.1-1.6-1.5-2.6-.4-1-.5-2.1-.5-3.3 0-1.2.2-2.3.5-3.3s.8-1.9 1.5-2.6c.7-.7 1.5-1.3 2.4-1.6.9-.4 2-.6 3.2-.6zm4.5 8.1c0-1.2-.2-2.2-.6-3-.4-.8-.9-1.5-1.6-1.9-.7-.4-1.5-.6-2.4-.6-.6 0-1.2.1-1.8.4-.5.2-1 .6-1.4 1-.4.5-.7 1-.9 1.8-.2.7-.3 1.5-.3 2.4 0 .9.1 1.7.3 2.4.2.7.5 1.3 1 1.8.4.5.9.8 1.4 1.1.5.2 1.1.4 1.8.4.8 0 1.6-.2 2.3-.6.7-.4 1.2-1 1.6-1.9.4-1 .6-2.1.6-3.3zM167.8 14.6V4.9c-1.8 1.4-3 2.1-3.7 2.1-.3 0-.6-.1-.8-.4-.2-.2-.3-.5-.3-.8 0-.4.1-.6.3-.8.2-.2.6-.4 1.2-.7.9-.4 1.6-.8 2.1-1.3s1-1 1.4-1.5c.4-.6.7-.9.8-1 .1-.1.4-.2.7-.2.4 0 .7.1.9.4.2.3.3.7.3 1.2v12.3c0 1.4-.5 2.2-1.5 2.2-.4 0-.8-.1-1.1-.4-.2-.3-.3-.8-.3-1.4z" fill="#888"/><path d="M170.701.5c-.1-.1-.2-.2-.3-.2-.2-.2-.5-.2-.7-.2-.4 0-.7.1-1 .3-.3.2-.5.5-.7.8-.1.3-.2.7-.2 1.2v12.1c0 .6.1 1 .4 1.4.3.3.6.5 1.1.5.4 0 .8-.2 1.1-.5.2-.2.3-.6.4-1V.5h-.1zM180.601.6c-.3-.3-.6-.5-1.1-.5-.4 0-.8.2-1.1.5-.3.3-.4.8-.4 1.4v9.4l-6.1-9.3c-.1-.1-.1-.2-.2-.3v5.1l5 7.7c.2.3.3.5.5.7l.6.6c.2.2.4.3.6.4.2.1.5.1.8.1 1.1 0 1.7-.7 1.7-2.1V1.9c.1-.6-.1-1-.3-1.3z" fill="#888"/><path fill-rule="evenodd" clip-rule="evenodd" d="M27.2.3c.9-.1 1.6.6 1.7 1.5.1.9-.6 1.6-1.5 1.7-.9.1-1.6-.6-1.7-1.5v-.1c0-.8.6-1.6 1.5-1.6zM90.4 13.3c.9-.1 1.6.6 1.7 1.5.1.9-.6 1.6-1.5 1.7-.9.1-1.6-.6-1.7-1.5v-.1c0-.8.7-1.6 1.5-1.6zM83.398 21.956a.727.727 0 00-.164.124c-.09.09-.18.27-.27.451-.09.09-.179.18-.269.18h-.629c-1.257.271-2.156.992-2.695 2.075-.539 1.172-.449 2.344 0 3.517.212.637.59 1.218.96 1.788.1.156.201.311.298.466l.18.18h1.078v-.09l-1.078-1.623c-.45-.721-.719-1.443-.809-2.254-.18-1.263.54-2.616 1.707-3.067.27-.09.54-.18.898-.27-.449 1.803.09 3.337.899 4.78.449.811.898 1.623 1.437 2.434 0 .046.023.068.045.09.022.023.045.046.045.09h.988l-.09-.09a49.68 49.68 0 01-1.347-2.254c-.103-.206-.219-.4-.332-.59-.186-.308-.365-.608-.477-.943-.449-.992-.629-1.984-.449-2.976.09-.45.27-.902.629-1.353.09-.09.09-.18.09-.18v-.002c.041-.046 1.374-1.532 3.143-1.532v-.09h.18c.809.09 1.438.361 2.066.902.056.056.077.112.106.189.019.047.04.103.074.172v8.567h.898V22.17c0-.132.048-.216.11-.322.022-.038.046-.08.07-.129 1.078-.992 2.695-1.172 4.043-.45 1.706.901 2.425 2.705 1.796 4.599-.18.631-.449 1.172-.718 1.713-.27.496-.562.992-.854 1.488-.292.496-.584.992-.853 1.488l-.09.09h1.078c0-.045.022-.067.045-.09.022-.022.045-.045.045-.09.149-.249.297-.491.444-.73.386-.627.758-1.232 1.083-1.885.539-.992.988-2.074.898-3.337 0-.17-.02-.34-.04-.52a5.394 5.394 0 01-.05-.652c.09.03.19.05.29.07.2.04.4.08.519.2 1.168.451 1.887 1.804 1.707 3.066a4.528 4.528 0 01-.809 2.165c-.359.631-.718 1.172-1.168 1.713h1.079c.138-.242.29-.472.438-.698.24-.362.474-.717.64-1.105a4.044 4.044 0 00.628-3.518c-.539-1.713-2.156-2.795-3.503-2.615-.132 0-.167-.048-.212-.11-.016-.022-.034-.046-.058-.07-.898-1.533-2.246-2.345-4.042-2.435-.215 0-.45.02-.695.042a9.54 9.54 0 01-.832.048c-.809.27-1.528.902-1.528.902-.718-.541-1.617-.902-1.707-.902-.359-.09-.628-.09-.988-.09a.572.572 0 00-.09.007v-.007s-.809-.09-2.066.45c-1.348.542-1.797 1.444-1.797 1.444l.075.056zM80.628 32h18.776v.812H80.629V32z" fill="#888"/><path fill-rule="evenodd" clip-rule="evenodd" d="M82.066 22.711h.629c.09 0 .18-.09.269-.18a3.11 3.11 0 01.205-.372.718.718 0 01.229-.203l-.076-.057.023-.04c.105-.18.596-.93 1.774-1.403 1.23-.529 2.03-.454 2.065-.45h.001v.007a.573.573 0 01.09-.007h.21c.263.003.493.018.779.09.09 0 .988.36 1.707.902 0 0 .718-.632 1.527-.902.281 0 .563-.025.832-.048.246-.022.48-.042.695-.042 1.797.09 3.144.902 4.042 2.435.025.024.042.048.059.07.044.062.08.11.211.11 1.348-.18 2.965.902 3.504 2.615a4.048 4.048 0 01-.629 3.518c-.166.388-.4.743-.64 1.105-.149.226-.3.455-.438.698h-1.078c.083-.1.162-.2.24-.3.341-.444.634-.898.928-1.413.449-.632.718-1.353.808-2.165.18-1.262-.539-2.615-1.707-3.066-.117-.118-.312-.159-.508-.198l-.01-.002c-.1-.02-.2-.04-.29-.07 0 .11.005.215.013.316.01.117.023.228.035.335.022.18.042.35.042.52.09 1.264-.36 2.346-.899 3.338-.325.652-.697 1.258-1.082 1.885-.147.239-.296.48-.445.73 0 .045-.022.068-.045.09-.022.023-.045.045-.045.09h-1.078l.09-.09.115-.21c.237-.426.488-.852.738-1.278.292-.496.584-.992.854-1.488.27-.54.539-1.082.718-1.713.63-1.894-.09-3.698-1.796-4.6-1.348-.721-2.965-.54-4.043.451-.024.049-.048.09-.07.13-.061.105-.11.19-.11.321v8.477h-.898V22.08a1.773 1.773 0 01-.073-.172.474.474 0 00-.106-.189c-.598-.514-1.195-.784-1.947-.887l-.12-.015h-.18v.09c-1.768 0-3.102 1.486-3.143 1.532v.002s0 .09-.09.18c-.36.451-.539.902-.629 1.353-.18.992 0 1.984.45 2.976.11.335.29.635.476.944.114.19.23.383.332.59.406.732.811 1.391 1.217 2.044l.13.21.09.09h-.988c0-.045-.022-.068-.045-.09-.022-.023-.045-.045-.045-.09-.539-.812-.988-1.624-1.437-2.436-.759-1.354-1.28-2.788-.97-4.45.02-.11.044-.219.072-.33-.119.03-.227.06-.33.09-.207.06-.388.12-.569.181-1.168.451-1.886 1.804-1.707 3.067.09.811.36 1.533.809 2.254l1.078 1.623v.09h-1.078l-.18-.18c-.096-.155-.197-.31-.298-.466-.37-.57-.748-1.151-.96-1.788-.449-1.173-.538-2.345 0-3.517.54-1.083 1.438-1.804 2.696-2.075zm-2.978 5.693c-.467-1.224-.57-2.481.01-3.744l.004-.008c.58-1.164 1.553-1.944 2.9-2.234l.032-.007h.62a.663.663 0 00.063-.058c.038-.076.08-.157.121-.23a1.39 1.39 0 01.143-.211l.073-.146.052.026-.052-.026v-.001l.001-.002.002-.004.006-.012a1.497 1.497 0 01.102-.166c.072-.105.18-.248.334-.408.306-.32.789-.705 1.505-.993a5.892 5.892 0 011.582-.45 3.658 3.658 0 01.58-.027l.035.003h.011l.004.001h.003a.897.897 0 01.056-.001h.01c.35 0 .646 0 1.031.094l.043.008a2.497 2.497 0 01.218.073 7.4 7.4 0 011.383.739c.08-.061.182-.137.302-.22.292-.199.7-.44 1.14-.588l.047-.016h.049c.266 0 .535-.023.806-.047h.008a8.41 8.41 0 01.713-.043h.015c1.885.095 3.32.951 4.27 2.555.018.02.033.04.045.056 1.507-.166 3.206 1.03 3.772 2.83l.002.007c.383 1.344.1 2.69-.655 3.748-.175.402-.415.765-.644 1.112l-.007.01c-.15.228-.296.449-.428.682l-.087.151h-1.891l.408-.491c.435-.525.785-1.051 1.138-1.67l.007-.014.01-.012c.417-.588.67-1.26.754-2.024v-.009c.163-1.139-.493-2.349-1.517-2.744l-.06-.023-.044-.045a.291.291 0 00-.112-.058 1.53 1.53 0 00-.164-.042l.025.221m.001.013l.001.009c.02.17.042.352.042.536.093 1.343-.387 2.482-.932 3.486-.33.663-.707 1.277-1.09 1.898l-.003.006c-.137.223-.275.448-.413.679a.407.407 0 01-.077.15v.224h-2.1l.57-.571c.265-.488.552-.975.835-1.457l.002-.002c.291-.495.58-.985.846-1.474.27-.542.526-1.059.696-1.657l.004-.013c.584-1.758-.079-3.408-1.652-4.24h-.002c-1.225-.656-2.68-.498-3.66.372a3.465 3.465 0 01-.05.09l-.001.003a.86.86 0 00-.058.11.157.157 0 00-.011.062v8.777H89.31v-8.8a2.266 2.266 0 01-.052-.128l-.002-.004-.018-.047a.297.297 0 00-.016-.032c-.538-.46-1.068-.702-1.738-.8v.071h-.3c-.801 0-1.518.338-2.051.698-.415.279-.703.561-.816.678a.617.617 0 01-.14.236 2.77 2.77 0 00-.56 1.211c-.166.918-.002 1.847.428 2.796l.006.014.005.015c.1.299.261.571.449.885l.003.004c.11.185.23.385.338.6.438.79.876 1.495 1.318 2.206l.576.578h-2.01v-.225a.408.408 0 01-.075-.141c-.53-.805-.975-1.608-1.413-2.4l-.002-.003c-.752-1.343-1.3-2.807-1.028-4.505-.141.043-.272.087-.405.132-1.02.398-1.673 1.605-1.512 2.741l.002.01c.084.76.335 1.438.762 2.125l1.126 1.695v.48h-1.503l-.291-.292-.018-.03a28.904 28.904 0 00-.296-.46v-.002l-.01-.014c-.362-.557-.756-1.164-.98-1.835M99.703 31.7v1.412H80.328V31.7h19.375zm-19.075.3h18.775v.812H80.628V32z" fill="#888"/></svg>