<svg xmlns="http://www.w3.org/2000/svg" width="3413" height="1024" viewBox="0 0 3413 1024"><path d="M846.169 434.505c-.647-1.026-1.618-2.051-2.587-.683-.647 1.367-2.912 3.763-.647 4.446 5.176 1.369 6.47 6.501 9.382 9.921.971 1.369 2.265 2.394 3.236 3.422-2.912-6.158-5.825-11.631-9.383-17.106zM926.092 398.595c-1.942-.684-1.942 1.369-2.265 2.394-1.294 2.737-3.883 4.105-6.47 5.473-2.589 1.026-4.854 2.737-5.823 5.473 4.852-3.42 10.353-5.13 15.205-8.209.971-.684 2.912-1.027 2.587-2.737-.647-1.369-1.94-1.71-3.234-2.394zM750.74 402.01c-.647 1.027-.324 2.394 0 3.422.323 1.026.971 1.71 1.94 1.367 3.558-1.71 6.47.343 9.706 2.053 2.589 1.369 5.176 1.71 8.088 1.369-6.147-1.369-10.999-5.473-16.5-7.868-1.294-.684-2.587-1.369-3.234-.343zM701.517 506.349c2.912 2.394 4.529 5.816 6.794.343 1.294-2.737 4.529-3.422 7.117-4.448 2.265-1.027 3.883-2.394 5.823-3.763-6.794.684-12.617 4.789-19.734 7.868z"/><path d="M842.291 309.304c-108.38-1.369-195.729 90.655-196.7 202.863-.971 116.995 88.969 207.993 193.464 207.309 102.88 1.369 194.111-85.866 194.758-203.546.647-118.023-89.291-205.257-191.522-206.626zm100.938 325.675c-39.793 6.842-68.263-23.605-73.762-53.024-5.823-31.473 7.764-62.945 36.557-75.945 1.942 2.736 4.207 5.13 6.794 6.842 2.912 2.051 5.176 4.789 4.529 9.236 2.265-.343 4.529-.684 5.176-2.737s-1.94-3.079-3.558-4.105c-3.883-3.079-7.765-6.501-11.646-9.236 2.587-4.106 7.117-3.422 10.999-4.791 8.088-2.394 16.823-2.394 25.235-2.394 4.205 0 8.41-.341 12.616-.684.971-4.105-2.263-4.446-4.528-5.473-22.647-9.236-45.617-10.605-68.263.343-4.529 2.394-9.059 4.789-13.264 7.868-3.883 2.394-5.501 1.71-5.176-3.079.647-17.447 5.823-33.183 14.235-47.894 6.47-11.288 14.882-20.524 24.264-29.076 2.912-2.396 5.823-5.132 7.441-8.895-4.529-4.448-9.382-2.053-13.588.341-15.529 8.895-28.146 21.21-38.499 35.579-.969 1.369-1.294 3.42-3.234 3.763-3.883 9.236-9.706 17.789-12.942 27.366a591.69 591.69 0 01-3.234 7.869c-9.383-24.631-20.705-46.525-40.764-61.92-2.589-1.369-3.236-3.422-1.942-5.816 1.942-5.473 1.295-10.947 2.265-16.42.324-1.026.324-2.737-.969-3.079-1.295-.343-2.265.341-3.236 1.026s-.647 1.71 0 2.394c3.236 5.816 1.618 11.29-.971 17.106-7.117-5.132-13.911-10.948-23.293-10.264-1.618 3.422-.324 6.158 2.265 8.211 9.059 7.526 17.147 16.42 23.939 26.341-5.499 2.394-11.646 2.394-17.469 4.106-.971.341-2.265.341-2.587 1.71-.324 1.026.647 1.71 1.294 2.394 1.294 1.71 1.94.341 2.912-.684 4.852-4.789 11.324-4.105 17.147-6.499.323 0 .323.684.647 1.026 8.41 14.71 14.235 30.447 15.852 47.551.324 2.737 1.295 5.473-.969 7.183-2.265 2.053-4.207-.684-5.823-2.051-23.941-15.737-49.176-18.132-75.38-8.895-3.883 1.369-8.088 2.394-9.706 7.183 8.088 1.712 16.498.684 24.586 1.027 47.558 2.736 76.351 50.63 59.529 94.418-13.264 34.551-50.47 51.314-83.468 37.972-26.528-10.604-42.057-31.814-51.763-58.839-9.059-25.315-13.588-51.314-10.677-78.339 4.207-38.315 17.471-72.525 41.088-101.944 25.235-31.473 56.293-53.024 94.467-62.263 66.645-16.42 124.232 1.369 172.759 52.342 25.882 27.025 41.411 60.208 47.881 97.838 7.119 40.709.324 79.024-19.087 114.603-12.617 22.921-31.058 36.603-54.675 40.709z"/><path d="M972.667 503.27c-2.589 1.026-4.854-.343-7.119-1.71-2.912-1.712-6.146-2.737-9.382-2.737 5.176 3.079 10.675 5.816 15.852 8.552.971.343 2.265 1.369 3.236 0 .971-1.026.324-2.394 0-3.42-.324-1.71-1.618-1.027-2.587-.684zM793.754 420.487c.324-3.079 0-5.816.971-8.895.647-2.051.971-5.815 0-6.158-11.646-7.868 6.47-4.105 2.912-8.552 2.912-.684 3.558 1.369 3.236 3.422-1.618 7.183.323 14.71-3.883 21.209-1.94 2.737 1.94 2.394 1.618 4.106-3.236.341-3.558-2.737-4.854-5.132zM798.292 447.167c-.324-.343-.971-.684-1.294-1.026-2.265 4.446-6.794 3.42-10.353 4.446-2.912 1.027-6.147.684-5.825 5.473 0 .343-.323 1.369-.647 1.369-3.558-.341-3.558-4.789-6.793-5.815-1.295-.343-.649-3.079 1.94-3.422 7.117-1.71 13.911-3.763 21.028-3.42 1.942-1.369 2.589.684 3.236 1.71.647.684-.647.684-1.294.684zM907.302 506.349c7.441 1.712 12.293 7.869 17.794 12.658.969.684.969 3.763-1.295 3.42-3.234-.341-4.529 2.053-8.088 3.079 2.912-8.209-3.234-10.604-7.764-14.025-1.618-1.369-2.265-3.079-2.265-5.132h1.618zM935.793 517.297c-3.883 0-8.412.684-9.059-3.763-.971-4.789 3.558-5.815 6.794-7.183 4.205-2.053 8.735-2.737 13.264-1.71 2.265.341 4.852 1.026 5.176 3.763.323 2.736-1.618 4.105-3.558 5.473-4.529 2.394-8.736 4.105-12.617 3.42zM925.413 463.244c-5.499 0-10.353-1.71-14.558-5.13-3.883-3.422-3.234-6.501 1.618-7.526 7.117-2.053 13.588.341 19.734 4.789 1.295 1.026 2.589 2.737 2.265 4.448-.323 2.051-2.265 3.079-4.205 3.42h-4.854zM738.429 507.718c5.176 0 10.028 1.367 14.235 5.13 3.234 2.737 2.587 5.473-1.295 7.185-5.499 2.394-17.469-.343-21.352-4.791-1.94-2.394-1.94-4.105.647-5.815 2.589-2.053 5.176-1.71 7.765-1.71zM759.451 448.538c3.558 0 8.088-.684 9.059 4.105.969 5.132-3.883 6.158-7.441 7.526-4.529 1.71-9.059 2.737-13.913.684-1.94-.684-3.558-1.369-3.881-3.763s1.294-3.763 2.912-4.789c4.529-2.394 8.735-4.106 13.264-3.763zM806.34 375.334c-.324 5.473-.971 10.262-3.883 14.368-.971 1.367-2.265 3.079-4.205 2.736-1.618-.341-2.589-2.051-3.236-3.763-2.265-7.183-.647-13.684 2.265-19.842.971-1.71 1.94-3.761 4.205-3.42 2.589.341 3.236 2.394 3.883 4.448.647 1.71.647 3.763.971 5.473zM703.468 448.196c0-3.42 1.616-5.473 4.852-3.763 6.794 3.079 11.646 8.211 13.588 16.422.323 2.051.323 3.42-.971 4.789-1.618 1.369-2.912.684-4.529 0-6.147-3.079-12.94-11.974-12.94-17.447zM841.617 421.514c0 6.158-2.265 7.868-6.472 5.132-6.146-4.448-9.057-10.948-10.353-18.473-.647-4.106 2.912-6.159 6.472-3.763 6.146 4.105 9.382 10.604 10.353 17.104zM954.23 448.534c0 4.789-.324 9.236-2.912 13-2.589 3.763-5.176 3.763-7.119-.684-2.912-6.842-2.265-13.684.324-20.185.969-2.051 2.265-4.105 4.529-4.105 2.265.343 3.234 2.394 3.881 4.448 1.295 2.736.971 5.132 1.295 7.526zM925.742 546.038c0 1.71 0 3.079-.323 4.789-.324 2.053-.971 3.763-2.912 4.105-1.618.684-3.56 0-4.529-1.71-4.207-6.499-6.147-13.341-4.207-20.867.324-1.71 1.295-3.763 3.236-3.763 1.94-.343 3.558 1.026 4.852 2.736 2.265 4.448 4.207 9.236 3.883 14.711zM727.467 384.567c5.823 1.026 11.324 3.763 15.529 9.578.971 1.369 1.94 3.079.971 4.789-.971 2.053-2.913 2.396-4.854 2.396-6.47-.684-11.971-3.763-16.176-8.895-1.294-1.71-2.912-3.763-1.94-5.816 1.294-2.394 3.558-2.394 6.47-2.051zM847.761 422.195c.324-5.473 1.94-10.947 5.823-15.394 3.236-3.763 5.501-3.422 7.119 1.369 1.616 5.13-1.618 17.104-5.825 20.867-1.616 1.369-3.234 2.053-4.852 1.026-2.912-1.369-2.265-4.789-2.265-7.868zM694.772 502.589c-5.499-1.367-11.322-3.42-15.529-8.209-1.616-1.71-2.587-3.763-1.294-6.158.971-2.053 3.236-2.394 4.854-2.053 6.146 1.026 11.646 3.079 16.176 7.868 1.294 1.369 2.912 3.422 1.94 5.816-.971 2.736-3.558 2.736-6.147 2.736zM908.587 443.744c-1.94-.341-3.883.684-4.852-1.71-.971-2.051-.324-3.763.969-5.473 4.207-5.815 10.03-8.895 16.824-9.578 1.616-.343 3.558 0 4.528 1.71 1.295 2.053.324 4.105-.969 5.473-4.207 5.816-9.706 9.236-16.5 9.578zM767.527 540.902c-.647 5.132-1.294 10.605-4.852 15.053-1.294 1.71-2.587 3.079-4.852 2.394-1.942-.684-2.589-2.737-2.912-4.789-.649-6.158.323-11.974 2.912-17.447 1.294-2.394 2.587-4.448 5.499-4.105 3.236.341 2.912 3.763 3.558 6.158.647.684.647 1.71.647 2.736zM739.086 407.485c2.589 1.026 6.794.341 7.441 4.105.647 3.079-2.265 5.132-4.852 6.501-4.854 2.736-10.03 4.448-15.853 3.42-1.94-.341-4.529-1.369-4.852-3.763-.324-2.051 1.618-3.42 2.912-4.789 4.529-3.763 9.706-4.105 15.205-5.473zM905.033 376.695c-1.294 6.842-4.205 13.343-10.999 17.447-3.558 2.053-6.147.343-5.823-3.763.647-7.868 4.205-14.025 10.353-18.473 3.558-2.736 6.147-.684 6.47 4.789zM817.676 427.665c5.823 0 10.677 2.051 14.882 5.473 1.618 1.369 3.558 3.079 2.587 5.815-.969 2.737-3.558 3.079-5.823 3.079-5.176 0-10.028-1.367-14.558-4.446-2.265-1.712-5.176-3.763-4.205-7.185 1.618-3.079 4.852-2.394 7.117-2.736zM826.445 387.983c-1.294 6.158-5.499 9.921-10.353 12.658-3.236 2.051-7.764 5.13-10.675 1.026-2.913-4.105 1.294-7.526 4.205-10.605 3.234-3.763 7.441-6.158 12.293-6.842 2.265 0 4.529.684 4.529 3.763zM897.601 464.959c.323-2.394-.324-4.448 1.616-5.473 1.942-1.026 3.56-.341 5.176 1.026 5.501 4.448 8.088 10.264 9.706 17.106.324 2.051 0 4.105-1.618 5.473-1.94 1.369-3.558.341-5.176-.684-5.823-4.789-9.057-10.605-9.704-17.447zM979.13 448.536c-.323 6.158-10.999 18.13-16.5 17.789-2.912 0-4.205-2.053-3.881-5.473.969-6.158 9.382-14.71 15.205-16.079 3.236-.343 4.854 1.026 5.176 3.763zM734.544 545.695c-3.236.341-4.205-1.71-3.236-5.132 1.295-5.816 11.648-13.684 17.471-13.341 3.881 0 5.176 2.051 3.558 5.815-1.94 5.816-11.646 12.658-17.794 12.658zM709.333 521.742c-.971 7.183-3.236 13.684-8.735 18.473-1.618 1.369-3.558 2.394-5.176 1.026-1.618-1.026-2.265-3.42-1.942-5.473.971-6.842 3.236-13 8.412-17.789 1.294-1.026 2.589-3.079 4.852-1.71 1.942 1.71 1.942 3.763 2.589 5.473zM936.767 374.304c-1.294 5.473-2.589 11.972-8.088 16.42-3.236 2.394-5.501 1.369-6.47-2.736-.971-5.475 3.881-17.79 8.41-20.526 1.294-.684 2.589-1.71 4.205-.684 2.265 1.71 2.265 4.105 1.942 7.526zM971.991 471.455c3.558-.341 6.794.684 10.03 2.053 1.94 1.026 3.234 2.053 3.234 4.448 0 2.051-1.618 3.42-3.234 3.763-6.794 2.394-13.588 2.394-19.736-1.027-3.558-2.051-3.558-5.13 0-7.183 2.912-2.053 6.147-2.394 9.706-2.053zM740.035 450.587c-.971 4.791-.647 9.236-3.236 13-2.912 4.106-6.146 4.106-7.441-.684-1.94-7.183-1.94-14.367 1.942-21.209.969-1.369 1.94-3.079 3.883-2.737 1.94.343 2.912 2.053 3.234 3.763.971 2.737 1.294 5.473 1.618 7.868zM938.025 406.118c5.176.683 10.028 2.736 14.558 6.842 1.618 1.71 3.558 3.761 2.265 6.158-1.294 2.394-3.883 2.736-6.147 2.394-5.176-.684-10.353-2.394-14.558-6.158-1.94-1.712-4.205-4.106-2.912-7.185 1.294-2.736 3.883-2.051 6.794-2.051zM883.35 379.773c-.323 3.42.649 7.526-3.234 8.552s-5.176-2.737-6.794-5.473c-2.587-4.789-3.236-9.58-2.912-15.053.324-2.394.647-5.13 3.236-5.815 2.265-.684 3.881 1.367 5.499 3.763 2.589 4.105 3.883 9.236 4.205 14.025zM709.666 482.406c-5.501 0-10.028-.684-13.588-3.763-2.912-2.394-2.912-5.132.324-7.185 4.852-3.079 17.469-1.367 21.352 2.737 2.587 2.737 1.94 4.789-.971 6.499-2.265 1.712-5.176 1.712-7.117 1.712zM760.733 478.985c0-6.159 8.088-17.447 13.588-18.475 2.912-.683 4.529.684 4.529 4.106 0 6.158-8.088 17.104-13.588 18.473-2.912.684-4.529-.684-4.529-4.105zM789.545 394.827c.324 4.789-2.265 5.473-5.499 3.763-6.794-3.763-10.353-10.262-11.646-18.132-.649-4.105 1.94-5.815 5.823-4.105 5.176 2.053 11.322 11.974 11.322 18.473zM940.302 399.959c-1.94-.343-4.205-.343-5.176-2.737-1.294-2.394.324-3.763 1.618-5.13 4.852-5.475 10.677-8.211 17.469-7.869 1.618 0 3.56 0 4.207 2.053.647 1.71 0 3.42-1.295 5.132-4.205 5.473-10.028 7.525-16.823 8.552zM945.461 542.612c-5.501-.341-15.206-7.526-17.147-13-1.294-4.105 0-6.499 4.205-5.816 7.441 1.369 13.264 5.816 16.823 12.658 1.942 3.763 0 6.499-3.881 6.158zM757.519 387.642v4.105c0 2.053-.969 3.422-2.587 4.105-1.618.684-2.912-.341-3.883-1.71-4.852-5.815-6.794-12.657-5.823-20.526.323-1.71.647-3.761 2.912-4.105 1.94-.341 3.558.343 4.852 2.053 3.236 5.13 4.854 10.262 4.529 16.079zM691.159 508.745c1.294.343 4.205-.341 5.176 2.394.969 2.737-.971 4.791-2.589 6.158-4.529 4.106-10.028 6.501-16.176 6.501-1.94 0-3.883 0-4.854-2.394-.969-2.394.324-4.448 1.942-5.816 4.529-4.448 9.706-6.842 16.5-6.842zM853.287 382.857c7.117-1.369 19.087 6.158 20.705 13 .647 2.736-.971 4.105-3.558 4.448-5.823 1.026-17.471-6.501-19.087-12.658-.324-2.053-.971-4.448 1.94-4.789 1.294 1.369 0 4.105 1.94 4.789.971 1.369 1.942 1.369 3.236.684.323 0 0-.341-.647 0-.971.684-1.618.341-2.589-.341-1.94-1.027-.647-3.763-1.94-5.132zM756.574 433.823c-1.295-1.712-2.589-3.763-1.618-6.158 2.265-2.396 4.852-.684 7.117-1.369 5.823 1.71 10.03 5.473 12.942 10.947.969 1.71 2.265 3.763.647 6.158-1.618 2.053-3.558 1.71-5.823 1.026-2.912-1.026-5.501-2.051-7.765-4.446-1.294-2.737-3.558-4.448-5.499-6.158zM942.884 487.535c-.969.341-1.94-.341-2.263-1.369-.649-1.369-.324-2.394.647-3.42 1.616-2.053 3.558-3.763 5.176-5.473 1.94-2.053 4.528-4.106 1.616-7.526-.647-.684-.647-1.369-.323-2.053.647-1.026 1.618-.684 2.265 0 .647.343 1.294 1.027 1.94 1.027 7.119 2.051 7.119 2.051 1.618 8.209-2.589 2.737-4.852 5.473-7.441 8.211-.971 1.026-1.618 2.053-3.236 2.394zM774.668 511.143c-.647 2.736-3.234 3.763-4.528 5.473-2.589 2.736-8.412 3.763-4.854 9.921 0 .341 0 1.026-.323 1.026-3.56 1.026-5.825-2.736-9.383-2.736-.969 0-.647-2.737.647-3.763 4.529-3.763 9.383-7.526 13.913-11.29 2.263-1.369 3.558-.684 4.528 1.369zM900.207 442.716c2.912 3.422 1.618 7.185 4.529 9.58 1.294 1.026-.324 2.736-1.94 2.394-6.472-.343-12.942-2.394-19.412-3.763-1.294-.341-1.618-1.369-1.618-2.737.324-1.71 1.294-2.394 2.912-2.051 1.942.341 4.207.341 6.147 1.369 4.205 2.051 7.441 1.367 9.382-4.791zM721.946 498.138c-.969 5.132-5.499 4.448-8.735 6.501-2.265 1.71-6.47 1.71-4.529 6.499 0 .343-.323 1.369-.323 1.369-3.236 0-4.854-3.763-8.088-4.105-1.294-.343-1.294-2.394 0-3.079 6.146-3.079 12.293-5.816 18.441-8.552 1.294 0 2.587 1.026 3.234 1.367 0 0 .324.343 0 0zM911.2 412.616c-1.94-2.737-.324-4.448 1.94-5.473 2.265-1.027 4.529-2.053 6.472-3.422 1.294-.684 1.94-1.71 3.234-2.394 1.94-1.369-3.234-6.158 1.94-5.13 1.942.341 3.56 3.079 6.147 3.42 1.618.341 1.618 3.079 0 3.763-6.47 3.079-12.617 7.868-19.734 9.236 0 0-.324-.343 0 0zM722.883 479.328c0-4.448 1.942-7.185 1.618-10.264-.323-2.051 2.912-1.71 3.883-.341 4.205 4.448 8.088 9.236 11.971 13.684 1.294 1.369 1.294 3.079 0 4.105-1.294 1.369-2.589 0-3.558-1.026-1.618-1.71-2.912-3.079-4.207-4.789-2.265-3.763-5.176-5.475-9.706-1.369zM855.53 451.954c-4.529 1.026-5.176-3.079-6.794-5.816-2.265-3.763-3.883-8.893-10.353-5.132.647-4.105 3.883-5.815 3.558-9.236-.323-2.051 2.589-2.394 3.236-1.026 3.883 7.183 10.353 12.658 10.353 21.21 0 0 0 .341 0 0z"/><path d="M955.849 498.483c2.265-3.079 4.529-1.367 7.119-.341 3.881 1.71 7.441 7.183 11.971 1.026.647-.684 1.94-.341 1.94 1.369 0 .684.323 1.71 0 2.394-1.294 2.394 3.883 5.132 0 7.185-2.589 1.367-5.176-1.369-7.117-2.737-4.854-3.079-11.001-3.079-13.913-8.895 0 0 .324 0 0 0zM770.478 410.223c-3.881 4.789-7.117 1.026-10.353-1.026-3.558-2.053-6.793-3.422-9.704 2.051-1.942-3.763-.649-7.183-1.942-10.262-.647-2.053 1.618-2.737 3.558-1.71 6.147 3.761 12.942 6.158 18.441 10.947zM875.583 401.329c1.618-3.761 4.854-4.105 5.501-7.525.323-2.396 3.234-1.712 3.881 0 1.942 6.499 3.56 13 5.176 19.499.324 1.026 0 2.394-1.616 2.737-1.295 0-2.265-.343-2.589-1.712-.647-1.71-1.294-3.763-1.618-5.815-.969-4.448-2.265-8.552-8.735-7.185zM762.085 426.3c-2.265 2.053-4.854.684-7.119 1.369 1.618-4.105 4.529-2.394 7.119-1.369zM756.567 433.823c2.587 1.369 5.499 1.71 5.499 5.816-2.265-1.369-4.205-3.079-5.499-5.816zM855.866 387.985c.647 0 .971-.341 1.618-.341.971-.343 1.942-2.394 3.236-1.026.323.341.323 1.026.323 1.367-1.94-.684-3.881 4.106-5.176 0zM855.854 387.983c-3.234-.341-1.94-3.42-2.587-5.132.647 1.712 1.618 3.422 2.587 5.132zM764.948 430.747c.323.343.969 1.027.969 1.712 0 1.367-.969 1.71-1.616 1.71-1.295.341-1.618-1.027-1.618-1.71 0-1.027 1.294-1.369 2.265-1.712zM2228.036 609.99c-22.391 21.594-46.746 29.899-75.008 23.671-27.887-5.815-45.175-25.332-47.531-53.154-2.355-31.145 11.793-54.4 40.055-62.705 15.718-4.569 32.205-6.229 48.316-8.305 8.243-.831 16.486 0 24.337 0 7.868-29.07-4.318-46.51-31.403-47.341-19.251-.415-36.13 6.229-53.026 14.95-11.776 6.229-16.486 3.738-18.449-9.967-2.355-16.611 1.178-25.33 15.701-32.391 29.457-13.703 60.092-17.44 91.494-10.382 30.635 7.475 45.175 24.916 46.746 62.29 1.963 44.433.785 88.866.393 133.714 0 3.738-5.495 8.306-9.421 10.382-3.157 1.662-7.868.831-12.186.831-18.449 0-18.449 0-20.019-21.594zm-9.045-69.763c-16.486 2.492-32.973 3.323-48.691 7.89-12.169 3.323-17.664 16.611-15.701 28.653 2.355 12.042 10.598 19.517 23.552 20.763 30.242 2.077 46.353-18.686 40.841-57.306zM1635.06 541.889c.785 36.958 15.708 53.569 48.304 52.323 17.28-.416 34.567-5.398 51.838-9.552 13.739-3.321 16.094-2.492 16.879 12.044.785 19.932-3.14 26.161-21.589 31.143-24.743 6.644-49.877 9.552-75.404 5.4-36.128-5.815-61.263-28.653-67.939-66.442-7.069-39.035-6.284-77.655 16.886-111.706 32.596-47.754 115.466-46.094 143.729 2.906 12.578 21.594 13.756 45.679 12.186 70.18-.785 11.628-9.438 13.705-18.859 13.705h-106.03zm74.61-34.883c2.355-29.484-10.206-46.925-32.983-47.756-25.919-.829-41.627 17.026-40.842 47.756h73.825zM2717.303 614.979c-15.309 6.644-30.242 15.365-45.943 19.103-12.169 2.49-26.317.415-38.485-3.323-24.354-7.059-37.7-28.239-38.485-55.229-.785-25.747 10.991-46.925 34.56-55.231 17.271-5.813 35.738-7.89 54.187-10.796 8.243-1.246 16.896-.415 25.139-.415 5.888-38.62-12.954-55.229-50.261-45.679-12.578 3.321-24.747 9.136-36.523 14.534-9.438 4.152-13.756 1.661-15.718-8.305-3.925-17.442 0-27.824 14.933-34.883 31.795-14.949 64.785-18.686 98.56-8.305 25.924 7.89 39.27 26.991 40.055 61.042 1.178 44.018.393 88.037.393 132.053 0 7.06-2.748 10.382-9.421 10.798-4.318.415-9.028.829-13.346.829-18.466.416-18.859 0-19.644-16.195zm-9.42-74.333c-15.718 2.077-31.812 2.906-47.514 7.059-12.186 3.323-18.074 16.196-16.503 28.239 1.963 12.873 10.598 20.763 23.962 21.594 30.242 1.661 46.729-20.349 40.055-56.892zM2453.402 472.535c0 32.807-.785 63.536.393 94.266.785 19.101 7.851 30.729 31.42 22.839 13.739-4.983 15.309-3.738 15.309 12.042 0 33.637-3.14 36.96-35.738 37.374-17.271 0-34.15 0-47.906-13.705-9.813-9.965-14.524-22.007-14.916-35.297-1.57-34.051-1.963-68.103-2.748-101.738v-13.705c-9.438-1.661-21.999 0-24.747-4.983-4.318-7.059-2.355-19.101-2.355-28.653 0-22.839 18.057-6.229 27.102-14.949v-32.391c0-11.213 4.71-16.611 15.309-16.195 8.636 0 17.289.415 25.924 0 9.421-.416 13.346 4.567 12.954 14.118-.393 12.044 0 24.086 0 37.789 12.561 0 24.354.416 36.13 0 7.851-.415 10.598 2.908 10.991 11.213.785 32.806 1.178 32.806-30.225 32.806-5.12-.831-10.223-.831-16.896-.831zM1164.52 471.293c-9.818-2.077-18.85-1.662-25.919-5.815-3.535-2.075-3.535-11.628-3.535-17.855-.393-18.688 0-18.688 29.454-22.84 0-11.628.393-23.67 0-35.712-.393-8.721 2.749-12.873 10.996-13.288 1.57 0 3.142-.416 4.712-.831 30.239-3.738 34.166-.415 34.166 31.145v19.932c12.175 0 23.564.415 34.953 0 7.854-.415 11.781 2.906 11.781 10.796 0 2.908.785 5.815.785 9.136.785 21.594-1.57 23.67-21.992 23.67h-25.134c0 33.222-1.178 65.196.394 96.756.785 21.18 11.781 28.653 31.024 22.009 12.566-4.152 14.923.416 15.708 11.628 1.572 24.501-2.355 30.73-26.312 33.222-10.604 1.246-21.6 1.246-31.809-.831-23.956-4.152-38.487-24.916-38.88-55.229-.785-30.73-.393-61.459-.393-92.189v-13.703zM1917.372 637.819c-14.916-4.152-30.242-7.059-44.766-12.457-12.971-4.983-19.644-30.73-11.008-41.941 1.57-2.077 7.868-1.246 11.401-.416 15.309 4.152 30.242 9.967 45.551 13.705 5.495 1.246 12.169-1.661 17.664-4.152 14.148-7.06 15.718-23.671 3.157-33.222-6.298-4.567-13.756-7.475-20.821-11.211-9.028-4.154-18.074-7.89-27.102-12.459-22.767-11.628-32.597-31.56-30.635-58.136 1.963-26.161 16.111-42.358 38.485-50.248 24.747-9.136 50.278-7.89 74.615 2.077 11.793 4.983 18.466 29.899 10.615 39.864-1.57 2.077-7.066 1.246-10.223.416-14.524-3.323-29.047-7.892-43.981-10.382-9.813-1.246-18.842 3.736-21.589 14.949-2.748 12.042 3.925 19.103 13.346 23.255 12.169 5.813 25.139 10.796 37.308 16.611 28.279 13.288 40.448 34.881 37.308 63.119-3.14 28.237-22.391 49.417-51.439 55.229-9.045 1.661-18.074 2.492-26.709 3.323-.785 1.246-.785 1.661-1.178 2.075zM1429.228 454.687c6.675-7.475 11.389-13.705 16.886-19.517 12.566-12.459 27.097-17.442 43.984-12.044l4.712 1.246c6.676 3.738 8.641 45.679 1.964 49.417-2.749 1.662-7.069.416-10.604-.415-23.956-6.229-50.268 15.365-50.268 41.941 0 33.637-.393 67.273 0 100.908 0 9.967-3.142 13.705-12.566 14.95-35.738 4.152-38.093 2.075-38.093-34.468 0-51.492.393-102.985-.393-154.063 0-13.288 4.712-17.44 16.493-17.855 25.919-.831 26.312-.831 27.884 29.899z"/></svg>