<svg xmlns="http://www.w3.org/2000/svg" width="3413" height="1024" viewBox="0 0 3413 1024"><path d="M164.001 466.505c-2.859-1.07-18.869-6.958-35.45-4.816-16.582 2.14-28.017 7.494-36.594 13.382s-12.579 13.382-13.151 18.734c-.572 5.352.572 12.312 8.005 14.452 7.433 2.676 9.72 3.212 13.151 2.142 3.431-.536 10.864-4.282 22.871-8.03 12.007-3.212 25.158-6.958 43.455-8.028 17.153-.536 30.876 1.07 44.028 6.958 13.15 5.888 20.011 10.17 21.726 13.382 2.289 3.212 3.432 6.422-1.143 8.564-2.859 1.07-4.574 1.07-7.433 0-12.578-3.748-27.445-7.494-44.027-5.352-18.297 2.14-26.301 7.494-29.732 11.24s-6.861 10.706-3.431 16.594c3.431 5.888 7.433 8.028 14.294 9.1 6.861.534 18.297.534 30.877-2.678 12.578-3.212 28.588-6.958 40.023-8.564 10.865-1.07 16.01-.534 21.156 0 5.719 1.07 10.865 2.142 14.295 4.282 3.43 2.142 4.574 2.142 4.574 2.142l-2.287 10.17s-3.43-.536-10.863-.536c-9.721 0-18.869 4.282-23.443 10.17-4.576 5.888-6.863 11.242-4.576 16.594 2.287 5.354 6.863 6.958 12.008 7.494s10.863 0 10.863 0 21.728-6.958 25.731-8.028c4.002-1.072 10.863-.536 13.722 0 2.859.534 16.582 7.492 29.16 19.268 12.58 11.242 16.582 17.664 22.871 28.37 5.719 10.17 14.867 34.258 12.008 46.034-2.287 10.17-7.433 16.594-15.439 19.806-5.146 2.14-14.865.534-25.73-3.748-10.863-4.282-36.021-18.734-52.031-27.834-15.439-9.1-66.898-43.358-93.2-63.162-26.302-19.806-47.457-36.934-72.616-61.556-25.158-24.624-38.309-41.218-48.029-56.74s-15.438-32.652-8.577-43.892c6.861-11.242 16.581-13.382 24.586-13.382s25.158 2.14 48.601 11.24c23.443 9.1 34.307 13.918 37.166 13.918 2.287-.536 3.431-2.142 2.859-3.212-1.143-1.07-5.146-5.888-16.581-12.312-11.436-6.422-48.601-25.692-69.185-27.298-20.584-1.07-32.019 2.676-36.022 5.352-3.431 2.676-12.579 12.312-10.864 31.046s4.574 32.116 16.01 50.316c11.436 18.2 16.582 24.622 38.881 47.104s44.598 44.964 88.054 80.292c43.454 35.328 74.903 51.386 103.491 66.908 28.588 14.988 56.035 23.018 70.328 22.482 14.867-.536 26.301-3.212 30.877-13.918 4.574-10.704 4.002-17.664-1.143-37.468-5.147-20.34-17.725-40.682-28.59-53.528-10.863-13.382-19.441-19.27-28.017-25.158s-21.156-9.1-24.015-9.634c-3.43-.536-22.871 9.1-22.871 9.1l-.572-6.424s-9.721 5.888-16.582 6.424c-6.861 1.07-10.863-5.354-6.861-11.776 4.574-7.494 13.15-6.96 17.154-6.96 4.002 0 10.291 3.212 10.291 3.212l8.004-28.904s-10.863-6.96-25.73-7.494c-23.443-1.07-49.172 9.634-61.179 12.846-21.728 5.352-24.015-2.676-24.015-6.424.572-10.704 14.866-16.592 24.587-15.522 12.006 1.07 34.877 6.424 41.738 6.424 6.291 0 14.295 0 16.582-5.888s-1.143-13.382-9.148-20.342c-8.578-6.958-23.443-17.128-36.023-19.27-33.163-5.888-60.036 1.072-88.625 10.706-13.723 4.282-17.725 1.07-16.581-4.818 1.143-6.422 8.005-12.31 21.728-16.592 17.153-5.354 22.871-4.818 29.732-4.818s15.438 2.142 16.01 2.142c.572 0 1.143-1.072 1.143-2.678-1.143 0-2.287-1.606-2.287-1.606z"/><path d="M250.928 394.778s-2.287.534-3.43 0c-1.143-1.072-3.43-3.212-6.861-4.818-2.859-1.606-9.719-4.282-18.869-4.282-18.869-1.07-26.301 5.352-32.019 13.382-9.149 13.916-5.146 35.328 1.143 50.316 6.289 15.522 11.435 17.664 11.435 24.622 0 2.142 1.143 4.282-3.43 4.282-2.859 0-9.719-2.676-19.441-13.916-9.72-11.242-14.294-14.988-17.153-34.794-2.859-20.34 2.287-32.652 12.007-44.962 9.719-12.312 20.012-14.988 33.164-15.524 13.15-.534 25.73 6.958 32.019 12.846 6.861 5.354 11.435 12.848 11.435 12.848zm17.153-79.22c-4.574 2.676-9.148 8.028-12.006 19.268-3.43 11.242-3.43 9.636-4.576 22.482-1.143 12.846-2.287 16.594-1.143 22.482s2.86 11.24 6.863 15.522c3.43 4.284 6.289 6.96 12.578 5.888 6.291-1.07 8.578-2.14 13.723-7.492 5.146-5.354 13.723-13.918 21.728-19.806 8.576-5.888 19.441-8.564 28.017-6.958 8.578 2.14 16.582 7.494 21.156 12.846s9.719 16.594 11.436 27.834c1.143 11.24 2.859 26.764.572 40.146-2.289 12.846-2.289 17.128-5.719 26.764-3.43 9.634-10.863 22.48-10.863 22.48s22.871-20.874 28.017-28.904c5.146-8.028 10.865-21.41 12.58-40.146 1.715-20.34-1.143-27.298-5.147-41.216-4.574-14.452-14.293-26.764-25.73-34.792-12.006-8.03-28.588-8.564-38.88-7.494-12.008 1.606-29.734 9.634-40.025 19.27-10.293 9.634-11.436 11.24-11.436 11.24-1.143-1.07-4.574-3.746-4.002-12.31 1.143-13.382 1.715-16.594 5.146-25.694 2.859-8.03 6.291-14.988 6.863-17.128.572-2.142-1.143-3.212-3.432-3.748-2.287-1.07-5.717-.534-5.717-.534zM250.923 334.293s-13.722-3.746-21.156-5.888c-7.433-1.606-10.863-4.282-15.437-5.888-4.004-2.14-5.719-3.746-8.006-6.422-2.287-2.678-3.43-3.748-3.43-3.748s-1.715 2.142-1.715 4.818c-.572 2.676.572 8.028 4.574 11.776 4.574 3.746 6.863 3.212 10.293 4.282s9.148.536 13.15.536c2.287 0 5.719 3.746 6.863 5.888 1.143 3.746 1.715 8.028.572 10.17-2.289 4.282-4.576 6.422-13.723 6.958-9.719.536-14.295-.536-23.443-4.818s-12.008-12.846-13.723-18.734c-1.143-5.888-.572-14.988 5.719-24.622 6.289-9.636 9.719-10.17 12.006-11.242 2.287-.534 6.289-.534 8.576 1.07 2.289 1.072 3.432 3.212 7.434 7.494 4.574 4.818 11.435 11.242 18.869 17.664 7.433 6.424 12.578 9.636 12.578 9.636v1.07z"/><path d="M492.795 499.156c-6.289-1.07-9.719-2.676-9.719-4.818-.572-2.14 2.287-6.958 5.146-8.028 3.43-1.072 5.717-.536 6.861 1.606 1.715 2.14 2.287 3.21 4.002 5.888 1.715 2.676 2.86 3.746 1.715 5.352-1.715 1.606-2.859 1.07-4.574 1.07s-3.43-1.07-3.43-1.07zm-154.38 10.706c.572-1.072-4.002-6.424-7.433-10.17-3.43-3.748-14.867-16.058-17.725-21.946s-6.861-27.3-8.576-35.33c-1.715-8.028-5.146-16.592-8.578-17.128-4.002-1.07-8.576.536-10.291 5.352-1.715 4.818-6.289 27.3-7.433 48.176-1.715 20.34-3.432 42.286-5.147 53.528-1.715 11.24-4.002 22.48-7.433 34.256-3.43 11.242-8.576 21.412-14.295 28.906-5.717 8.028-12.006 12.31-12.578 18.198s.572 9.1 3.43 9.1c2.859 0 5.717-2.14 12.58-8.564 6.861-6.958 22.871-24.088 29.16-31.582 5.717-6.958 19.441-20.34 27.445-27.834 8.004-6.958 11.436-9.1 11.436-9.1s2.287 8.03 9.148 19.806c6.289 11.24 26.301 40.146 50.888 52.456 24.586 12.312 42.312 12.312 51.461 11.776 9.719-.534 33.162-4.282 51.459-18.198 18.869-13.918 30.304-26.228 40.596-39.076 10.291-12.846 26.301-34.792 33.162-44.962s10.293-13.918 10.293-13.918v-3.212s-1.717-3.21-6.863-13.382c-5.717-10.17-8.576-16.592-17.725-27.298-9.148-11.24-21.728-24.622-34.306-31.582-12.008-6.958-30.875-14.986-51.459-12.846-20.584 2.142-33.736 6.424-49.746 14.988s-36.021 25.158-40.023 28.37c-3.432 3.212-5.719 6.958-12.008 15.522-5.146 6.958-9.719 15.524-10.863 17.664-1.143 2.142-.572 3.212-.572 3.212h2.287s8.576-9.1 19.441-18.2c10.863-9.098 16.58-12.846 30.304-20.874 5.717-3.212 14.867-8.566 29.16-13.382 21.156-6.424 34.879-6.424 52.033-3.212 19.439 3.746 43.453 18.198 61.751 42.822 13.723 18.198 15.439 23.016 15.439 23.016s-8.576 8.03-20.012 19.27c-13.152 12.846-30.875 30.51-46.314 43.358-10.291 8.564-30.304 23.552-58.894 26.228-14.293 1.606-28.588 0-46.314-5.352-13.722-4.284-27.445-14.454-33.162-19.27-8.578-7.494-16.582-19.27-18.297-24.624-5.146-16.058-10.291-16.058-10.291-16.058s-11.436 1.07-28.59 16.594c-14.293 12.846-27.445 23.552-27.445 23.552s6.861-13.382 13.723-35.328c6.861-21.946 7.433-27.834 9.719-40.146 2.287-12.31 5.146-24.088 5.146-24.088l7.434 10.706s8.576 10.17 14.293 14.452c5.719 4.282 12.008 6.96 14.867 8.03 2.859-1.606 5.146-1.606 5.717-2.676zM889.025 429.034l-5.146 2.14c-5.719 2.676-9.721 8.564-10.293 15.524l-.572 8.028-10.863 140.778-1.143 10.17v5.352c0 8.564 2.287 12.848 8.004 15.524l12.006 5.352c6.291 3.212 12.008 12.312 12.008 19.806 0 5.352-2.859 11.24-6.861 14.452-9.721 6.422-50.889 12.31-88.625 12.31-8.578 0-16.582-4.282-22.299-11.776-4.574-5.352-8.006-14.452-8.006-19.804 0-6.958 5.719-11.242 21.156-16.058 10.865-3.748 14.295-8.03 14.295-17.13l-.572-21.41c-.572-12.846-3.43-15.524-16.582-15.524l-32.019.536c-29.734.536-58.322 3.212-71.472 6.958-12.58 3.748-17.725 11.776-17.725 28.37 0 5.888.572 10.706 2.287 14.452 1.715 4.818 4.574 6.96 16.01 11.242 12.006 4.816 18.295 12.31 18.295 21.946 0 17.128-20.011 24.622-65.753 24.622-11.436 0-21.156-1.07-33.164-2.676-21.156-3.212-30.875-11.24-30.875-26.228 0-7.494 3.43-10.706 14.293-12.848 16.01-3.21 21.156-8.028 21.156-19.804l.572-8.03 2.859-145.594v-7.494c0-11.776-1.143-14.452-10.291-19.27-17.725-9.634-25.73-17.664-25.73-26.228 0-4.818 2.287-9.1 5.717-11.776 10.865-9.1 49.172-15.524 86.339-15.524 26.873 0 46.314 12.312 46.314 28.906 0 9.1-8.004 15.522-26.301 21.946-3.43 1.07-5.717 2.676-7.434 3.746-1.715 1.606-3.43 4.282-3.43 6.96 0 1.07 0 3.21-.572 5.352l-4.574 55.134v4.282c0 12.31 3.43 16.594 13.152 16.594h1.143c6.861 0 14.293-.536 21.728-1.072 21.156-1.606 34.306-2.14 40.595-2.676h17.154l21.728-1.07c8.006-1.07 13.152-1.072 15.439-1.606 5.717-1.07 7.433-3.212 7.433-16.058l3.43-54.064c.572-3.746.572-6.958.572-8.028 0-5.888-1.715-8.564-8.576-11.776-14.295-6.424-15.439-6.958-20.584-13.382-4.574-5.352-6.289-10.17-6.289-14.988s1.715-9.634 4.574-12.846c2.859-2.676 6.861-4.818 12.008-5.888 18.295-4.282 53.746-8.03 76.046-8.03 14.295 0 22.299 3.212 28.588 11.242 5.146 6.422 8.006 13.382 8.006 19.804-1.717 6.958-6.291 12.312-17.154 17.13zm248.723 247.296c8.576-4.282 12.006-9.1 12.006-14.988 0-10.17-7.433-19.806-16.009-22.482l-12.58-3.212c-5.146-1.604-8.004-3.746-8.004-7.492 0-2.678.572-5.888.572-9.636l1.143-12.846 1.715-24.088c.572-5.352.572-9.634.572-14.988 0-59.414-32.02-93.672-88.054-93.672-27.445 0-54.318 9.1-86.91 31.046-21.156 13.916-29.732 24.086-29.732 36.398s6.289 19.27 17.725 19.27c1.715 0 4.574-.536 7.433-1.07 10.863-2.142 16.582-4.818 30.875-13.918 29.734-18.734 54.892-29.976 69.185-29.976 14.867 0 23.443 8.03 23.443 21.412 0 2.14-.572 5.352-1.143 9.634-1.143 4.818-1.715 5.354-8.004 5.888l-24.015 3.212c-40.025 5.354-89.197 24.088-114.355 44.428-9.149 7.494-16.01 21.946-16.01 34.794 0 26.228 34.879 46.568 79.478 46.568 16.009 0 28.588-1.07 46.886-5.352l21.156-4.818c1.715-.536 3.43-.536 5.146-.536 3.43 0 5.146 1.07 6.289 2.676l3.43 5.354c4.004 5.352 17.154 9.634 29.734 9.634 12.578 0 33.734-3.746 48.029-11.24zm-90.341-69.05c8.004 0 11.435 2.676 11.435 8.564 0 5.352-6.861 9.634-19.441 13.382-16.58 5.352-32.019 7.494-45.17 7.494h-10.863c-9.148 0-13.152-1.072-13.152-3.212 0-5.352 16.582-12.846 47.457-21.946 10.293-2.142 22.871-4.282 29.734-4.282zm304.184-68.516c1.143-4.818 2.287-10.17 2.287-14.452 0-14.452-12.006-27.3-34.877-36.398-6.289-2.678-12.008-3.748-17.154-3.748-10.863 0-28.017 6.424-38.881 14.452-2.287 1.606-4.002 2.678-5.717 2.678-3.43 0-5.146-2.142-7.433-8.03-3.43-9.634-15.439-13.918-38.881-13.918-28.017 0-49.172 8.566-49.172 19.806 0 9.634 12.006 23.016 25.73 26.764 5.717 2.14 8.004 3.212 9.148 6.424.572 1.07 1.143 2.676 1.143 3.746v5.888l1.145 64.232v2.142c0 20.34-2.86 24.088-16.582 26.228-12.008 1.606-21.156 9.636-21.156 18.2 0 14.452 18.869 25.692 43.455 25.692 25.73 0 53.746-3.21 69.757-8.564 8.004-2.676 14.293-9.1 14.293-16.058 0-8.028-8.004-14.988-25.73-21.946-5.146-1.606-6.861-3.212-8.004-5.352-.572-1.072-1.143-3.212-1.143-5.354-.572-3.212-.572-5.352-.572-6.958 0-13.382 5.717-38.54 13.723-61.556 5.146-14.988 16.009-27.834 22.871-27.834 3.43 0 5.146 1.606 5.146 5.352 0 1.07-.572 3.212-.572 5.888-1.143 6.958-1.715 11.776-1.715 16.058 0 18.734 9.719 31.046 24.586 31.046 13.722-1.07 28.017-19.806 34.306-44.428zm200.122 0c1.143-4.818 2.287-10.17 2.287-14.452 0-14.452-12.006-27.3-34.877-36.398-6.289-2.678-12.008-3.748-17.154-3.748-10.863 0-28.017 6.424-38.881 14.452-2.287 1.606-4.002 2.678-5.717 2.678-3.43 0-5.146-2.142-7.433-8.03-3.43-9.634-15.439-13.918-38.881-13.918-28.017 0-49.172 8.566-49.172 19.806 0 9.634 12.006 23.016 25.73 26.764 5.717 2.14 7.433 3.212 9.148 6.424.572 1.07 1.143 2.676 1.143 3.746v5.888l1.143 64.232v2.142c0 20.34-2.859 24.088-16.58 26.228-12.008 1.606-21.156 9.1-21.156 18.2 0 14.452 18.869 25.692 43.455 25.692 25.73 0 53.746-3.21 69.757-8.564 8.004-2.676 14.293-9.1 14.293-16.058 0-8.028-8.004-14.988-25.73-21.946-5.146-1.606-6.861-3.212-8.004-5.352-.572-1.072-1.143-3.212-1.143-5.354-.572-3.212-.572-5.352-.572-6.958 0-13.382 5.717-38.54 13.722-61.556 5.147-14.988 16.01-27.834 22.871-27.834 3.432 0 5.147 1.606 5.147 5.352 0 1.07-.572 3.212-.572 5.888-1.143 6.958-1.715 11.776-1.715 16.058 0 18.734 9.719 31.046 24.586 31.046 13.722-1.07 28.588-19.806 34.306-44.428zm86.339 135.96c41.168-.536 50.888-4.282 50.888-18.734 0-9.1-8.004-19.27-19.441-24.088-4.002-1.606-6.289-3.212-8.004-3.212-2.287-1.07-3.43-3.212-4.574-4.816-.572-1.606-1.143-3.212-1.143-5.354 0-9.1.572-20.34 1.143-34.792 1.143-13.382 1.143-25.694 1.715-36.4.572-14.452 1.143-19.804 1.715-25.158 0-2.676.572-4.282.572-5.352 0-13.382-15.439-21.946-40.596-21.946-32.591 0-58.892 10.706-58.892 24.088 0 8.564 9.719 19.27 22.299 23.552l9.719 3.21c5.717 1.606 8.004 5.888 8.004 14.988v5.354l-1.143 43.356c-.572 16.594-3.43 21.412-15.437 24.088-11.436 2.676-17.725 8.028-17.725 16.058 0 8.564 8.004 19.27 17.154 23.016 5.717 2.142 13.15 3.212 26.301 3.212h2.859l24.586-1.07zm23.443-230.168c1.715-3.746 2.859-8.03 2.859-12.312 0-8.564-3.43-16.592-9.719-22.48-4.574-4.282-10.293-7.494-17.154-9.1-4.574-1.07-8.004-2.142-9.719-2.142-17.725 0-30.877 15.524-30.877 36.4 0 9.098 3.43 14.452 13.152 21.41 8.576 6.424 18.297 9.636 26.301 9.636 9.148-.536 18.869-9.1 25.158-21.412zm224.133 132.748c18.876 0 31.454-24.622 31.454-63.698 0-20.34-14.302-38.54-29.73-38.54-3.43 0-8.004 1.606-10.291 3.748l-4.011 3.746c-1.707 1.072-3.43 1.606-5.717 1.606-3.43 0-8.004-1.07-14.285-3.212-8.004-2.676-12.015-3.746-14.302-4.282-5.717-1.606-12.015-2.676-19.439-2.676-24.013 0-49.169 9.636-75.469 29.44-20.599 15.524-32.597 32.116-32.597 43.892 0 3.748 1.143 9.1 4.574 15.524 3.994 8.564 8.004 14.988 12.015 18.2 8.004 7.492 17.715 11.774 53.163 24.622l34.304 13.382c12.015 4.282 18.876 8.028 18.876 11.24 0 2.676-4.011 4.282-9.728 4.282-11.998 0-32.017-1.606-47.445-4.282-6.861-1.07-16.009-3.212-26.3-5.352-20.019-4.818-29.167-6.424-34.321-6.424-10.856 0-18.86 6.958-18.86 15.524 0 11.24 9.148 18.198 35.449 27.298 36.591 12.312 64.614 17.664 94.345 17.664 41.165 0 67.465-10.706 84.617-34.258 4.011-5.352 5.717-10.17 5.717-14.452 0-11.776-11.435-21.946-38.298-34.258-28.023-13.382-52.036-22.48-73.762-28.904-18.876-5.352-28.587-11.24-28.587-15.524 0-8.564 26.863-24.086 56.03-32.65 5.717-1.606 11.435-2.678 14.302-2.678 10.854 0 14.285 4.818 14.285 18.736v2.14c0 1.606 0 3.748.58 5.888.563 5.888.563 10.17 1.143 12.848 1.143 3.21 2.85 6.958 5.137 10.17 3.43 6.422 10.871 11.24 17.152 11.24zm438.562-162.188c0-19.806-13.158-29.976-37.751-29.976-3.43 0-10.854.536-21.146 1.072l-162.953 9.098-16.009.536c-18.876 1.07-28.023 6.958-32.034 21.946-3.994 15.524-7.424 41.752-7.424 61.556 0 15.524 11.998 27.836 26.88 27.836 12.578 0 23.433-13.382 25.719-33.188l1.724-11.776c1.143-11.24 5.717-15.522 17.715-17.664 6.298-1.07 13.158-1.606 16.589-1.606 9.148 0 14.865 3.212 16.009 8.03 0 1.07.563 3.746.563 8.564v7.494l-5.717 139.706c0 2.142-.563 5.352-.563 9.1 0 9.634-1.143 13.382-2.287 15.522-2.287 2.678-8.004 5.354-18.295 7.494-16.009 3.748-21.163 7.494-21.163 16.058 0 18.736 20.019 29.976 53.18 29.976 22.306 0 49.169-2.676 81.766-7.494 7.424-1.07 13.141-3.212 15.428-5.888 1.143-1.07 2.867-5.888 2.867-10.17 0-14.452-9.728-25.158-29.167-29.976-11.435-3.21-16.009-5.888-17.152-11.24-1.143-2.142-1.143-5.352-1.143-11.24v-1.606l4.574-95.814c1.143-27.834 3.43-46.57 5.717-55.134 3.43-10.706 13.722-17.664 25.156-17.664 10.291 0 14.865 3.212 16.589 13.382l1.707 7.494 1.724 9.634c2.85 13.382 6.281 19.806 16.009 26.23 6.281 4.282 12.578 6.422 19.439 6.422 5.717 0 10.291-1.07 13.158-3.212 3.994-3.21 6.861-7.494 7.424-12.31.58-4.282 1.143-17.664 1.143-39.076l1.724-32.116zm188.109 157.906c1.707-10.706 3.43-21.946 3.43-29.976 0-20.876-4.574-29.974-22.306-45.498-21.726-18.2-36.591-24.088-58.88-24.088-37.171 0-77.193 17.664-106.923 45.5-27.443 26.228-37.171 47.638-37.171 79.22 0 44.962 24.593 74.938 71.475 87.784 11.435 3.212 21.146 4.282 32.017 4.282 22.869 0 58.897-7.492 86.34-18.734 11.998-5.352 21.726-11.24 27.443-19.27 2.287-3.212 3.994-9.634 3.994-13.916 0-11.242-8.004-19.806-18.295-19.806-2.85 0-8.004 1.07-11.998 2.676l-29.73 11.242c-20.019 7.494-49.186 12.31-72.055 12.31-25.719 0-37.154-6.422-37.154-20.874 0-6.424 2.85-9.1 11.435-10.172l94.345-11.776 12.578-1.07c7.424-1.07 11.998-1.07 12.578-1.606h10.291c17.715-1.07 25.156-7.494 28.587-26.228zm-68.608-58.346c10.291 0 14.285 5.888 14.285 21.412 0 9.1-1.143 13.382-3.43 16.058-3.43 3.212-12.578 6.958-21.146 7.494l-52.617 5.888c-5.717 1.07-9.148 1.07-11.435 1.07-2.85 0-4.574-1.07-4.574-3.212 0-4.816 9.728-15.522 21.163-22.48 24.593-16.594 46.319-26.23 57.754-26.23zm305.322 58.346c1.724-10.706 3.43-21.946 3.43-29.976 0-20.876-4.574-29.974-22.306-45.498-21.726-18.2-36.591-24.088-58.88-24.088-37.171 0-77.193 17.664-106.923 45.5-27.443 26.228-37.171 47.638-37.171 79.22 0 44.962 24.593 74.938 71.475 87.784 11.435 3.212 21.146 4.282 32.017 4.282 22.869 0 58.897-7.492 86.34-18.734 11.998-5.352 21.726-11.24 27.443-19.27 2.287-3.212 4.011-9.634 4.011-13.916 0-11.242-8.021-19.806-18.313-19.806-2.85 0-8.004 1.07-11.998 2.676l-29.73 11.242c-20.019 7.494-49.169 12.31-72.055 12.31-25.719 0-37.154-6.422-37.154-20.874 0-6.424 2.85-9.1 11.435-10.172l94.345-11.776 12.578-1.07c8.004-1.07 11.998-1.07 12.578-1.606h10.291c18.295-1.07 25.156-7.494 28.587-26.228zm-68.044-58.346c10.291 0 14.302 5.888 14.302 21.412 0 9.1-1.143 13.382-3.43 16.058-3.43 3.212-12.578 6.958-21.163 7.494l-52.599 5.888c-5.717 1.07-9.148 1.07-11.435 1.07-2.867 0-4.574-1.07-4.574-3.212 0-4.816 9.711-15.522 21.146-22.48 24.593-16.594 45.756-26.23 57.754-26.23zm248.149 150.414c16.589-10.172 25.737-21.948 25.737-32.118 0-9.1-9.148-16.592-19.439-16.592-4.574 0-8.004 1.604-17.732 7.494-14.285 8.564-25.719 12.846-32.017 12.846-11.998 0-17.715-7.494-17.715-26.228 0-6.424.563-13.382 1.143-20.342l3.994-35.862c1.143-10.17 2.287-11.242 12.578-13.382l8.004-1.072c3.43-.534 8.004-1.07 13.158-1.604 28.006-3.212 39.441-9.1 39.441-19.806 0-4.818-3.994-11.24-9.711-17.664-8.004-7.494-12.015-9.1-29.73-9.1h-8.004c-3.43.536-6.298.536-8.585.536-8.567 0-13.141-3.212-13.141-10.17 0-2.142.563-6.424 1.143-12.312 1.143-5.352 1.143-13.382 1.143-17.664 0-13.918-16.589-25.158-38.895-25.158-16.572 0-21.146 11.24-23.433 53.528-1.143 13.382-5.154 18.734-13.722 19.804l-13.158-.534c-18.295 1.07-29.73 7.494-29.73 17.128 0 13.918 14.865 28.37 32.017 31.046 3.43.536 6.298 1.07 9.728 1.07 8.004.536 9.711 2.142 9.711 9.636 0 3.746-.563 9.634-1.143 17.128-.563 3.212-.563 5.354-.563 8.03 0 19.27 1.707 40.68 5.137 53.526 2.867 10.172 8.004 18.736 14.302 24.624 11.998 10.17 34.304 17.664 52.036 17.664 16.009 0 32.58-4.818 47.445-14.452zm256.734-92.068c1.707-10.706 3.43-21.946 3.43-29.976 0-20.876-4.574-29.974-22.306-45.498-21.726-18.2-36.591-24.088-58.88-24.088-37.171 0-77.193 17.664-106.923 45.5-27.443 26.228-37.171 47.638-37.171 79.22 0 44.962 24.593 74.938 71.475 87.784 11.435 3.212 21.146 4.282 32.017 4.282 22.869 0 58.897-7.492 86.34-18.734 11.998-5.352 21.726-11.24 27.443-19.27 2.287-3.212 3.994-9.634 3.994-13.916 0-11.242-8.004-19.806-18.295-19.806-2.85 0-8.004 1.07-11.998 2.676l-29.73 11.242c-20.019 7.494-49.186 12.31-72.055 12.31-25.719 0-37.154-6.422-37.154-20.874 0-6.424 2.85-9.1 11.435-10.172l94.345-11.776 12.578-1.07c8.004-1.07 11.998-1.07 12.578-1.606h10.291c18.295-1.07 25.156-7.494 28.587-26.228zm-68.045-58.346c10.291 0 14.302 5.888 14.302 21.412 0 9.1-1.143 13.382-3.43 16.058-3.43 3.212-12.578 6.958-21.163 7.494l-52.599 5.888c-5.717 1.07-9.148 1.07-11.435 1.07-2.867 0-4.574-1.07-4.574-3.212 0-4.816 9.711-15.522 21.146-22.48 24.593-16.594 45.756-26.23 57.754-26.23zm272.742 24.088c1.143-4.818 2.287-10.17 2.287-14.452 0-14.452-12.015-27.3-34.884-36.398-6.281-2.678-11.998-3.748-17.152-3.748-10.854 0-28.006 6.424-38.878 14.452-2.287 1.606-4.011 2.678-5.717 2.678-3.43 0-5.154-2.142-7.441-8.03-3.43-9.634-15.428-13.918-38.878-13.918-28.006 0-49.169 8.566-49.169 19.806 0 9.634 12.015 23.016 25.737 26.764 5.717 2.14 8.004 3.212 9.148 6.424.563 1.07 1.143 2.676 1.143 3.746v5.888l1.143 64.232v2.142c0 20.34-2.867 24.088-16.589 25.694-11.998 1.606-21.146 9.098-21.146 18.198 0 14.452 18.859 25.694 43.452 25.694 25.719 0 53.743-3.212 69.751-8.564 8.004-2.678 14.302-9.1 14.302-16.058 0-8.03-8.004-14.988-25.737-21.948-5.154-1.606-6.861-3.21-8.004-5.352-.58-1.07-1.143-3.212-1.143-5.352-.58-3.212-.58-5.354-.58-6.96 0-13.382 5.717-38.54 13.739-61.556 5.137-14.988 16.009-27.834 22.869-27.834 3.43 0 5.137 1.606 5.137 5.352 0 1.072-.563 3.212-.563 5.888-1.143 6.96-1.724 11.776-1.724 16.058 0 18.736 9.728 31.046 24.593 31.046 13.722-.534 28.006-19.27 34.304-43.892zm-23.449 89.392c-14.285 0-25.719 10.704-25.719 24.086s11.435 24.088 25.719 24.088c14.302 0 25.737-10.706 25.737-24.088-.58-13.382-11.435-24.086-25.737-24.086zm0 3.746c11.435 0 20.582 9.1 20.582 20.34 0 11.242-9.148 20.34-20.582 20.34s-20.582-9.098-20.582-20.34c0-11.24 9.148-20.34 20.582-20.34zm-5.137 22.482h3.43c3.43 0 5.717 1.07 6.281 4.816.58 3.748 1.143 5.89 1.724 6.96h4.574c-.58-1.07-1.143-2.676-1.724-6.424-.563-3.746-2.287-5.888-4.574-6.422 2.867-1.072 5.717-3.212 5.717-6.424 0-2.676-1.143-4.282-2.85-5.354-1.724-1.07-4.574-2.14-9.148-2.14-3.43 0-5.717.536-8.004.536v26.762h4.574v-12.31zm0-12.312h3.43c5.137 0 6.861 2.142 6.861 4.818 0 3.212-3.43 4.818-6.861 4.818h-3.43v-9.636z"/></svg>