<svg width="47" height="29" viewBox="0 0 47 29" fill="none" xmlns="http://www.w3.org/2000/svg">
<path d="M47.001 21.7646C46.9533 22.1793 46.9152 22.594 46.8532 23.0087C46.6244 24.4768 46.1525 25.8353 45.0657 26.9078C44.3078 27.6562 43.3878 28.09 42.3392 28.252C41.1713 28.4379 40.013 28.3855 38.8976 27.9517C37.3961 27.3702 36.4809 26.2357 35.9423 24.7628C35.4656 23.4568 35.3465 22.0935 35.3751 20.7207C35.4037 19.4909 35.561 18.2754 36.0281 17.1219C36.8098 15.2057 38.216 14.0998 40.28 13.8615C41.5145 13.7185 42.7205 13.8186 43.8502 14.3763C45.1849 15.0293 45.9809 16.1399 46.4576 17.5032C46.7483 18.3374 46.8961 19.2001 46.9438 20.082C46.9485 20.1821 46.9724 20.2822 46.9914 20.3823C47.001 20.8446 47.001 21.307 47.001 21.7646ZM39.6126 21.0586C39.646 21.0586 39.5793 21.0782 39.6126 21.0782C39.6126 21.6073 39.5888 22.1412 39.6174 22.6703C39.6555 23.3424 39.708 24.0145 39.9892 24.6437C40.2228 25.168 40.6327 25.4111 41.1952 25.4111C41.7481 25.4111 42.1866 25.1728 42.3678 24.6484C42.5298 24.1765 42.6776 23.6713 42.7014 23.1755C42.7586 21.96 42.7825 20.735 42.7443 19.5195C42.7253 18.9094 42.6061 18.2897 42.4488 17.6986C42.2677 17.0361 41.8339 16.7548 41.1904 16.7548C40.5469 16.7548 40.1513 17.0408 39.9177 17.6939C39.87 17.8178 39.8224 17.9513 39.8081 18.08C39.6984 19.0762 39.708 20.0624 39.6126 21.0586Z" fill="#8C8C8C"/>
<path d="M0 24.5771C0.6435 24.253 1.28223 23.9288 1.92573 23.5999C2.5883 23.2615 3.2461 22.9135 3.90867 22.5703C3.9611 22.5417 4.02307 22.5179 4.06597 22.4988C4.00877 22.8325 3.9182 23.1614 3.89913 23.4951C3.88483 23.7715 3.90867 24.0671 3.98493 24.334C4.25187 25.2873 5.18137 25.4065 5.9631 25.1205C6.45883 24.9394 6.72577 24.539 6.85923 24.0528C7.0213 23.4522 7.01653 22.842 6.85447 22.2414C6.5637 21.188 5.68663 20.6827 4.59507 20.9258C4.02307 21.0498 3.5321 21.3262 3.06973 21.6742C2.99347 21.7314 2.9172 21.7886 2.83617 21.8506C2.02583 21.4311 1.2155 21.0116 0.409933 20.5874C0.362267 20.5636 0.319367 20.4635 0.324133 20.4063C0.490967 19.1526 0.667333 17.899 0.8437 16.6406C0.962867 15.7921 1.08203 14.9484 1.19167 14.1C1.21073 13.957 1.25363 13.9141 1.39663 13.9141C4.1756 13.9188 6.95933 13.9188 9.7383 13.9188C9.78597 13.9188 9.82887 13.9284 9.88607 13.9331C9.88607 15.0342 9.88607 16.1258 9.88607 17.2412C9.79073 17.246 9.70017 17.2555 9.60483 17.2555C7.80303 17.2555 5.99647 17.2603 4.19467 17.2507C3.9897 17.2507 3.91343 17.2889 3.8896 17.5177C3.82763 18.1469 3.72753 18.7713 3.6322 19.4482C3.72753 19.3814 3.77997 19.3433 3.8324 19.3004C4.6189 18.7093 5.51027 18.4805 6.48743 18.5091C7.18337 18.5282 7.86023 18.6235 8.5085 18.8905C9.78597 19.4196 10.5105 20.4063 10.7822 21.7362C11.1492 23.5094 10.8251 25.13 9.6096 26.5076C8.72777 27.5086 7.57423 28.0568 6.26817 28.2617C4.87153 28.481 3.51303 28.3237 2.2451 27.6611C1.04867 27.0415 0.247867 26.1024 0.0333667 24.7296C0.0286 24.7106 0.00953333 24.6915 0 24.6724C0 24.6391 0 24.6057 0 24.5771Z" fill="#8C8C8C"/>
<path d="M14.8379 12.5651C14.8379 11.6451 14.8379 10.749 14.8379 9.82422C15.2431 9.82422 15.6435 9.82422 16.0582 9.82422C16.0582 8.44188 16.0582 7.09292 16.0582 5.71535C15.6578 5.71535 15.2621 5.71535 14.8522 5.71535C14.8522 4.78585 14.8522 3.87542 14.8522 2.95068C16.6445 2.95068 18.4415 2.95068 20.2624 2.95068C20.2624 3.55605 20.2624 4.15665 20.2624 4.81445C20.434 4.62855 20.5674 4.49032 20.7009 4.35208C21.4826 3.53222 22.455 3.13182 23.5752 3.06032C24.3569 3.00788 25.1291 3.05078 25.8775 3.29865C27.155 3.71812 27.8747 4.70005 27.8843 6.04902C27.8938 7.21685 27.8843 8.37992 27.8843 9.54775C27.8843 9.63355 27.8843 9.71935 27.8843 9.81468C28.2465 9.81468 28.5802 9.81468 28.9091 9.81468C28.8185 9.44765 28.7041 9.09492 28.6517 8.72788C28.2942 6.37792 29.3762 4.48078 31.5784 3.57988C32.5222 3.19378 33.5089 3.03648 34.5242 3.01265C35.5395 2.98882 36.5167 3.12228 37.4462 3.53698C38.9048 4.18525 39.6722 5.33402 39.8867 6.88318C39.8915 6.92132 39.8867 6.95945 39.8867 7.02618C38.6522 7.15965 37.4271 7.29788 36.2116 7.43135C36.1497 7.06908 36.1163 6.72112 36.0305 6.38745C35.8494 5.68675 35.4061 5.34355 34.7006 5.31972C33.9618 5.29588 33.3945 5.64385 33.18 6.30165C33.0847 6.58288 33.0275 6.88795 33.0084 7.18348C32.9512 7.92708 32.9274 8.67545 33.1324 9.40475C33.4517 10.544 35.0057 10.9301 35.8494 10.0912C36.1354 9.80515 36.2355 9.44765 36.2498 9.04248C37.4843 9.04248 38.7046 9.04248 39.9582 9.04248C39.9249 9.24268 39.9106 9.41905 39.8677 9.59065C39.4482 11.2781 38.3233 12.2457 36.6692 12.6127C34.8102 13.0227 32.9798 12.9226 31.2305 12.1027C30.301 11.6642 29.5621 11.0111 29.0759 10.0912C29.0664 10.0721 29.0473 10.0578 28.9997 10.0006C28.9997 10.8824 28.9997 11.7214 28.9997 12.5746C26.7593 12.5746 24.5476 12.5746 22.312 12.5746C22.312 11.6689 22.312 10.7633 22.312 9.83375C22.7172 9.83375 23.1176 9.83375 23.5514 9.83375C23.5514 9.72888 23.5514 9.64308 23.5514 9.55728C23.5514 8.70882 23.5514 7.86035 23.5514 7.01188C23.5514 6.25875 23.1319 5.80115 22.3692 5.73442C21.2348 5.62478 20.4006 6.38745 20.4006 7.52668C20.4006 8.27982 20.4006 9.03295 20.4006 9.80992C20.8296 9.80992 21.2443 9.80992 21.6828 9.80992C21.6828 10.7394 21.6828 11.6451 21.6828 12.5651C19.4044 12.5651 17.1307 12.5651 14.8379 12.5651Z" fill="#8C8C8C"/>
<path d="M11.2954 21.0399C11.305 19.6051 11.4575 18.1942 12.0629 16.8691C12.8684 15.1006 14.2412 14.0996 16.1765 13.8661C17.2442 13.7374 18.2977 13.7993 19.3177 14.1807C20.8574 14.7574 21.806 15.9062 22.3541 17.4172C22.7069 18.3849 22.8498 19.3906 22.8927 20.4202C22.9547 21.8788 22.8499 23.3184 22.3541 24.7055C21.7201 26.4644 20.5761 27.7037 18.7124 28.1661C17.4301 28.4807 16.1431 28.4521 14.8943 27.9945C13.2545 27.3939 12.3107 26.145 11.7816 24.5386C11.4051 23.3946 11.2859 22.2268 11.2954 21.0399ZM18.7171 21.078C18.7314 21.0828 18.7028 21.0733 18.7171 21.078C18.6885 20.4059 18.679 19.7291 18.6313 19.0617C18.5932 18.5088 18.5169 17.9606 18.2643 17.4506C18.0212 16.9692 17.6351 16.7451 17.0965 16.7451C16.5578 16.7451 16.1336 16.9596 15.9382 17.4554C15.7713 17.8844 15.6426 18.3467 15.595 18.8043C15.4329 20.3106 15.4424 21.8264 15.5854 23.3374C15.6331 23.8332 15.7237 24.3241 15.9668 24.7722C16.2146 25.225 16.615 25.4109 17.1108 25.4062C17.597 25.4014 17.9974 25.2203 18.2214 24.7674C18.3406 24.5291 18.4597 24.2717 18.4883 24.0143C18.6027 23.0419 18.6313 22.0552 18.7171 21.078Z" fill="#8C8C8C"/>
<path d="M23.3411 21.1973C23.3363 19.7197 23.4793 18.4088 23.975 17.16C24.7472 15.2199 26.1629 14.1045 28.2507 13.8614C29.4281 13.7232 30.5816 13.8138 31.6732 14.3095C33.0222 14.9244 33.8611 15.9969 34.3664 17.3602C34.743 18.3802 34.9003 19.4432 34.9336 20.5252C34.9765 21.879 34.886 23.2184 34.457 24.5149C34.0184 25.8258 33.2987 26.9221 32.0736 27.6323C31.0583 28.2186 29.9524 28.3902 28.7989 28.3426C27.6787 28.2997 26.6396 28.0137 25.7292 27.3368C24.6948 26.5646 24.099 25.5016 23.7415 24.2861C23.4364 23.2279 23.3268 22.1459 23.3411 21.1973ZM27.5167 21.0591C27.5024 21.0591 27.5643 21.0591 27.5167 21.0591C27.5405 21.7217 27.5357 22.3938 27.6072 23.0516C27.6597 23.5568 27.7598 24.0716 27.9218 24.5531C28.1745 25.311 28.8323 25.5302 29.5759 25.3443C30.0382 25.2252 30.2718 24.8677 30.4196 24.4482C30.6436 23.8142 30.6865 23.1517 30.7199 22.4843C30.7818 21.1354 30.8057 19.7912 30.6007 18.4517C30.5435 18.0752 30.4148 17.6986 30.248 17.3554C30.0239 16.893 29.5997 16.7405 29.0992 16.75C28.6082 16.7596 28.2364 16.955 28.0172 17.3935C27.898 17.6319 27.7836 17.8893 27.755 18.1514C27.6358 19.1191 27.5 19.875 27.5167 21.0591Z" fill="#8C8C8C"/>
<path d="M14.2468 0C14.2468 0.981933 14.2468 1.94957 14.2468 2.9458C13.7177 2.9458 13.1934 2.9458 12.6452 2.9458C12.6452 5.24333 12.6452 7.51227 12.6452 9.81457C13.1696 9.81457 13.7034 9.81457 14.2516 9.81457C14.2516 10.7441 14.2516 11.645 14.2516 12.5649C11.3344 12.5649 8.42673 12.5649 5.5 12.5649C5.5 11.664 5.5 10.7631 5.5 9.83363C6.0291 9.83363 6.56773 9.83363 7.1159 9.83363C7.1159 7.5361 7.1159 5.26717 7.1159 2.9744C6.58203 2.9744 6.05293 2.9744 5.50477 2.9744C5.50477 1.9734 5.50477 0.996233 5.50477 0C8.41243 0 11.3249 0 14.2468 0Z" fill="#8C8C8C"/>
<path d="M42.7567 11.0635C42.7567 11.9405 42.0703 12.6222 41.1885 12.6222C40.3162 12.6222 39.6203 11.9262 39.625 11.0539C39.625 10.1864 40.3257 9.49048 41.2028 9.49048C42.0751 9.49048 42.7567 10.1816 42.7567 11.0635Z" fill="#8C8C8C"/>
</svg>
