<svg width="56" height="56" viewBox="0 0 56 56" fill="none" xmlns="http://www.w3.org/2000/svg"><path d="M28 55.5c15.188 0 27.5-12.312 27.5-27.5S43.188.5 28 .5.5 12.812.5 28 12.812 55.5 28 55.5z" fill="#fff" stroke="#888" stroke-miterlimit="10"/><path d="M28 46.487c10.21 0 18.488-8.277 18.488-18.487C46.488 17.79 38.21 9.513 28 9.513 17.79 9.513 9.514 17.79 9.514 28c0 10.21 8.277 18.487 18.487 18.487z" fill="#888"/><path d="M40.1 23.422c-.23-.61-.701-1.15-1.276-1.542-1.668-1.058-4.21-1.139-5.925-.173-.932.484-1.553 1.427-1.748 2.393-.346 1.6-.253 3.497.978 4.694 1.438 1.254 3.52 1.541 5.383 1.024.092-.012.368-.092.564-.184l.058-.023a3.863 3.863 0 001.541-1.162c.944-1.392 1.001-3.463.426-5.027zm-3.025 3.589c-.069.299-.264.621-.587.736-.517.23-1.207.161-1.68-.104-.402-.276-.448-.747-.494-1.184-.034-.863-.103-1.784.138-2.577.196-.495.714-.622 1.197-.656.494 0 .99.08 1.3.483.195.288.184.667.218 1.012-.023.702.035 1.565-.092 2.29zM21.89 27.793c-.425-.023-.897.011-1.311-.035l.011-4.417.023-.035 1.266-.011c.011-.713.023-1.484-.012-2.14l-4.832-.011-.793.011c-.012.667-.012 1.45 0 2.128.437.012.851 0 1.265.035v4.28l-.011.172-1.266.023c-.023.702-.023 1.38 0 2.082h5.649v-2.082h.011zM36.12 30.819a10.24 10.24 0 01-1.955 2.093c-.023.035-.104.023-.127-.011-.322-.196-.667-.368-.978-.564.415-.495.806-.978 1.116-1.53h-.402c-.322.472-.656.955-1.082 1.37a12.842 12.842 0 00-1.656-.576l-.07-.046c.093-.253.254-.495.311-.748h-.345l-.345.679a16.327 16.327 0 00-2.358-.3c-.035-.114.011-.275-.035-.379h-.333c-.023.15.034.265-.035.391-.794.035-1.564.127-2.312.276l-.345-.667c-.127 0-.265-.023-.357.012l.322.747-.034.035c-.576.16-1.14.368-1.692.598l-.046-.023a11.155 11.155 0 01-.989-1.242c-.069-.219-.322-.092-.46-.115.31.552.713 1.046 1.127 1.553-.345.207-.69.425-1.046.586a9.124 9.124 0 01-2.025-2.128c-.15-.023-.253-.011-.414 0 .92 1.438 2.358 2.692 3.854 3.44 0 0 0-.012.011-.012.012 0 .035.023.012.035 1.012.495 2.093.84 3.232 1 3.935.518 7.696-1.161 9.87-4.463a1.666 1.666 0 00-.413-.011zm-5.349 1.127l.035-.023a6.98 6.98 0 011.564.54c-.414.46-.932.875-1.426 1.209-.3.172-.587.368-.898.517l-.552-.241.035-.092c.471-.61.886-1.243 1.242-1.91zm-2.52-.38a9.997 9.997 0 012.14.253l.012.035a12.54 12.54 0 01-1.3 1.956c-.219.023-.426-.058-.644-.07l-.219-.022a22.372 22.372 0 01.012-2.152zm-2.473.23c.668-.126 1.358-.23 2.071-.23l.012 2.129c-.265.057-.564.057-.817.126a11.057 11.057 0 01-1.335-1.979l.07-.046zm-2.07.68a8.426 8.426 0 011.564-.553l.058.012c.368.69.828 1.345 1.288 2.001-.184.104-.402.161-.575.265a8.595 8.595 0 01-2.335-1.691v-.035zm1.656 2.162a8.989 8.989 0 01-3.002-1.415v-.035c.31-.184.62-.39.943-.529.736.725 1.484 1.266 2.312 1.772a.903.903 0 01-.253.207zm4.751.161c-1.357.288-2.876.3-4.233-.023-.023-.058.069-.08.103-.115 1.197-.77 3.049-.77 4.222.057.035.081-.069.058-.092.081zm1.231-.357l-.598.184a1.211 1.211 0 01-.288-.207l.023-.034a11.697 11.697 0 002.267-1.749c.345.138.679.334.99.54-.714.576-1.542.956-2.394 1.266zM19.924 20.177c.31-.425.655-.84 1.035-1.242.334-.31.644-.621 1-.84.335.219.703.391 1.025.598-.403.483-.806.978-1.105 1.507.092.035.253.023.38 0 .322-.46.667-.931 1.081-1.346.553.207 1.093.415 1.657.564l.046.046-.322.725c.138.023.23.011.368 0 .115-.219.207-.449.334-.667.747.16 1.53.253 2.323.276.104.092.024.276.07.39h.345c.034-.126-.012-.264.034-.379.748-.034 1.53-.115 2.243-.287l.058.011.345.656c.115 0 .265.023.357-.023l-.322-.725.023-.023c.586-.15 1.139-.38 1.702-.598.403.414.77.909 1.105 1.38.138 0 .276.012.38-.023a4.666 4.666 0 00-.553-.793 6.079 6.079 0 00-.564-.68v-.068l.898-.518.126-.046a9.251 9.251 0 012.025 2.105c.15 0 .288.058.414-.011a10.175 10.175 0 00-7.616-4.464l-.011.023-.023-.023a6.249 6.249 0 00-1.14-.011c-.137-.012-.31 0-.47.011-3.072.242-5.914 1.818-7.674 4.498.15-.023.3.023.426-.023zm5.326-1.116l-.046.012a9.989 9.989 0 01-1.53-.518l.023-.08a9.984 9.984 0 012.266-1.645c.196.08.38.138.575.23l-.034.103c-.483.61-.874 1.254-1.254 1.898zm2.554.346c-.357.046-.679-.012-1.035-.035-.345-.046-.783-.092-1.128-.207.368-.69.806-1.357 1.335-1.979l.817.115c.034.656.011 1.415.011 2.106zm.391.011a42.828 42.828 0 010-2.105c.253-.035.54-.08.794-.115.495.633.99 1.277 1.323 1.967a9.348 9.348 0 01-2.117.253zm4.096-.886c-.507.219-1.013.414-1.565.53a21.15 21.15 0 00-1.323-1.98c.184-.103.403-.172.587-.275.84.414 1.645 1.012 2.324 1.68l-.023.045zm-1.645-2.151a9.045 9.045 0 013.014 1.415l-.023.046-.886.495h-.07a11.376 11.376 0 00-2.277-1.737c.023-.093.15-.162.241-.219zm-.518-.127v.023c-1.116.806-2.922.886-4.107.139-.07-.047-.196-.081-.207-.162 1.369-.31 2.968-.333 4.314 0zm-7.811 1.565a9.155 9.155 0 012.657-1.334c.035-.035.069-.081.115-.081v.023c.104.023.184-.092.265-.011.08.069.172.115.23.172a13.143 13.143 0 00-2.29 1.772 4.248 4.248 0 01-.977-.53v-.011zM27.814 27.896c-1.208.334-2.508.081-3.382-.828-.103-.126-.16-.276-.264-.402l-1.726.011a59.306 59.306 0 000 3.198l1.921-.011.023-.61c.219.104.437.23.656.334 1.334.552 3.048.678 4.371 0 .967-.53 1.473-1.553 1.335-2.646-.138-1.07-1.162-2.037-2.209-2.301l-3.106-.897-.23-.116c-.104-.092-.173-.195-.138-.333.241-.414.805-.288 1.23-.276.898.126 1.818.425 2.348 1.242.563 0 1.22.012 1.829-.011.023-1.036-.012-1.933-.023-2.98a33.636 33.636 0 00-1.864.012c-.023.15.023.368-.034.517l-.587-.31c-1.415-.587-3.382-.656-4.67.264-.829.599-1.094 1.691-.875 2.646.161.909 1.035 1.576 1.875 1.887 1.139.402 2.335.69 3.486 1.081.115.046.264.161.241.3 0 .114-.126.172-.207.23zM18.945 40.206c0 .61-.333.943-1.046.943-.668 0-1.024-.334-1.024-.909v-.092h.644v.127c0 .253.138.356.357.356.241 0 .38-.103.38-.448v-.656h-.012c-.115.207-.322.31-.622.31-.506 0-.759-.298-.759-.828v-.655c0-.576.368-.91 1.036-.91.667 0 1.035.334 1.035.91v1.852h.011zm-.678-1.231v-.644c0-.254-.138-.346-.357-.346-.218 0-.357.093-.357.346v.644c0 .253.139.356.357.356.219 0 .357-.103.357-.356zM19.35 38.365c0-.575.368-.909 1.035-.909.667 0 1.035.334 1.035.91v1.874c0 .575-.368.91-1.035.91-.667 0-1.035-.334-1.035-.91v-1.875zm.678 1.91c0 .253.138.356.357.356.219 0 .357-.103.357-.356V38.33c0-.254-.138-.357-.357-.357-.219 0-.357.104-.357.357v1.944zM21.81 38.365c0-.575.369-.909 1.036-.909s1.035.334 1.035.91v1.874c0 .575-.368.91-1.035.91-.667 0-1.035-.334-1.035-.91v-1.875zm.68 1.91c0 .253.137.356.356.356.218 0 .357-.103.357-.356V38.33c0-.254-.139-.357-.357-.357-.219 0-.357.104-.357.357v1.944zM24.744 37.951c.53 0 .644-.207.748-.449h.46v3.613h-.679v-2.75h-.529v-.414zM27.449 38.595v.552h-.656v-.552h.656zm0 1.956v.552h-.656v-.552h.656zM28.944 37.962c-.218 0-.356.104-.356.357v.391h-.645v-.345c0-.575.345-.909 1.024-.909.668 0 1.024.334 1.024.91 0 .482-.207.862-.84 1.426-.402.356-.517.529-.517.724 0 .023 0 .046.011.08h1.289v.519h-1.98v-.45c0-.402.173-.7.68-1.15.517-.46.667-.747.667-1.127 0-.334-.138-.425-.357-.425zM30.348 38.365c0-.575.368-.909 1.035-.909.667 0 1.035.334 1.035.91v1.874c0 .575-.368.91-1.035.91-.667 0-1.035-.334-1.035-.91v-1.875zm.678 1.91c0 .253.138.356.357.356.219 0 .357-.103.357-.356V38.33c0-.254-.138-.357-.357-.357-.219 0-.357.104-.357.357v1.944zM33.281 37.951c.53 0 .645-.207.748-.449h.46v3.613h-.679v-2.75h-.529v-.414zM35.937 39.941v.334c0 .253.138.345.357.345.218 0 .356-.092.356-.345v-.794c0-.253-.138-.357-.356-.357-.219 0-.357.104-.357.357v.104h-.644l.126-2.094h1.806v.518H36.03l-.058.862h.012c.127-.172.322-.264.587-.264.506 0 .759.299.759.828v.805c0 .576-.345.91-1.024.91-.667 0-1.024-.334-1.024-.91v-.299h.656z" fill="#fff"/><path d="M13.746 11.446l.495.495c.598.598.575 1.3-.127 1.99-.701.69-1.403.702-1.99.103l-1.933-1.955c-.598-.599-.575-1.3.127-1.99s1.404-.702 1.99-.104l.357.368-.667.667-.403-.402c-.265-.265-.506-.23-.736 0-.23.218-.265.471 0 .736l2.001 2.025c.265.264.507.218.725 0 .23-.219.276-.46.012-.725l-.53-.54.68-.668zM15.69 8.708l1.163-.725.402.644-1.161.725.816 1.312 1.473-.91.402.645-2.323 1.438-2.784-4.487 2.324-1.438.402.645-1.472.908.759 1.243zM22.248 9.007c-.092-.115-.161-.173-.3-.587l-.264-.782c-.16-.46-.402-.575-.84-.426l-.322.115.69 2.037-.943.322-1.69-5.005 1.426-.483c.978-.333 1.53-.092 1.794.679l.138.391c.173.518.092.909-.276 1.22v.011c.53 0 .805.322.99.84l.264.77c.08.242.15.415.31.576l-.977.322zm-2.485-3.934l.518 1.541.368-.126c.357-.115.529-.323.391-.725l-.161-.495c-.115-.356-.322-.46-.656-.356l-.46.16zM23.973 3.163l3.071-.3.07.749-1.036.103.449 4.51-1.001.103-.438-4.51-1.035.104-.08-.76zM29.644 2.944l1 .08-.448 5.258-1-.08.448-5.258zM33.844 5.993l1.243.345-.196.725-1.242-.345-.575 2.105-.967-.265L33.5 3.462l2.554.702-.195.724-1.588-.437-.426 1.542zM38.492 5.176l.898.437-2.301 4.751-.898-.437 2.301-4.751zM41.379 9.433l1.104.816-.448.61-1.105-.817-.92 1.243 1.392 1.035-.449.61-2.185-1.622 3.152-4.245 2.185 1.622-.448.61-1.392-1.036-.886 1.174zM46.198 10.629l1.024 1.208c.644.76.61 1.438-.034 1.979L45.15 15.54c-.644.552-1.311.472-1.955-.299l-1.024-1.208 4.026-3.405zm.07 1.254l-2.877 2.439.368.425c.208.242.438.3.725.058l2.094-1.772c.287-.241.264-.483.057-.724l-.368-.426zM12.712 45.337l-.563.483c-.68.575-1.404.506-2.083-.276-.678-.782-.644-1.519.035-2.105l2.186-1.887c.678-.575 1.403-.506 2.082.276.679.782.644 1.518-.035 2.105l-.414.357-.644-.76.449-.39c.299-.265.276-.518.057-.771-.218-.253-.472-.311-.77-.058l-2.278 1.956c-.3.264-.277.506-.058.77.219.254.46.323.77.058l.599-.518.667.76zM15.946 45.348c.494-.736 1.242-.851 2.105-.276s1.047 1.312.552 2.048l-1.599 2.404c-.495.736-1.242.852-2.105.276-.863-.575-1.047-1.311-.552-2.047l1.599-2.405zm-.748 3.037c-.219.334-.127.576.15.76.275.184.54.172.759-.15l1.656-2.496c.219-.334.127-.576-.15-.76-.275-.184-.54-.172-.759.15l-1.656 2.496zM22.11 51.284h.023l1.737-3.612 1.415.391-1.484 5.35-.954-.265 1.07-3.843h-.024l-1.748 3.647-.955-.264.31-3.992h-.022L20.43 52.48l-.886-.242 1.484-5.35 1.415.392-.334 4.003zM30.439 49.432l.023.725c.035.886-.46 1.392-1.518 1.426l-.495.023.08 2.083-1.046.034-.208-5.556 1.553-.058c1.036-.034 1.576.437 1.611 1.323zm-2.094-.506l.07 1.875.494-.023c.334-.011.506-.15.495-.54l-.035-.829c-.011-.391-.195-.517-.54-.506l-.484.023zM36.872 52.044l-1.013.322-.471-.91-1.231.392.126 1.012-.92.288-.644-5.626 1.472-.46 2.68 4.982zm-2.819-.955l.967-.31-1.323-2.532h-.023l.38 2.842zM38.377 46.706l-.011.011 2.255 3.336-.783.53-3.117-4.602 1.093-.736 2.737 2.162.012-.011-1.864-2.761.783-.53 3.117 4.602-.897.61-3.325-2.611zM44.429 44.382l-3.704-1.346.701-.851 2.45 1.012.012-.012-1.438-2.231.644-.771 2.002 3.394 1.415 1.173-.667.805-1.415-1.173z" fill="#888"/></svg>