<!-- Generated by IcoMoon.io -->
<svg version="1.1" xmlns="http://www.w3.org/2000/svg" width="3413" height="1024" viewBox="0 0 3413 1024">
<title></title>
<g id="icomoon-ignore">
</g>
<path fill="#000" d="M496.271 431.956c-10.11-4.413-21.666-5.885-31.776-5.885-4.333 0-8.666 0-13 1.471h-1.446v-1.471c17.333-41.19 56.332-67.671 99.666-67.671h38.999v44.134h-38.999c-21.666 0-41.888 10.298-53.444 29.421z"></path>
<path fill="#000" d="M819.821 680.578c-28.889 0-54.888-11.769-75.11-32.365-8.666-8.827-17.333-23.538-23.112-38.25v-1.471h1.446c5.777 1.471 11.556 1.471 17.333 1.471 8.666 0 17.333-1.471 25.999-4.413 11.556 17.654 30.333 27.952 53.444 27.952h38.999v44.134h-38.999v2.942z"></path>
<path fill="#000" d="M715.827 429.013c-11.556-17.652-30.334-26.479-53.444-26.479h-38.999v-44.134h38.999c43.332 0 82.331 26.481 98.22 67.671v1.471h-1.444c-4.333 0-8.666-1.471-13-1.471-7.223 0-18.778 0-30.333 2.942z"></path>
<path fill="#000" d="M894.933 680.578v-44.134h38.999c21.666 0 40.445-10.298 53.444-29.423 10.11 2.942 20.222 5.885 30.333 5.885 4.333 0 8.666 0 13-1.471h1.444v1.471c-15.887 41.192-54.888 67.673-98.22 67.673h-38.999z"></path>
<path fill="#000" d="M623.384 680.578v-44.134h38.999c21.666 0 41.888-10.298 53.444-27.952 10.11 2.942 17.333 2.942 24.554 2.942h4.333c5.779 0 11.556-1.471 14.445-2.942h1.444v1.471c-15.889 41.192-56.332 70.615-98.22 70.615h-38.999z"></path>
<path fill="#000" d="M464.488 576.126c-30.333 0-54.888-25.009-54.888-55.902s24.556-55.904 54.888-55.904 54.888 25.009 54.888 55.904c0 30.892-24.556 55.902-54.888 55.902z"></path>
<path fill="#000" d="M549.721 680.578c-43.332 0-82.331-26.481-98.22-67.673v-1.471h1.444c4.333 0 8.666 1.471 13 1.471 10.112 0 21.666-1.471 30.333-5.885 11.556 17.654 31.778 29.423 53.444 29.423h38.999v44.134h-38.999z"></path>
<path fill="#000" d="M740.371 576.126c-30.333 0-54.888-25.009-54.888-55.902s24.556-55.904 54.888-55.904c30.334 0 54.888 25.009 54.888 55.904 0 30.892-24.554 55.902-54.888 55.902z"></path>
<path fill="#000" d="M1017.704 576.126c-30.333 0-54.888-25.009-54.888-55.902s24.556-55.904 54.888-55.904c30.334 0 56.334 25.009 56.334 55.904 0 30.892-24.556 55.902-56.334 55.902z"></path>
<path fill="#000" d="M987.377 431.956c-11.556-17.652-31.778-29.421-53.444-29.421h-38.999v-44.134h38.999c43.332 0 82.333 26.481 98.22 67.671v1.471h-1.444c-4.333 0-8.666-1.471-13-1.471-10.11 0-20.222 1.471-30.333 5.885z"></path>
<path fill="#000" d="M766.377 430.484c-8.666-2.942-17.333-4.413-25.999-4.413-5.777 0-11.556 0-17.333 1.471h-1.446v-1.471c5.779-14.71 14.445-27.95 23.112-38.248 20.222-17.654 47.665-29.423 75.11-29.423h38.999v44.134h-38.999c-21.666 0-40.445 10.298-53.444 27.95z"></path>
<path fill="#000" d="M1241.588 640.86c-17.333-5.885-31.776-13.24-41.888-22.067l15.889-35.308c10.11 7.356 21.666 14.711 36.11 19.125s28.889 7.356 43.334 7.356c18.777 0 31.776-2.942 40.443-8.827s13-13.24 13-23.538c0-7.356-2.888-13.24-7.221-17.654s-11.556-8.827-18.778-10.298c-7.221-2.941-18.777-5.883-31.776-8.825-18.778-4.413-33.222-8.827-44.778-13.24s-21.666-11.769-28.889-20.596c-8.666-10.298-13-23.538-13-39.721 0-13.24 4.333-26.481 11.556-36.779 7.223-11.767 18.777-20.594 33.222-26.479s33.222-10.298 53.443-10.298c14.445 0 28.889 1.471 43.334 5.885 14.444 4.413 27.443 8.827 37.555 16.183l-14.445 35.306c-10.11-5.885-21.666-11.769-33.222-14.711-10.11-2.942-21.666-4.413-33.222-4.413-17.333 0-31.776 2.942-40.443 8.827s-13 14.711-13 25.009c0 7.356 2.888 13.24 7.223 17.654 5.777 4.413 13 7.356 20.221 10.298 7.223 2.942 18.778 5.885 31.778 8.827 18.777 4.413 33.222 8.827 44.776 13.24 11.556 4.413 21.668 11.769 30.334 20.596s13 22.065 13 38.248c0 13.24-4.333 26.481-11.556 36.779-7.223 11.769-18.778 20.596-33.222 26.481-14.444 7.356-33.222 10.298-54.888 10.298-20.222 0-37.555-1.471-54.888-7.356z"></path>
<path fill="#000" d="M1565.148 473.153c14.444 13.239 21.666 33.835 21.666 60.315v110.334h-40.445v-23.538c-5.777 8.827-13 14.711-23.11 19.125-10.112 4.413-21.666 5.885-36.111 5.885-14.444 0-25.999-2.942-36.11-7.356-10.112-4.413-18.778-11.769-24.556-20.596s-8.666-17.652-8.666-29.421c0-17.654 5.777-30.894 18.777-41.192s31.778-14.711 59.221-14.711h47.667v-2.942c0-13.24-4.333-23.538-11.556-30.894-7.223-4.413-18.778-7.356-34.666-7.356-10.112 0-20.222 1.471-30.333 4.413s-18.778 7.356-26.001 13.24l-17.333-32.365c10.112-7.354 21.666-13.239 34.666-17.652s28.889-5.885 43.334-5.885c28.889 1.471 49.109 7.356 63.555 20.596zM1526.149 608.495c8.666-4.412 14.444-11.767 17.333-22.065v-22.067h-44.778c-24.556 0-37.555 8.827-37.555 25.009 0 7.356 2.889 14.711 10.112 19.123 5.777 4.413 14.444 7.356 25.999 7.356 10.11 0 20.221-2.942 28.889-7.356z"></path>
<path fill="#000" d="M1638.799 381.94h43.334v263.332h-43.334v-263.332z"></path>
<path fill="#000" d="M1910.357 564.362h-145.886c2.884 13.24 8.653 25.008 20.224 33.835 10.103 8.827 24.542 11.769 40.431 11.769 20.224 0 37.564-7.356 50.569-20.596l23.108 27.952c-8.67 10.298-18.79 17.654-31.778 23.538-13.005 5.885-27.443 7.356-43.332 7.356-20.224 0-38.997-4.413-53.453-11.769-15.889-8.827-27.443-19.125-36.113-35.308-8.653-14.711-12.988-30.892-12.988-50.017s4.335-35.308 12.988-50.019c8.67-14.711 20.224-26.481 34.679-35.308 14.438-8.827 31.778-11.769 49.101-11.769 18.773 0 34.662 4.413 49.118 11.769 14.438 8.827 25.993 19.125 33.212 33.836 8.67 14.711 11.554 32.365 11.554 51.49 0 2.942 0 7.356-1.434 13.24zM1781.794 501.103c-10.103 8.827-15.889 19.125-17.323 33.836h105.438c-1.451-13.24-7.219-25.009-17.34-33.836-10.103-8.827-21.658-13.24-36.096-13.24-13.005 1.471-24.559 5.885-34.679 13.24z"></path>
<path fill="#000" d="M1962.342 642.331c-14.438-4.413-25.993-8.827-34.662-14.711l17.34-33.836c8.67 5.885 18.773 10.298 30.327 13.24s23.108 4.413 34.662 4.413c26.010 0 38.997-7.356 38.997-20.596 0-5.885-2.884-11.767-10.103-13.239-7.219-2.942-17.34-4.413-31.778-7.356-15.889-2.942-27.443-4.413-37.547-8.827-10.121-2.942-17.34-8.827-24.559-16.183s-10.121-17.654-10.121-32.365c0-17.654 7.236-32.365 21.675-42.663s34.662-16.183 59.221-16.183c13.005 0 25.993 1.471 38.997 4.413s23.108 7.356 31.778 11.769l-17.34 33.836c-15.889-8.827-33.212-14.711-53.436-14.711-13.005 0-23.108 1.471-28.894 5.885-5.769 4.413-10.103 8.827-10.103 14.711 0 7.356 2.884 11.769 10.103 14.711s17.34 5.885 33.229 8.827c14.438 2.942 27.443 4.413 36.113 8.827 10.103 2.942 17.323 8.827 24.542 16.183 7.236 7.356 10.121 17.654 10.121 30.892 0 17.654-7.219 32.365-23.108 42.663-14.455 10.298-36.113 16.183-62.123 16.183-12.988 0-28.877-2.942-43.332-5.885z"></path>
<path fill="#000" d="M2415.906 474.624c13.005 13.24 20.224 35.306 20.224 61.786v108.863h-43.332v-102.979c0-16.183-2.884-29.423-10.103-36.779-7.219-8.825-17.34-13.239-30.345-13.239-14.438 0-25.993 4.413-34.662 14.71-8.67 10.298-12.988 23.538-12.988 42.663v95.623h-43.332v-102.979c0-16.183-2.901-29.423-10.121-36.779-7.219-8.825-17.34-13.239-30.327-13.239-14.455 0-26.010 4.413-34.662 14.71-8.67 10.298-13.005 23.538-13.005 42.663v95.623h-43.332v-189.775h41.882v23.538c7.219-8.827 15.889-14.711 26.010-19.125 10.103-4.413 21.658-7.356 34.662-7.356 14.438 0 25.993 2.942 37.547 7.356 10.121 5.885 18.79 13.24 26.010 23.538 7.219-10.298 17.323-17.654 28.877-23.538s26.010-8.827 40.448-8.827c18.773 2.942 37.564 8.827 50.551 23.538z"></path>
<path fill="#000" d="M2622.447 473.148c14.438 13.24 21.675 33.836 21.675 60.317v110.334h-40.448v-23.538c-5.786 8.827-13.005 14.711-23.108 19.125-10.121 4.413-21.675 5.885-36.113 5.885-14.455 0-26.010-2.942-36.113-7.356s-18.773-11.769-24.559-20.596c-5.769-8.827-8.67-17.654-8.67-29.421 0-17.654 5.786-30.894 18.79-41.192 12.988-10.298 31.778-14.711 59.221-14.711h47.667v-2.942c0-13.24-4.335-23.538-11.571-30.894-7.219-7.356-18.773-10.298-34.662-10.298-10.103 0-20.224 1.471-30.327 4.413-10.121 2.942-18.773 7.356-25.993 13.24l-17.34-32.365c10.103-7.356 21.658-13.239 34.662-17.652s28.894-5.885 43.332-5.885c28.894 4.413 49.118 10.298 63.556 23.537zM2583.45 608.492c8.67-4.413 14.438-11.769 17.34-22.065v-22.067h-44.783c-24.559 0-37.564 8.827-37.564 25.009 0 7.354 2.901 14.71 10.121 19.123 5.769 4.413 14.438 7.356 25.993 7.356 10.121 0 20.224-2.942 28.894-7.356z"></path>
<path fill="#000" d="M2808.798 634.974c-5.769 4.413-11.554 7.356-18.773 10.298-7.219 1.471-14.438 2.942-23.108 2.942-20.224 0-36.113-5.885-47.667-16.183s-17.34-26.481-17.34-47.077v-92.681h-30.327v-35.308h30.327v-42.663h43.332v42.663h49.118v35.308h-49.118v89.738c0 8.827 2.901 16.183 7.236 20.596s10.103 7.356 18.773 7.356c10.103 0 17.323-2.942 24.559-7.356l12.988 32.365z"></path>
<path fill="#000" d="M3009.57 564.362h-145.886c2.884 13.24 8.67 25.008 20.224 33.835 10.103 8.827 24.559 11.769 40.448 11.769 20.207 0 37.547-7.356 50.551-20.596l23.108 27.952c-8.67 10.298-18.773 17.654-31.778 23.538s-27.443 7.356-43.332 7.356c-20.224 0-38.997-4.413-53.453-11.769-15.889-8.827-27.443-19.125-36.096-35.308-8.67-14.711-13.005-30.892-13.005-50.017s4.335-35.308 13.005-50.019c8.653-14.711 20.207-26.481 34.662-35.308 14.438-8.827 31.778-11.769 49.101-11.769 18.79 0 34.679 4.413 49.118 11.769 14.438 8.827 25.993 19.125 33.229 33.836 8.653 14.711 11.554 32.365 11.554 51.49-1.451 2.942-1.451 7.356-1.451 13.24zM2879.573 501.103c-10.121 8.827-15.889 19.125-17.34 33.836h105.455c-1.451-13.24-7.236-25.009-17.34-33.836s-21.675-13.24-36.113-13.24c-13.005 1.471-24.559 5.885-34.662 13.24z"></path>
</svg>
